<svg xmlns="http://www.w3.org/2000/svg" xmlns:xlink="http://www.w3.org/1999/xlink" width="1080" zoomAndPan="magnify" viewBox="0 0 810 809.999993" height="1080" preserveAspectRatio="xMidYMid meet" version="1.0"><path fill="#38b6ff" d="M 690.253906 604.097656 L 673.175781 604.097656 C 627.960938 556.585938 603.140625 494.570312 603.140625 428.742188 L 603.140625 295.238281 C 603.140625 217.3125 557.878906 149.765625 492.269531 117.480469 L 492.269531 89.332031 C 492.269531 41.296875 453.191406 2.21875 405.15625 2.21875 C 357.121094 2.21875 318.042969 41.296875 318.042969 89.332031 L 318.042969 117.480469 C 252.433594 149.765625 207.167969 217.3125 207.167969 295.238281 L 207.167969 428.742188 C 207.167969 494.570312 182.351562 556.582031 137.136719 604.097656 L 120.054688 604.097656 C 89.488281 604.097656 64.621094 628.964844 64.621094 659.53125 C 64.621094 690.101562 89.488281 714.96875 120.054688 714.96875 L 318.042969 714.96875 L 318.042969 722.886719 C 318.042969 770.921875 357.121094 810 405.15625 810 C 453.191406 810 492.269531 770.921875 492.269531 722.886719 L 492.269531 714.96875 L 690.253906 714.96875 C 720.824219 714.96875 745.691406 690.101562 745.691406 659.53125 C 745.691406 628.964844 720.824219 604.097656 690.253906 604.097656 Z M 349.71875 89.332031 C 349.71875 58.765625 374.585938 33.898438 405.15625 33.898438 C 435.722656 33.898438 460.589844 58.765625 460.589844 89.332031 L 460.589844 105.164062 C 424.488281 94.613281 385.847656 94.609375 349.71875 105.164062 Z M 238.847656 428.742188 L 238.847656 295.238281 C 238.847656 203.535156 313.453125 128.929688 405.15625 128.929688 C 496.859375 128.929688 571.464844 203.535156 571.464844 295.238281 L 571.464844 428.742188 C 571.464844 493.058594 592.535156 554.140625 631.410156 604.097656 L 178.898438 604.097656 C 217.773438 554.140625 238.847656 493.058594 238.847656 428.742188 Z M 460.589844 722.886719 C 460.589844 753.457031 435.722656 778.324219 405.15625 778.324219 C 374.585938 778.324219 349.71875 753.457031 349.71875 722.886719 L 349.71875 714.96875 L 460.589844 714.96875 Z M 460.589844 722.886719 " fill-opacity="1" fill-rule="nonzero"/><path fill="#38b6ff" d="M 552.257812 115.804688 C 609.789062 147.585938 643.640625 210.871094 638.496094 277.023438 C 637.816406 285.746094 644.339844 293.363281 653.058594 294.042969 C 661.808594 294.722656 669.402344 288.175781 670.078125 279.480469 C 676.183594 200.976562 635.945312 125.847656 567.574219 88.074219 C 559.917969 83.847656 550.277344 86.621094 546.050781 94.28125 C 541.824219 101.9375 544.601562 111.574219 552.257812 115.804688 Z M 552.257812 115.804688 " fill-opacity="1" fill-rule="nonzero"/><path fill="#38b6ff" d="M 568.28125 31.921875 C 664.65625 85.164062 721.363281 191.148438 712.75 301.929688 C 712.070312 310.652344 718.59375 318.269531 727.3125 318.949219 C 735.992188 319.625 743.652344 313.148438 744.332031 304.386719 C 753.90625 181.257812 690.8125 63.421875 583.601562 4.195312 C 575.941406 -0.0351562 566.304688 2.742188 562.078125 10.398438 C 557.847656 18.054688 560.625 27.691406 568.28125 31.921875 Z M 568.28125 31.921875 " fill-opacity="1" fill-rule="nonzero"/><path fill="#38b6ff" d="M 139.839844 279.480469 C 140.484375 287.78125 147.421875 294.089844 155.617188 294.089844 C 164.902344 294.089844 172.136719 286.195312 171.421875 277.023438 C 166.28125 210.867188 200.132812 147.585938 257.660156 115.804688 C 265.320312 111.574219 268.097656 101.9375 263.867188 94.28125 C 259.640625 86.625 249.996094 83.847656 242.347656 88.078125 C 173.976562 125.84375 133.742188 200.976562 139.839844 279.480469 Z M 139.839844 279.480469 " fill-opacity="1" fill-rule="nonzero"/><path fill="#38b6ff" d="M 82.609375 318.949219 C 91.328125 318.269531 97.847656 310.652344 97.167969 301.929688 C 88.558594 191.148438 145.261719 85.164062 241.640625 31.921875 C 249.296875 27.691406 252.074219 18.054688 247.84375 10.398438 C 243.613281 2.738281 233.976562 -0.0351562 226.320312 4.195312 C 119.105469 63.421875 56.015625 181.253906 65.589844 304.386719 C 66.269531 313.117188 73.894531 319.625 82.609375 318.949219 Z M 82.609375 318.949219 " fill-opacity="1" fill-rule="nonzero"/></svg>