<svg xmlns="http://www.w3.org/2000/svg" xmlns:xlink="http://www.w3.org/1999/xlink" width="1080" zoomAndPan="magnify" viewBox="0 0 810 809.999993" height="1080" preserveAspectRatio="xMidYMid meet" version="1.0"><defs><clipPath id="730144e10a"><path d="M 9.5 104.417969 L 382 104.417969 L 382 705.917969 L 9.5 705.917969 Z M 9.5 104.417969 " clip-rule="nonzero"/></clipPath><clipPath id="d89c48e334"><path d="M 418 104.417969 L 800.75 104.417969 L 800.75 705.917969 L 418 705.917969 Z M 418 104.417969 " clip-rule="nonzero"/></clipPath></defs><g clip-path="url(#730144e10a)"><path fill="#ffffff" d="M 214.183594 361.714844 C 176.769531 361.714844 142.339844 374.183594 114.511719 394.945312 C 117.25 308.277344 184.246094 221.574219 316.4375 134.859375 L 296.820312 104.421875 C 105.28125 223.425781 9.5 354.035156 9.5 496.222656 C 9.5 561.519531 27.265625 612.691406 62.828125 649.652344 C 98.367188 686.6875 143.367188 705.15625 197.777344 705.15625 C 252.222656 705.15625 296.089844 690.300781 329.480469 660.546875 C 362.84375 630.828125 379.550781 594.875 379.550781 552.820312 C 379.550781 552.34375 379.460938 551.996094 379.460938 551.492188 C 380.480469 544.03125 381.203125 536.492188 381.203125 528.703125 C 381.203125 436.503906 306.398438 361.714844 214.183594 361.714844 Z M 214.183594 361.714844 " fill-opacity="1" fill-rule="nonzero"/></g><g clip-path="url(#d89c48e334)"><path fill="#ffffff" d="M 754.1875 644.003906 C 756.347656 641.507812 758.964844 639.125 760.949219 636.515625 C 785.550781 607.414062 800.492188 569.851562 800.492188 528.710938 C 800.492188 436.511719 725.703125 361.699219 633.488281 361.699219 C 591.25 361.699219 552.800781 377.503906 523.375 403.386719 C 523.375 402.355469 523.207031 401.488281 523.207031 400.425781 C 523.207031 311.921875 590.671875 223.371094 725.65625 134.84375 L 706.054688 104.421875 C 514.492188 223.425781 418.710938 354.035156 418.710938 496.257812 C 418.710938 561.550781 436.476562 612.714844 472.054688 649.675781 C 507.585938 686.710938 552.578125 705.203125 606.992188 705.203125 C 661.402344 705.203125 705.328125 690.324219 738.691406 660.554688 C 743.414062 656.398438 747.074219 651.734375 751.117188 647.28125 C 752.183594 646.21875 753.140625 645.113281 754.1875 644.003906 Z M 754.1875 644.003906 " fill-opacity="1" fill-rule="nonzero"/></g></svg>