<svg xmlns="http://www.w3.org/2000/svg" xmlns:xlink="http://www.w3.org/1999/xlink" width="1080" zoomAndPan="magnify" viewBox="0 0 810 809.999993" height="1080" preserveAspectRatio="xMidYMid meet" version="1.0"><defs><clipPath id="f308d8d6ef"><path d="M 7.230469 8.25 L 802.769531 8.25 L 802.769531 803.789062 L 7.230469 803.789062 Z M 7.230469 8.25 " clip-rule="nonzero"/></clipPath><clipPath id="c4ad734524"><path d="M 7.230469 406.019531 C 7.230469 625.703125 185.316406 803.789062 405 803.789062 C 624.679688 803.789062 802.769531 625.703125 802.769531 406.019531 C 802.769531 186.335938 624.679688 8.25 405 8.25 C 185.316406 8.25 7.230469 186.335938 7.230469 406.019531 Z M 7.230469 406.019531 " clip-rule="nonzero"/></clipPath><clipPath id="666a690c35"><path d="M 210.152344 207.472656 L 600 207.472656 L 600 597.472656 L 210.152344 597.472656 Z M 210.152344 207.472656 " clip-rule="nonzero"/></clipPath></defs><g clip-path="url(#f308d8d6ef)"><g clip-path="url(#c4ad734524)"><path stroke-linecap="butt" transform="matrix(0, -0.75, 0.75, 0, 7.229827, 803.789044)" fill="none" stroke-linejoin="miter" d="M 530.359376 0.000855698 C 237.447903 0.000855698 -0.00002525 237.448784 -0.00002525 530.360257 C -0.00002525 823.266522 237.447903 1060.719659 530.359376 1060.719659 C 823.27085 1060.719659 1060.718778 823.266522 1060.718778 530.360257 C 1060.718778 237.448784 823.27085 0.000855698 530.359376 0.000855698 Z M 530.359376 0.000855698 " stroke="#a6a6a6" stroke-width="2" stroke-opacity="1" stroke-miterlimit="4"/></g></g><g clip-path="url(#666a690c35)"><path fill="#a6a6a6" d="M 555.199219 207.472656 L 528.570312 207.472656 L 427.949219 351.601562 L 327.277344 207.472656 L 210.179688 207.472656 L 369.414062 435.445312 L 256.171875 597.648438 L 282.800781 597.648438 L 382.730469 454.511719 L 482.707031 597.648438 L 599.804688 597.648438 L 441.265625 370.667969 Z M 555.199219 207.472656 " fill-opacity="1" fill-rule="nonzero"/></g></svg>