<svg xmlns="http://www.w3.org/2000/svg" xmlns:xlink="http://www.w3.org/1999/xlink" width="1080" zoomAndPan="magnify" viewBox="0 0 810 809.999993" height="1080" preserveAspectRatio="xMidYMid meet" version="1.0"><defs><clipPath id="860f7f0fb3"><path d="M 9.75 0 L 797.027344 0 L 797.027344 787.277344 L 9.75 787.277344 Z M 9.75 0 " clip-rule="nonzero"/></clipPath><clipPath id="bbf492ed21"><path d="M 9.75 393.636719 C 9.75 611.039062 185.988281 787.277344 403.386719 787.277344 C 620.789062 787.277344 797.027344 611.039062 797.027344 393.636719 C 797.027344 176.238281 620.789062 0 403.386719 0 C 185.988281 0 9.75 176.238281 9.75 393.636719 Z M 9.75 393.636719 " clip-rule="nonzero"/></clipPath><clipPath id="c56497735f"><path d="M 311.308594 199 L 495.808594 199 L 495.808594 588 L 311.308594 588 Z M 311.308594 199 " clip-rule="nonzero"/></clipPath></defs><g clip-path="url(#860f7f0fb3)"><g clip-path="url(#bbf492ed21)"><path stroke-linecap="butt" transform="matrix(0, -0.75, 0.75, 0, 9.750003, 787.277332)" fill="none" stroke-linejoin="miter" d="M 524.84897 -0.00000401265 C 234.984372 -0.00000401265 -0.0000151425 234.984383 -0.0000151425 524.848981 C -0.0000151425 814.718787 234.984372 1049.703174 524.84897 1049.703174 C 814.718776 1049.703174 1049.703163 814.718787 1049.703163 524.848981 C 1049.703163 234.984383 814.718776 -0.00000401265 524.84897 -0.00000401265 Z M 524.84897 -0.00000401265 " stroke="#a6a6a6" stroke-width="2" stroke-opacity="1" stroke-miterlimit="4"/></g></g><g clip-path="url(#c56497735f)"><path fill="#a6a6a6" d="M 452.984375 263.40625 L 495.46875 263.40625 L 495.46875 199.351562 L 441.21875 199.351562 L 441.21875 199.59375 C 369.890625 202.210938 355.183594 242.164062 353.960938 284.402344 L 353.796875 284.402344 L 353.796875 328.851562 L 311.308594 328.851562 L 311.308594 392.988281 L 353.796875 392.988281 L 353.796875 587.933594 L 430.023438 587.933594 L 430.023438 392.988281 L 484.683594 392.988281 L 495.46875 328.851562 L 430.027344 328.851562 L 430.027344 289.0625 C 430.027344 274.925781 439.503906 263.40625 452.984375 263.40625 Z M 452.984375 263.40625 " fill-opacity="1" fill-rule="nonzero"/></g></svg>