<svg xmlns="http://www.w3.org/2000/svg" xmlns:xlink="http://www.w3.org/1999/xlink" width="1080" zoomAndPan="magnify" viewBox="0 0 810 809.999993" height="1080" preserveAspectRatio="xMidYMid meet" version="1.0"><defs><clipPath id="6c89d829e8"><path d="M 0 101.25 L 810 101.25 L 810 708.75 L 0 708.75 Z M 0 101.25 " clip-rule="nonzero"/></clipPath></defs><g clip-path="url(#6c89d829e8)"><path fill="#38b6ff" d="M 809.980469 101.257812 L 809.980469 620.191406 C 809.980469 670.695312 773.011719 708.742188 726.8125 708.742188 L 110.042969 708.742188 C 33.753906 708.742188 0 676.066406 0 579.363281 L 0 206.570312 L 106.820312 206.570312 L 106.820312 101.269531 L 809.957031 101.269531 Z M 106.84375 257.511719 L 50.96875 257.511719 L 50.96875 579.351562 C 50.96875 628.78125 62.789062 652.417969 77.832031 652.417969 C 96.097656 652.417969 106.84375 628.78125 106.84375 579.351562 Z M 759.046875 152.207031 L 157.777344 152.207031 L 157.777344 579.339844 C 157.777344 613.722656 151.332031 638.4375 141.660156 657.78125 L 726.828125 657.78125 C 746.167969 657.78125 759.0625 635.214844 759.0625 620.171875 Z M 393.71875 363.429688 L 244.601562 363.429688 L 244.601562 344.089844 L 393.71875 344.089844 Z M 393.71875 426.824219 L 244.601562 426.824219 L 244.601562 407.484375 L 393.71875 407.484375 Z M 393.71875 488.070312 L 244.601562 488.070312 L 244.601562 468.730469 L 393.71875 468.730469 Z M 393.71875 547.164062 L 244.601562 547.164062 L 244.601562 527.824219 L 393.71875 527.824219 Z M 277.679688 244.164062 L 635.480469 244.164062 L 635.480469 279.992188 L 277.679688 279.992188 Z M 447.445312 344.085938 L 676.308594 344.085938 L 676.308594 526.832031 L 447.445312 526.832031 Z M 447.445312 344.085938 " fill-opacity="1" fill-rule="nonzero"/></g></svg>