<svg width="200" height="200" viewBox="0 0 200 200" fill="none" xmlns="http://www.w3.org/2000/svg">
<circle cx="100" cy="100" r="100" fill="#F5F5F7"/>
<path d="M99.9997 45C99.3457 45.0005 98.6918 45.0176 98.0378 45.0503C97.3843 45.0829 96.7319 45.1321 96.0806 45.1968C95.4293 45.2615 94.7801 45.3422 94.1331 45.439C93.4855 45.5353 92.8411 45.6476 92.1995 45.7759C91.5578 45.9042 90.9193 46.0481 90.2846 46.2074C89.6498 46.3673 89.0199 46.5422 88.3937 46.7326C87.7675 46.9229 87.1462 47.1283 86.5301 47.3491C85.9141 47.57 85.304 47.8058 84.6997 48.0566C84.0949 48.3074 83.4971 48.5731 82.9057 48.8533C82.3142 49.133 81.7298 49.4277 81.1528 49.7362C80.5758 50.0453 80.0068 50.3677 79.4453 50.7046C78.8844 51.041 78.3315 51.3912 77.7876 51.7549C77.2438 52.1185 76.7091 52.4955 76.1834 52.8853C75.6578 53.2757 75.1417 53.6783 74.6364 54.0933C74.1305 54.5088 73.6348 54.936 73.1504 55.3756C72.6654 55.8151 72.1916 56.2659 71.7285 56.729C71.2659 57.1916 70.8146 57.6654 70.3751 58.1504C69.9355 58.6354 69.5082 59.1305 69.0933 59.6364C68.6778 60.1423 68.2751 60.6578 67.8853 61.1834C67.4955 61.7091 67.1185 62.2438 66.7549 62.7876C66.3912 63.332 66.041 63.8844 65.7041 64.4459C65.3677 65.0068 65.0448 65.5758 64.7362 66.1533C64.4277 66.7303 64.133 67.3142 63.8528 67.9057C63.5726 68.4971 63.3074 69.0955 63.0566 69.6997C62.8058 70.304 62.57 70.9146 62.3491 71.5307C62.1283 72.1467 61.9229 72.7675 61.732 73.3937C61.5417 74.0199 61.3668 74.6503 61.2074 75.2851C61.0481 75.9198 60.9042 76.5578 60.7759 77.1995C60.6476 77.8411 60.5353 78.486 60.4385 79.1331C60.3422 79.7801 60.2615 80.4298 60.1968 81.0806C60.1315 81.7319 60.0829 82.3843 60.0503 83.0383C60.0171 83.6918 60.0005 84.3457 60 85.0003C60 115.571 96.4731 152.399 98.0281 153.949L99.9997 155.921L101.972 153.949C103.526 152.397 140 115.569 140 85.0003C139.999 84.3457 139.982 83.6918 139.95 83.0383C139.917 82.3843 139.868 81.7319 139.803 81.0806C139.739 80.4298 139.658 79.7801 139.562 79.1331C139.465 78.486 139.352 77.8411 139.224 77.1995C139.096 76.5578 138.952 75.9198 138.793 75.2851C138.633 74.6503 138.458 74.0199 138.267 73.3937C138.077 72.7675 137.872 72.1467 137.651 71.5307C137.43 70.9146 137.194 70.304 136.943 69.6997C136.693 69.0955 136.427 68.4971 136.147 67.9057C135.867 67.3142 135.572 66.7303 135.264 66.1528C134.955 65.5758 134.632 65.0068 134.296 64.4459C133.959 63.8844 133.609 63.332 133.245 62.7876C132.882 62.2438 132.505 61.7091 132.115 61.1834C131.725 60.6578 131.322 60.1423 130.907 59.6364C130.492 59.1305 130.064 58.6354 129.625 58.1504C129.185 57.6654 128.734 57.1916 128.272 56.729C127.808 56.2659 127.335 55.8151 126.85 55.3756C126.365 54.936 125.869 54.5088 125.364 54.0933C124.858 53.6778 124.342 53.2757 123.817 52.8853C123.291 52.4955 122.756 52.1185 122.212 51.7549C121.669 51.3912 121.116 51.041 120.555 50.7046C119.993 50.3677 119.424 50.0453 118.847 49.7362C118.27 49.4277 117.686 49.133 117.094 48.8533C116.503 48.5731 115.905 48.3074 115.3 48.0566C114.696 47.8058 114.086 47.57 113.47 47.3491C112.854 47.1283 112.232 46.9229 111.606 46.7326C110.98 46.5422 110.35 46.3673 109.715 46.2074C109.081 46.0481 108.442 45.9042 107.801 45.7759C107.159 45.6476 106.514 45.5353 105.867 45.439C105.22 45.3422 104.571 45.2615 103.919 45.1968C103.268 45.1321 102.616 45.0829 101.962 45.0503C101.308 45.0176 100.654 45.0005 99.9997 45ZM99.9997 106.396C99.65 106.395 99.2998 106.387 98.95 106.37C98.6003 106.352 98.2511 106.327 97.903 106.293C97.5544 106.258 97.2068 106.216 96.8608 106.164C96.5143 106.112 96.1694 106.053 95.8261 105.985C95.4828 105.916 95.1411 105.84 94.8015 105.754C94.4614 105.669 94.1245 105.576 93.7892 105.474C93.454 105.373 93.1219 105.263 92.792 105.145C92.4626 105.027 92.1358 104.901 91.8123 104.767C91.4888 104.633 91.169 104.491 90.8524 104.341C90.5359 104.192 90.2231 104.034 89.9145 103.869C89.6054 103.704 89.3006 103.532 89.0006 103.352C88.7001 103.171 88.4044 102.984 88.1135 102.79C87.8221 102.595 87.536 102.394 87.2547 102.185C86.9734 101.977 86.6975 101.761 86.4269 101.539C86.1563 101.317 85.8911 101.089 85.6318 100.853C85.3724 100.618 85.1189 100.377 84.8714 100.129C84.6238 99.8816 84.3821 99.6281 84.1468 99.3682C83.912 99.1089 83.6832 98.8437 83.4612 98.5731C83.2388 98.3025 83.0238 98.0266 82.8153 97.7453C82.6062 97.464 82.4051 97.1779 82.2105 96.887C82.0158 96.5956 81.8287 96.2999 81.6485 95.9994C81.4683 95.6994 81.2961 95.3946 81.1308 95.086C80.9656 94.7769 80.8084 94.4641 80.6587 94.1481C80.5089 93.8315 80.3672 93.5112 80.233 93.1877C80.0993 92.8642 79.9731 92.5374 79.8555 92.208C79.7373 91.8781 79.6277 91.546 79.5261 91.2108C79.424 90.876 79.3309 90.5386 79.2459 90.199C79.1609 89.8589 79.0839 89.5178 79.0159 89.1739C78.9475 88.8306 78.8876 88.4857 78.8363 88.1397C78.7849 87.7932 78.7422 87.4456 78.7074 87.0975C78.6732 86.7489 78.6475 86.3997 78.6304 86.05C78.6133 85.7002 78.6047 85.3505 78.6047 85.0003C78.6047 84.65 78.6133 84.3003 78.6304 83.9506C78.6475 83.6008 78.6732 83.2517 78.7074 82.903C78.7422 82.5544 78.7849 82.2073 78.8363 81.8608C78.8876 81.5143 78.9475 81.1694 79.0159 80.8261C79.0839 80.4828 79.1609 80.1411 79.2459 79.8015C79.3309 79.462 79.4245 79.1245 79.5261 78.7892C79.6277 78.4545 79.7373 78.1219 79.8555 77.7925C79.9731 77.4626 80.0993 77.1358 80.233 76.8123C80.3672 76.4888 80.5089 76.169 80.6587 75.8524C80.8084 75.5359 80.9656 75.2231 81.1308 74.9145C81.2961 74.6054 81.4683 74.3012 81.6485 74.0006C81.8287 73.7001 82.0158 73.4044 82.2105 73.1135C82.4051 72.8226 82.6062 72.536 82.8153 72.2547C83.0238 71.9734 83.2388 71.6975 83.4612 71.4269C83.6832 71.1563 83.912 70.8911 84.1468 70.6318C84.3821 70.3724 84.6238 70.1189 84.8714 69.8714C85.1189 69.6238 85.3724 69.3821 85.6318 69.1473C85.8911 68.912 86.1563 68.6832 86.4269 68.4612C86.6975 68.2393 86.9734 68.0238 87.2547 67.8153C87.536 67.6067 87.8221 67.4051 88.1135 67.2105C88.4044 67.0158 88.7001 66.8287 89.0006 66.6485C89.3006 66.4688 89.6054 66.2961 89.9145 66.1308C90.2231 65.9661 90.5359 65.8084 90.8524 65.6587C91.169 65.5095 91.4888 65.3672 91.8123 65.2335C92.1358 65.0993 92.4626 64.9731 92.792 64.8555C93.1219 64.7373 93.454 64.6277 93.7892 64.5261C94.1245 64.4245 94.4614 64.3309 94.8015 64.2459C95.1411 64.1609 95.4828 64.0844 95.8261 64.0159C96.1694 63.9475 96.5143 63.8876 96.8608 63.8363C97.2068 63.7849 97.5544 63.7422 97.903 63.7079C98.2511 63.6737 98.6003 63.6475 98.95 63.6304C99.2998 63.6133 99.65 63.6047 99.9997 63.6047C100.35 63.6047 100.7 63.6133 101.05 63.6304C101.4 63.6475 101.749 63.6737 102.097 63.7079C102.446 63.7422 102.793 63.7849 103.139 63.8363C103.486 63.8876 103.831 63.9475 104.174 64.0159C104.517 64.0844 104.859 64.1609 105.198 64.2459C105.538 64.3309 105.875 64.4245 106.211 64.5261C106.546 64.6277 106.878 64.7373 107.208 64.8555C107.537 64.9731 107.864 65.0993 108.188 65.2335C108.511 65.3672 108.831 65.5095 109.148 65.6587C109.464 65.8084 109.777 65.9661 110.085 66.1308C110.395 66.2961 110.699 66.4688 110.999 66.6485C111.3 66.8287 111.596 67.0158 111.887 67.2105C112.178 67.4051 112.464 67.6067 112.745 67.8153C113.027 68.0238 113.302 68.2393 113.573 68.4612C113.844 68.6832 114.109 68.912 114.368 69.1473C114.628 69.3821 114.881 69.6238 115.129 69.8714C115.376 70.1189 115.618 70.3724 115.853 70.6318C116.088 70.8911 116.317 71.1563 116.539 71.4269C116.761 71.6975 116.976 71.9734 117.185 72.2547C117.393 72.536 117.595 72.8226 117.79 73.1135C117.984 73.4044 118.171 73.7001 118.352 74.0006C118.531 74.3012 118.704 74.6054 118.869 74.9145C119.034 75.2231 119.192 75.5359 119.341 75.8524C119.491 76.169 119.633 76.4888 119.767 76.8123C119.901 77.1358 120.027 77.4626 120.145 77.7925C120.263 78.1219 120.372 78.4545 120.474 78.7892C120.576 79.1245 120.669 79.462 120.754 79.8015C120.839 80.1411 120.916 80.4828 120.984 80.8261C121.053 81.1694 121.112 81.5143 121.164 81.8608C121.215 82.2073 121.258 82.5544 121.293 82.903C121.327 83.2517 121.352 83.6008 121.37 83.9506C121.387 84.3003 121.395 84.65 121.395 85.0003C121.395 85.35 121.386 85.7002 121.369 86.0494C121.351 86.3992 121.325 86.7483 121.29 87.0965C121.256 87.4446 121.212 87.7922 121.161 88.1381C121.109 88.4846 121.049 88.829 120.98 89.1723C120.912 89.5156 120.835 89.8573 120.749 90.1969C120.664 90.5359 120.571 90.8733 120.469 91.2081C120.367 91.5434 120.257 91.8754 120.139 92.2048C120.02 92.5342 119.895 92.861 119.761 93.184C119.626 93.5075 119.484 93.8272 119.334 94.1438C119.185 94.4598 119.027 94.7727 118.862 95.0812C118.697 95.3898 118.524 95.694 118.344 95.9946C118.164 96.2945 117.977 96.5903 117.783 96.8812C117.588 97.1721 117.386 97.4581 117.178 97.7394C116.969 98.0207 116.754 98.2961 116.532 98.5667C116.309 98.8372 116.081 99.1025 115.846 99.3618C115.61 99.6212 115.369 99.8746 115.122 100.122C114.874 100.369 114.621 100.611 114.362 100.846C114.102 101.081 113.837 101.31 113.567 101.532C113.296 101.754 113.02 101.969 112.739 102.178C112.458 102.386 112.172 102.588 111.881 102.783C111.59 102.977 111.295 103.164 110.994 103.345C110.694 103.524 110.39 103.697 110.081 103.862C109.772 104.027 109.46 104.185 109.143 104.334C108.827 104.485 108.507 104.626 108.184 104.761C107.86 104.895 107.534 105.021 107.205 105.139C106.875 105.257 106.543 105.367 106.208 105.469C105.873 105.571 105.536 105.664 105.196 105.75C104.857 105.835 104.516 105.912 104.172 105.98C103.829 106.049 103.485 106.109 103.138 106.161C102.792 106.212 102.445 106.256 102.096 106.29C101.748 106.325 101.399 106.351 101.049 106.369C100.7 106.386 100.35 106.395 99.9997 106.396Z" fill="#C2C2C2"/>
</svg>
