<svg xmlns="http://www.w3.org/2000/svg" xmlns:xlink="http://www.w3.org/1999/xlink" width="1080" zoomAndPan="magnify" viewBox="0 0 810 809.999993" height="1080" preserveAspectRatio="xMidYMid meet" version="1.0"><path fill="#ffffff" d="M 583.136719 -0.0664062 L 226.617188 -0.0664062 C 101.621094 -0.0664062 -0.0703125 101.621094 -0.0703125 226.617188 L -0.0703125 583.136719 C -0.0703125 708.132812 101.621094 809.824219 226.617188 809.824219 L 583.136719 809.824219 C 708.132812 809.824219 809.824219 708.132812 809.824219 583.136719 L 809.824219 226.617188 C 809.824219 101.621094 708.132812 -0.0664062 583.136719 -0.0664062 Z M 756.359375 583.136719 C 756.359375 678.652344 678.652344 756.359375 583.136719 756.359375 L 226.617188 756.359375 C 131.105469 756.359375 53.394531 678.652344 53.394531 583.136719 L 53.394531 226.617188 C 53.394531 131.105469 131.105469 53.398438 226.617188 53.398438 L 583.136719 53.398438 C 678.652344 53.398438 756.359375 131.105469 756.359375 226.617188 Z M 756.359375 583.136719 " fill-opacity="1" fill-rule="nonzero"/><path fill="#ffffff" d="M 404.878906 198.882812 C 291.292969 198.882812 198.882812 291.292969 198.882812 404.878906 C 198.882812 518.464844 291.292969 610.871094 404.878906 610.871094 C 518.464844 610.871094 610.875 518.464844 610.875 404.878906 C 610.875 291.292969 518.464844 198.882812 404.878906 198.882812 Z M 404.878906 557.40625 C 320.773438 557.40625 252.347656 488.984375 252.347656 404.878906 C 252.347656 320.773438 320.773438 252.351562 404.878906 252.351562 C 488.984375 252.351562 557.410156 320.773438 557.410156 404.878906 C 557.410156 488.984375 488.984375 557.40625 404.878906 557.40625 Z M 404.878906 557.40625 " fill-opacity="1" fill-rule="nonzero"/><path fill="#ffffff" d="M 664.210938 181.542969 C 664.210938 182.855469 664.148438 184.164062 664.019531 185.46875 C 663.890625 186.773438 663.699219 188.070312 663.441406 189.355469 C 663.1875 190.640625 662.867188 191.910156 662.488281 193.164062 C 662.109375 194.421875 661.667969 195.652344 661.164062 196.863281 C 660.664062 198.078125 660.101562 199.261719 659.484375 200.417969 C 658.867188 201.574219 658.191406 202.695312 657.464844 203.785156 C 656.738281 204.875 655.957031 205.929688 655.125 206.941406 C 654.292969 207.957031 653.414062 208.925781 652.484375 209.855469 C 651.558594 210.78125 650.589844 211.660156 649.574219 212.492188 C 648.5625 213.324219 647.507812 214.105469 646.417969 214.832031 C 645.328125 215.5625 644.207031 216.234375 643.050781 216.851562 C 641.894531 217.46875 640.707031 218.03125 639.496094 218.53125 C 638.285156 219.035156 637.054688 219.476562 635.796875 219.855469 C 634.542969 220.238281 633.273438 220.554688 631.988281 220.8125 C 630.699219 221.066406 629.40625 221.257812 628.101562 221.386719 C 626.796875 221.515625 625.488281 221.578125 624.175781 221.578125 C 622.863281 221.578125 621.558594 221.515625 620.253906 221.386719 C 618.945312 221.257812 617.652344 221.066406 616.367188 220.8125 C 615.078125 220.554688 613.808594 220.238281 612.554688 219.855469 C 611.300781 219.476562 610.066406 219.035156 608.855469 218.53125 C 607.644531 218.03125 606.460938 217.46875 605.304688 216.851562 C 604.148438 216.234375 603.023438 215.5625 601.933594 214.832031 C 600.84375 214.105469 599.792969 213.324219 598.777344 212.492188 C 597.765625 211.660156 596.792969 210.78125 595.867188 209.855469 C 594.941406 208.925781 594.058594 207.957031 593.226562 206.941406 C 592.394531 205.929688 591.617188 204.875 590.886719 203.785156 C 590.160156 202.695312 589.484375 201.574219 588.867188 200.417969 C 588.25 199.261719 587.691406 198.078125 587.1875 196.863281 C 586.6875 195.652344 586.246094 194.421875 585.863281 193.164062 C 585.484375 191.910156 585.164062 190.640625 584.910156 189.355469 C 584.652344 188.070312 584.460938 186.773438 584.332031 185.46875 C 584.203125 184.164062 584.140625 182.855469 584.140625 181.542969 C 584.140625 180.234375 584.203125 178.925781 584.332031 177.621094 C 584.460938 176.316406 584.652344 175.019531 584.910156 173.734375 C 585.164062 172.449219 585.484375 171.175781 585.863281 169.921875 C 586.246094 168.667969 586.6875 167.433594 587.1875 166.222656 C 587.691406 165.011719 588.25 163.828125 588.867188 162.671875 C 589.484375 161.515625 590.160156 160.390625 590.886719 159.300781 C 591.617188 158.210938 592.394531 157.160156 593.226562 156.144531 C 594.058594 155.132812 594.941406 154.160156 595.867188 153.234375 C 596.792969 152.308594 597.765625 151.429688 598.777344 150.597656 C 599.792969 149.765625 600.84375 148.984375 601.933594 148.253906 C 603.023438 147.527344 604.148438 146.855469 605.304688 146.234375 C 606.460938 145.617188 607.644531 145.058594 608.855469 144.554688 C 610.066406 144.054688 611.300781 143.613281 612.554688 143.230469 C 613.808594 142.851562 615.078125 142.535156 616.367188 142.277344 C 617.652344 142.023438 618.945312 141.828125 620.253906 141.699219 C 621.558594 141.574219 622.863281 141.507812 624.175781 141.507812 C 625.488281 141.507812 626.796875 141.574219 628.101562 141.699219 C 629.40625 141.828125 630.699219 142.023438 631.988281 142.277344 C 633.273438 142.535156 634.542969 142.851562 635.796875 143.230469 C 637.054688 143.613281 638.285156 144.054688 639.496094 144.554688 C 640.707031 145.058594 641.894531 145.617188 643.050781 146.234375 C 644.207031 146.855469 645.328125 147.527344 646.417969 148.253906 C 647.507812 148.984375 648.5625 149.765625 649.574219 150.597656 C 650.589844 151.429688 651.558594 152.308594 652.484375 153.234375 C 653.414062 154.160156 654.292969 155.132812 655.125 156.144531 C 655.957031 157.160156 656.738281 158.210938 657.464844 159.300781 C 658.195312 160.390625 658.867188 161.515625 659.484375 162.671875 C 660.101562 163.828125 660.664062 165.011719 661.164062 166.222656 C 661.667969 167.433594 662.109375 168.667969 662.488281 169.921875 C 662.867188 171.175781 663.1875 172.449219 663.441406 173.734375 C 663.699219 175.019531 663.890625 176.316406 664.019531 177.621094 C 664.148438 178.925781 664.210938 180.234375 664.210938 181.542969 Z M 664.210938 181.542969 " fill-opacity="1" fill-rule="nonzero"/></svg>