<svg xmlns="http://www.w3.org/2000/svg" xmlns:xlink="http://www.w3.org/1999/xlink" width="1080" zoomAndPan="magnify" viewBox="0 0 810 809.999993" height="1080" preserveAspectRatio="xMidYMid meet" version="1.0"><defs><clipPath id="e052d96ce8"><path d="M 0 81 L 810 81 L 810 712.5 L 0 712.5 Z M 0 81 " clip-rule="nonzero"/></clipPath></defs><g clip-path="url(#e052d96ce8)"><path fill="#a6a6a6" d="M 730.925781 191.175781 L 605.292969 191.175781 C 604.632812 188.875 603.320312 186.574219 602.332031 184.601562 C 593.78125 168.8125 587.203125 151.710938 582.929688 134.28125 C 578.980469 118.492188 575.691406 100.40625 562.867188 90.539062 C 552.339844 82.644531 537.871094 82.316406 524.714844 82.316406 C 480.316406 82.316406 435.914062 82.316406 391.1875 82.316406 C 355.996094 82.316406 320.476562 82.316406 285.285156 82.316406 C 278.050781 82.316406 268.839844 81 261.933594 82.644531 C 256.015625 84.289062 250.421875 88.566406 246.148438 92.839844 C 236.9375 101.71875 231.019531 113.890625 227.070312 125.730469 C 220.824219 144.804688 217.863281 165.523438 207.996094 182.957031 C 206.679688 185.585938 205.035156 188.21875 204.050781 190.847656 L 78.742188 190.847656 C 35.332031 190.847656 0.46875 226.039062 0.46875 269.125 L 0.46875 634.519531 C 0.46875 677.929688 35.660156 712.792969 78.742188 712.792969 L 731.257812 712.792969 C 774.667969 712.792969 809.53125 677.601562 809.53125 634.519531 L 809.53125 269.78125 C 809.203125 226.367188 774.011719 191.175781 730.925781 191.175781 Z M 404.671875 654.25 C 293.179688 654.25 202.734375 563.808594 202.734375 452.3125 C 202.734375 340.820312 293.179688 250.378906 404.671875 250.378906 C 516.164062 250.378906 606.609375 340.820312 606.609375 452.3125 C 606.609375 563.808594 516.164062 654.25 404.671875 654.25 Z M 714.15625 315.496094 C 698.695312 315.496094 686.199219 303 686.199219 287.542969 C 686.199219 272.082031 698.695312 259.585938 714.15625 259.585938 C 729.613281 259.585938 742.109375 272.082031 742.109375 287.542969 C 742.109375 303 729.613281 315.496094 714.15625 315.496094 Z M 714.15625 315.496094 " fill-opacity="1" fill-rule="nonzero"/></g><path fill="#a6a6a6" d="M 527.347656 452.3125 C 527.347656 454.320312 527.296875 456.328125 527.199219 458.332031 C 527.101562 460.339844 526.953125 462.339844 526.753906 464.339844 C 526.558594 466.335938 526.3125 468.328125 526.019531 470.3125 C 525.722656 472.300781 525.378906 474.277344 524.988281 476.246094 C 524.597656 478.214844 524.15625 480.175781 523.667969 482.121094 C 523.183594 484.070312 522.644531 486.003906 522.0625 487.925781 C 521.480469 489.847656 520.851562 491.75 520.175781 493.640625 C 519.5 495.53125 518.777344 497.40625 518.007812 499.257812 C 517.238281 501.113281 516.425781 502.949219 515.566406 504.765625 C 514.710938 506.578125 513.808594 508.371094 512.859375 510.144531 C 511.914062 511.914062 510.925781 513.660156 509.894531 515.382812 C 508.859375 517.105469 507.789062 518.800781 506.671875 520.46875 C 505.554688 522.136719 504.402344 523.777344 503.203125 525.390625 C 502.007812 527.003906 500.773438 528.585938 499.5 530.136719 C 498.226562 531.691406 496.914062 533.210938 495.566406 534.699219 C 494.21875 536.183594 492.835938 537.640625 491.414062 539.058594 C 489.996094 540.476562 488.542969 541.863281 487.054688 543.210938 C 485.566406 544.558594 484.046875 545.871094 482.496094 547.144531 C 480.945312 548.417969 479.359375 549.652344 477.75 550.847656 C 476.136719 552.042969 474.496094 553.199219 472.824219 554.316406 C 471.15625 555.429688 469.460938 556.503906 467.738281 557.535156 C 466.015625 558.566406 464.269531 559.558594 462.5 560.503906 C 460.730469 561.449219 458.9375 562.351562 457.121094 563.210938 C 455.304688 564.070312 453.472656 564.882812 451.617188 565.652344 C 449.761719 566.417969 447.890625 567.140625 446 567.816406 C 444.109375 568.496094 442.203125 569.125 440.28125 569.707031 C 438.359375 570.289062 436.425781 570.824219 434.480469 571.3125 C 432.53125 571.800781 430.574219 572.238281 428.605469 572.632812 C 426.632812 573.023438 424.65625 573.367188 422.671875 573.660156 C 420.683594 573.957031 418.691406 574.203125 416.695312 574.398438 C 414.699219 574.59375 412.695312 574.742188 410.691406 574.839844 C 408.683594 574.941406 406.679688 574.988281 404.671875 574.988281 C 402.664062 574.988281 400.65625 574.941406 398.652344 574.839844 C 396.648438 574.742188 394.644531 574.59375 392.648438 574.398438 C 390.648438 574.203125 388.65625 573.957031 386.671875 573.660156 C 384.683594 573.367188 382.707031 573.023438 380.738281 572.632812 C 378.769531 572.238281 376.8125 571.800781 374.863281 571.3125 C 372.914062 570.824219 370.980469 570.289062 369.058594 569.707031 C 367.140625 569.125 365.234375 568.496094 363.34375 567.816406 C 361.453125 567.140625 359.582031 566.417969 357.726562 565.652344 C 355.871094 564.882812 354.035156 564.070312 352.21875 563.210938 C 350.40625 562.351562 348.613281 561.449219 346.84375 560.503906 C 345.070312 559.558594 343.324219 558.566406 341.601562 557.535156 C 339.882812 556.503906 338.1875 555.429688 336.515625 554.3125 C 334.847656 553.199219 333.207031 552.042969 331.59375 550.847656 C 329.980469 549.652344 328.398438 548.417969 326.847656 547.144531 C 325.292969 545.871094 323.773438 544.558594 322.289062 543.210938 C 320.800781 541.863281 319.347656 540.476562 317.925781 539.058594 C 316.507812 537.636719 315.125 536.183594 313.773438 534.699219 C 312.425781 533.210938 311.117188 531.691406 309.84375 530.136719 C 308.570312 528.585938 307.332031 527.003906 306.136719 525.390625 C 304.941406 523.777344 303.785156 522.136719 302.671875 520.46875 C 301.554688 518.800781 300.480469 517.105469 299.449219 515.382812 C 298.417969 513.660156 297.429688 511.914062 296.480469 510.140625 C 295.535156 508.371094 294.632812 506.578125 293.773438 504.765625 C 292.914062 502.949219 292.101562 501.113281 291.335938 499.257812 C 290.566406 497.40625 289.84375 495.53125 289.167969 493.640625 C 288.492188 491.75 287.859375 489.847656 287.277344 487.925781 C 286.695312 486.003906 286.160156 484.070312 285.671875 482.121094 C 285.183594 480.175781 284.746094 478.214844 284.351562 476.246094 C 283.960938 474.277344 283.617188 472.300781 283.324219 470.3125 C 283.027344 468.328125 282.785156 466.335938 282.585938 464.339844 C 282.390625 462.339844 282.242188 460.339844 282.144531 458.332031 C 282.046875 456.328125 281.996094 454.320312 281.996094 452.3125 C 281.996094 450.304688 282.046875 448.300781 282.144531 446.292969 C 282.242188 444.289062 282.390625 442.289062 282.585938 440.289062 C 282.785156 438.292969 283.027344 436.300781 283.324219 434.3125 C 283.617188 432.328125 283.960938 430.351562 284.351562 428.382812 C 284.746094 426.414062 285.183594 424.453125 285.671875 422.507812 C 286.160156 420.558594 286.695312 418.625 287.277344 416.703125 C 287.859375 414.78125 288.492188 412.875 289.167969 410.984375 C 289.84375 409.097656 290.566406 407.222656 291.335938 405.367188 C 292.101562 403.511719 292.914062 401.679688 293.773438 399.863281 C 294.632812 398.046875 295.535156 396.257812 296.480469 394.484375 C 297.425781 392.714844 298.417969 390.96875 299.449219 389.246094 C 300.480469 387.523438 301.554688 385.828125 302.671875 384.160156 C 303.785156 382.488281 304.941406 380.847656 306.136719 379.238281 C 307.332031 377.625 308.570312 376.042969 309.84375 374.488281 C 311.117188 372.9375 312.425781 371.417969 313.773438 369.929688 C 315.125 368.441406 316.507812 366.988281 317.925781 365.570312 C 319.347656 364.148438 320.800781 362.765625 322.289062 361.417969 C 323.773438 360.070312 325.292969 358.757812 326.847656 357.484375 C 328.398438 356.210938 329.980469 354.976562 331.59375 353.78125 C 333.207031 352.585938 334.847656 351.429688 336.515625 350.3125 C 338.1875 349.199219 339.882812 348.125 341.601562 347.09375 C 343.324219 346.058594 345.070312 345.070312 346.84375 344.125 C 348.613281 343.179688 350.40625 342.277344 352.222656 341.417969 C 354.035156 340.558594 355.871094 339.746094 357.726562 338.976562 C 359.582031 338.207031 361.453125 337.488281 363.34375 336.808594 C 365.234375 336.132812 367.140625 335.503906 369.058594 334.921875 C 370.980469 334.339844 372.914062 333.804688 374.863281 333.316406 C 376.8125 332.828125 378.769531 332.386719 380.738281 331.996094 C 382.707031 331.605469 384.683594 331.261719 386.671875 330.96875 C 388.65625 330.671875 390.648438 330.425781 392.648438 330.230469 C 394.644531 330.03125 396.648438 329.886719 398.652344 329.785156 C 400.65625 329.6875 402.664062 329.640625 404.671875 329.640625 C 406.679688 329.640625 408.683594 329.6875 410.691406 329.785156 C 412.695312 329.886719 414.699219 330.03125 416.695312 330.230469 C 418.691406 330.425781 420.683594 330.671875 422.671875 330.96875 C 424.65625 331.261719 426.632812 331.605469 428.605469 331.996094 C 430.574219 332.386719 432.53125 332.828125 434.480469 333.316406 C 436.425781 333.804688 438.359375 334.339844 440.28125 334.921875 C 442.203125 335.503906 444.109375 336.132812 446 336.808594 C 447.890625 337.488281 449.761719 338.207031 451.617188 338.976562 C 453.472656 339.746094 455.304688 340.558594 457.121094 341.417969 C 458.9375 342.273438 460.730469 343.179688 462.5 344.125 C 464.269531 345.070312 466.015625 346.058594 467.738281 347.09375 C 469.460938 348.125 471.15625 349.199219 472.824219 350.3125 C 474.496094 351.429688 476.136719 352.585938 477.75 353.78125 C 479.359375 354.976562 480.945312 356.210938 482.496094 357.484375 C 484.046875 358.757812 485.566406 360.070312 487.054688 361.417969 C 488.542969 362.765625 489.996094 364.148438 491.414062 365.570312 C 492.835938 366.988281 494.21875 368.441406 495.566406 369.929688 C 496.914062 371.417969 498.226562 372.9375 499.5 374.488281 C 500.773438 376.042969 502.007812 377.625 503.203125 379.238281 C 504.402344 380.847656 505.554688 382.488281 506.671875 384.160156 C 507.785156 385.828125 508.859375 387.523438 509.894531 389.246094 C 510.925781 390.96875 511.914062 392.714844 512.859375 394.484375 C 513.808594 396.257812 514.710938 398.046875 515.566406 399.863281 C 516.425781 401.679688 517.238281 403.511719 518.007812 405.367188 C 518.777344 407.222656 519.5 409.097656 520.175781 410.984375 C 520.851562 412.875 521.480469 414.78125 522.0625 416.703125 C 522.644531 418.625 523.183594 420.558594 523.667969 422.507812 C 524.15625 424.453125 524.597656 426.414062 524.988281 428.382812 C 525.378906 430.351562 525.722656 432.328125 526.019531 434.3125 C 526.3125 436.300781 526.558594 438.292969 526.753906 440.289062 C 526.953125 442.289062 527.101562 444.289062 527.199219 446.292969 C 527.296875 448.300781 527.347656 450.304688 527.347656 452.3125 Z M 527.347656 452.3125 " fill-opacity="1" fill-rule="nonzero"/></svg>