<svg xmlns="http://www.w3.org/2000/svg" xmlns:xlink="http://www.w3.org/1999/xlink" width="1080" zoomAndPan="magnify" viewBox="0 0 810 809.999993" height="1080" preserveAspectRatio="xMidYMid meet" version="1.0"><path fill="#a6a6a6" d="M 736.570312 178.972656 C 695.898438 178.972656 663.136719 211.734375 663.136719 252.40625 C 663.136719 275 673.304688 295.335938 690.25 308.890625 L 532.09375 533.703125 C 523.054688 528.054688 512.886719 525.792969 501.589844 525.792969 C 488.035156 525.792969 474.476562 530.3125 464.308594 538.222656 L 300.503906 359.726562 C 308.410156 350.691406 312.929688 339.394531 312.929688 325.835938 C 312.929688 297.59375 290.335938 275 262.09375 275 C 233.847656 275 211.253906 297.59375 211.253906 325.835938 C 211.253906 336.003906 214.644531 346.171875 219.164062 354.078125 L 58.746094 486.253906 C 51.964844 480.605469 44.058594 477.21875 35.019531 477.21875 C 15.816406 477.21875 0 493.03125 0 512.238281 C 0 531.441406 15.816406 547.257812 35.019531 547.257812 C 54.226562 547.257812 70.042969 531.441406 70.042969 512.238281 C 70.042969 505.460938 67.78125 499.8125 65.523438 494.164062 L 225.941406 361.988281 C 234.980469 371.023438 247.40625 376.671875 260.960938 376.671875 C 272.257812 376.671875 282.425781 373.285156 291.464844 366.503906 L 456.402344 546.128906 C 446.234375 557.425781 440.585938 570.984375 440.585938 586.796875 C 440.585938 620.691406 467.699219 647.804688 501.589844 647.804688 C 535.480469 647.804688 562.59375 620.691406 562.59375 586.796875 C 562.59375 567.59375 554.6875 551.777344 541.128906 540.480469 L 699.289062 315.667969 C 710.585938 322.445312 723.011719 325.835938 736.570312 325.835938 C 777.238281 325.835938 810 293.074219 810 252.40625 C 810 211.734375 777.238281 178.972656 736.570312 178.972656 Z M 736.570312 178.972656 " fill-opacity="1" fill-rule="nonzero"/></svg>