<svg xmlns="http://www.w3.org/2000/svg" xmlns:xlink="http://www.w3.org/1999/xlink" width="1080" zoomAndPan="magnify" viewBox="0 0 810 809.999993" height="1080" preserveAspectRatio="xMidYMid meet" version="1.0"><path fill="#38b6ff" d="M 711.355469 647.632812 L 651.644531 656.023438 C 639.710938 657.699219 630.003906 666.492188 627.167969 678.207031 L 612.941406 736.800781 C 608.917969 753.378906 591.675781 763.0625 575.417969 757.875 L 517.988281 739.535156 C 506.5 735.867188 493.949219 739.574219 486.300781 748.894531 L 448.0625 795.515625 C 437.25 808.703125 417.511719 809.949219 405.117188 798.21875 L 361.324219 756.773438 C 352.578125 748.488281 339.65625 746.378906 328.726562 751.460938 L 274.039062 776.875 C 258.574219 784.066406 240.25 776.625 234.171875 760.683594 L 212.707031 704.339844 C 208.414062 693.078125 197.679688 685.574219 185.632812 685.410156 L 125.339844 684.578125 C 108.28125 684.34375 95 669.6875 96.449219 652.6875 L 101.550781 592.609375 C 102.570312 580.597656 96.160156 569.1875 85.367188 563.804688 L 31.40625 536.90625 C 16.136719 529.289062 10.539062 510.320312 19.210938 495.632812 L 49.878906 443.71875 C 56.007812 433.339844 55.183594 420.273438 47.800781 410.75 L 10.855469 363.09375 C 0.402344 349.613281 3.578125 330.09375 17.777344 320.621094 L 67.925781 287.152344 C 77.953125 280.457031 82.882812 268.328125 80.355469 256.539062 L 67.75 197.582031 C 64.179688 180.894531 75.515625 164.691406 92.410156 162.3125 L 152.121094 153.917969 C 164.054688 152.242188 173.761719 143.449219 176.597656 131.734375 L 190.824219 73.140625 C 194.847656 56.566406 212.09375 46.882812 228.339844 52.066406 L 285.785156 70.417969 C 297.257812 74.085938 309.816406 70.371094 317.464844 61.050781 L 355.703125 14.425781 C 366.515625 1.242188 386.253906 -0.00390625 398.648438 11.726562 L 442.441406 53.171875 C 451.1875 61.457031 464.109375 63.5625 475.046875 58.484375 L 529.726562 33.070312 C 545.199219 25.878906 563.515625 33.320312 569.59375 49.261719 L 591.066406 105.605469 C 595.351562 116.875 606.085938 124.367188 618.132812 124.535156 L 678.425781 125.367188 C 695.484375 125.597656 708.765625 140.257812 707.316406 157.253906 L 702.214844 217.335938 C 701.195312 229.34375 707.613281 240.757812 718.398438 246.140625 L 772.359375 273.039062 C 787.628906 280.65625 793.226562 299.621094 784.554688 314.3125 L 753.886719 366.226562 C 747.757812 376.601562 748.582031 389.667969 755.964844 399.195312 L 792.910156 446.851562 C 803.363281 460.332031 800.1875 479.851562 785.996094 489.324219 L 735.839844 522.789062 C 725.808594 529.484375 720.890625 541.613281 723.410156 553.40625 L 736.015625 612.359375 C 739.585938 629.050781 728.25 645.253906 711.355469 647.632812 " fill-opacity="1" fill-rule="nonzero"/><path fill="#ffffff" d="M 565.789062 246.554688 L 322.167969 490.175781 C 318.566406 493.785156 312.714844 493.785156 309.109375 490.175781 L 237.976562 419.046875 C 225.789062 406.855469 206.027344 406.855469 193.835938 419.046875 C 181.648438 431.234375 181.648438 451.003906 193.835938 463.191406 L 294.359375 563.714844 C 306.113281 575.46875 325.164062 575.46875 336.914062 563.714844 L 359.785156 540.851562 L 609.929688 290.703125 C 622.117188 278.511719 622.117188 258.75 609.929688 246.554688 C 597.746094 234.371094 577.976562 234.371094 565.789062 246.554688 " fill-opacity="1" fill-rule="nonzero"/></svg>