<svg xmlns="http://www.w3.org/2000/svg" xmlns:xlink="http://www.w3.org/1999/xlink" width="1080" zoomAndPan="magnify" viewBox="0 0 810 809.999993" height="1080" preserveAspectRatio="xMidYMid meet" version="1.0"><defs><clipPath id="15f44634d1"><path d="M 15.40625 16 L 802 16 L 802 809.8125 L 15.40625 809.8125 Z M 15.40625 16 " clip-rule="nonzero"/></clipPath></defs><g clip-path="url(#15f44634d1)"><path fill="#a6a6a6" d="M 463.851562 445.160156 C 453.269531 477.332031 440.675781 501.804688 426.117188 518.5625 C 415.941406 530.398438 405.621094 539.046875 395.1875 544.539062 C 381.425781 552.257812 366.722656 556.09375 351.050781 556.09375 C 330.164062 556.09375 312.628906 547.859375 298.480469 531.339844 C 284.320312 514.84375 277.226562 489.148438 277.226562 454.21875 C 277.226562 428.125 282.320312 398.148438 292.503906 364.335938 C 302.652344 330.507812 317.789062 304.457031 337.863281 286.167969 C 357.925781 267.886719 379.773438 258.75 403.445312 258.75 C 425.421875 258.75 443.648438 267.066406 458.082031 283.691406 C 472.511719 300.328125 479.734375 324.175781 479.734375 355.253906 C 479.734375 383.023438 474.4375 413 463.851562 445.160156 Z M 761.976562 584.644531 C 747.609375 584.644531 737.792969 593.585938 730.753906 604.976562 L 730.679688 604.925781 C 701.816406 641.484375 669.871094 683.277344 608.816406 706.019531 C 561.304688 723.695312 505.019531 733.433594 439.3125 733.433594 C 371.113281 733.433594 310.566406 722.503906 257.640625 700.636719 C 204.714844 678.789062 163.613281 644.078125 134.328125 596.515625 C 105.035156 548.9375 90.40625 496.164062 90.40625 438.136719 C 90.40625 378.484375 103.53125 321.09375 129.789062 265.960938 C 156.046875 210.839844 195.09375 168.078125 246.914062 137.6875 C 298.75 107.324219 361.902344 92.136719 436.417969 92.136719 C 524.109375 92.136719 592.449219 114.890625 641.386719 160.367188 C 690.316406 205.878906 714.800781 262.460938 714.800781 330.097656 C 714.800781 367.761719 706.140625 404.179688 688.824219 439.390625 C 671.503906 474.574219 648.824219 502.617188 620.792969 523.511719 C 599.867188 539.457031 582.820312 547.4375 569.640625 547.4375 C 565.230469 547.4375 561.445312 545.726562 558.28125 542.28125 C 555.132812 538.84375 553.554688 533.695312 553.554688 526.808594 C 553.554688 521.320312 555.46875 509.222656 559.308594 490.519531 L 609.769531 247.304688 C 610.148438 245.800781 610.460938 244.265625 610.71875 242.710938 L 610.902344 241.824219 L 610.847656 241.824219 C 611.21875 239.316406 611.476562 236.773438 611.476562 234.160156 C 611.476562 204.722656 587.597656 180.863281 558.160156 180.863281 C 531.914062 180.863281 510.152344 199.847656 505.730469 224.808594 L 502.402344 240.601562 C 479.019531 203.21875 442.882812 184.519531 393.957031 184.519531 C 325.203125 184.519531 268.839844 216.960938 224.851562 281.84375 C 188.5625 335.191406 170.421875 394.148438 170.421875 458.761719 C 170.421875 511.003906 185.472656 552.863281 215.566406 584.339844 C 245.671875 615.84375 283.550781 631.570312 329.191406 631.570312 C 371.546875 631.570312 408.925781 615.886719 441.367188 584.558594 C 445.214844 599.972656 452.925781 611.625 464.46875 619.605469 C 476.015625 627.582031 493.179688 631.570312 516.011719 631.570312 C 600.710938 631.570312 670.109375 595.832031 724.289062 524.324219 C 767.433594 467.710938 789.03125 404.320312 789.03125 334.207031 C 789.03125 275.378906 774.804688 221.144531 746.363281 171.523438 C 717.902344 121.886719 676.714844 83.605469 622.835938 56.679688 C 568.949219 29.71875 507.351562 16.25 438.070312 16.25 C 356.410156 16.25 283.832031 32.949219 220.324219 66.34375 C 156.8125 99.765625 106.761719 149.808594 70.203125 216.472656 C 33.632812 283.148438 15.351562 355.101562 15.351562 432.382812 C 15.351562 502.757812 31.425781 567.84375 63.597656 627.648438 C 95.78125 687.4375 144.847656 732.679688 210.832031 763.324219 C 276.816406 793.980469 355.179688 809.320312 445.910156 809.320312 C 512.996094 809.320312 566.875 799.691406 610.101562 784.175781 L 610.070312 784.1875 C 610.070312 784.1875 724.765625 748.808594 788.871094 649.949219 C 788.871094 649.949219 801.941406 633.105469 801.941406 621.191406 C 801.941406 599.140625 784.058594 584.644531 761.976562 584.644531 " fill-opacity="1" fill-rule="nonzero"/></g></svg>