<svg xmlns="http://www.w3.org/2000/svg" xmlns:xlink="http://www.w3.org/1999/xlink" width="1080" zoomAndPan="magnify" viewBox="0 0 810 809.999993" height="1080" preserveAspectRatio="xMidYMid meet" version="1.0"><path fill="#ffffff" d="M 405 0 C 398.371094 0 391.746094 0.164062 385.128906 0.488281 C 378.507812 0.8125 371.898438 1.300781 365.304688 1.949219 C 358.707031 2.601562 352.128906 3.410156 345.574219 4.382812 C 339.019531 5.355469 332.488281 6.488281 325.988281 7.78125 C 319.488281 9.074219 313.023438 10.527344 306.59375 12.136719 C 300.164062 13.746094 293.777344 15.515625 287.433594 17.4375 C 281.09375 19.363281 274.800781 21.441406 268.558594 23.675781 C 262.320312 25.90625 256.136719 28.292969 250.011719 30.828125 C 243.890625 33.367188 237.832031 36.050781 231.839844 38.882812 C 225.847656 41.71875 219.929688 44.699219 214.085938 47.820312 C 208.238281 50.945312 202.472656 54.210938 196.789062 57.621094 C 191.101562 61.027344 185.503906 64.574219 179.992188 68.253906 C 174.484375 71.9375 169.066406 75.753906 163.742188 79.699219 C 158.417969 83.648438 153.195312 87.726562 148.070312 91.929688 C 142.945312 96.136719 137.929688 100.464844 133.019531 104.914062 C 128.109375 109.367188 123.308594 113.933594 118.621094 118.621094 C 113.933594 123.308594 109.367188 128.109375 104.914062 133.019531 C 100.464844 137.929688 96.136719 142.945312 91.929688 148.070312 C 87.726562 153.195312 83.648438 158.417969 79.699219 163.742188 C 75.753906 169.066406 71.9375 174.484375 68.253906 179.992188 C 64.574219 185.503906 61.027344 191.101562 57.621094 196.789062 C 54.210938 202.472656 50.945312 208.238281 47.820312 214.085938 C 44.699219 219.929688 41.71875 225.847656 38.882812 231.839844 C 36.050781 237.832031 33.367188 243.890625 30.828125 250.011719 C 28.292969 256.136719 25.90625 262.320312 23.675781 268.558594 C 21.441406 274.800781 19.363281 281.09375 17.4375 287.433594 C 15.515625 293.777344 13.746094 300.164062 12.136719 306.59375 C 10.527344 313.023438 9.074219 319.488281 7.78125 325.988281 C 6.488281 332.488281 5.355469 339.019531 4.382812 345.574219 C 3.410156 352.128906 2.601562 358.707031 1.949219 365.304688 C 1.300781 371.898438 0.8125 378.507812 0.488281 385.128906 C 0.164062 391.746094 0 398.371094 0 405 C 0 411.628906 0.164062 418.253906 0.488281 424.871094 C 0.8125 431.492188 1.300781 438.101562 1.949219 444.695312 C 2.601562 451.292969 3.410156 457.871094 4.382812 464.425781 C 5.355469 470.980469 6.488281 477.511719 7.78125 484.011719 C 9.074219 490.511719 10.527344 496.976562 12.136719 503.40625 C 13.746094 509.835938 15.515625 516.222656 17.4375 522.566406 C 19.363281 528.90625 21.441406 535.199219 23.675781 541.441406 C 25.90625 547.679688 28.292969 553.863281 30.828125 559.988281 C 33.367188 566.109375 36.050781 572.167969 38.882812 578.160156 C 41.71875 584.152344 44.699219 590.070312 47.820312 595.914062 C 50.945312 601.761719 54.210938 607.527344 57.621094 613.210938 C 61.027344 618.898438 64.574219 624.496094 68.253906 630.007812 C 71.9375 635.515625 75.753906 640.933594 79.699219 646.257812 C 83.648438 651.582031 87.726562 656.804688 91.929688 661.929688 C 96.136719 667.054688 100.464844 672.070312 104.914062 676.980469 C 109.367188 681.890625 113.933594 686.691406 118.621094 691.378906 C 123.308594 696.066406 128.109375 700.632812 133.019531 705.085938 C 137.929688 709.535156 142.945312 713.863281 148.070312 718.070312 C 153.195312 722.273438 158.417969 726.351562 163.742188 730.300781 C 169.066406 734.246094 174.484375 738.0625 179.992188 741.746094 C 185.503906 745.425781 191.101562 748.972656 196.789062 752.378906 C 202.472656 755.789062 208.238281 759.054688 214.085938 762.179688 C 219.929688 765.300781 225.847656 768.28125 231.839844 771.117188 C 237.832031 773.949219 243.890625 776.632812 250.011719 779.171875 C 256.136719 781.707031 262.320312 784.09375 268.558594 786.324219 C 274.800781 788.558594 281.09375 790.636719 287.433594 792.5625 C 293.777344 794.484375 300.164062 796.253906 306.59375 797.863281 C 313.023438 799.472656 319.488281 800.925781 325.988281 802.21875 C 332.488281 803.511719 339.019531 804.644531 345.574219 805.617188 C 352.128906 806.589844 358.707031 807.398438 365.304688 808.050781 C 371.898438 808.699219 378.507812 809.1875 385.128906 809.511719 C 391.746094 809.835938 398.371094 810 405 810 C 411.628906 810 418.253906 809.835938 424.871094 809.511719 C 431.492188 809.1875 438.101562 808.699219 444.695312 808.050781 C 451.292969 807.398438 457.871094 806.589844 464.425781 805.617188 C 470.980469 804.644531 477.511719 803.511719 484.011719 802.21875 C 490.511719 800.925781 496.976562 799.472656 503.40625 797.863281 C 509.835938 796.253906 516.222656 794.484375 522.566406 792.5625 C 528.90625 790.636719 535.199219 788.558594 541.441406 786.324219 C 547.679688 784.09375 553.863281 781.707031 559.988281 779.171875 C 566.109375 776.632812 572.167969 773.949219 578.160156 771.117188 C 584.152344 768.28125 590.070312 765.300781 595.914062 762.179688 C 601.761719 759.054688 607.527344 755.789062 613.210938 752.378906 C 618.898438 748.972656 624.496094 745.425781 630.007812 741.746094 C 635.515625 738.0625 640.933594 734.246094 646.257812 730.300781 C 651.582031 726.351562 656.804688 722.273438 661.929688 718.070312 C 667.054688 713.863281 672.070312 709.535156 676.980469 705.085938 C 681.890625 700.632812 686.691406 696.066406 691.378906 691.378906 C 696.066406 686.691406 700.632812 681.890625 705.085938 676.980469 C 709.535156 672.070312 713.863281 667.054688 718.070312 661.929688 C 722.273438 656.804688 726.351562 651.582031 730.300781 646.257812 C 734.246094 640.933594 738.0625 635.515625 741.746094 630.007812 C 745.425781 624.496094 748.972656 618.898438 752.378906 613.210938 C 755.789062 607.527344 759.054688 601.761719 762.179688 595.914062 C 765.300781 590.070312 768.28125 584.152344 771.117188 578.160156 C 773.949219 572.167969 776.632812 566.109375 779.171875 559.988281 C 781.707031 553.863281 784.09375 547.679688 786.324219 541.441406 C 788.558594 535.199219 790.636719 528.90625 792.5625 522.566406 C 794.484375 516.222656 796.253906 509.835938 797.863281 503.40625 C 799.472656 496.976562 800.925781 490.511719 802.21875 484.011719 C 803.511719 477.511719 804.644531 470.980469 805.617188 464.425781 C 806.589844 457.871094 807.398438 451.292969 808.050781 444.695312 C 808.699219 438.101562 809.1875 431.492188 809.511719 424.871094 C 809.835938 418.253906 810 411.628906 810 405 C 809.980469 398.378906 809.800781 391.757812 809.457031 385.144531 C 809.117188 378.53125 808.609375 371.929688 807.945312 365.339844 C 807.28125 358.75 806.453125 352.179688 805.464844 345.632812 C 804.480469 339.082031 803.332031 332.5625 802.027344 326.070312 C 800.722656 319.574219 799.257812 313.117188 797.636719 306.695312 C 796.015625 300.277344 794.234375 293.898438 792.300781 287.5625 C 790.367188 281.230469 788.28125 274.945312 786.039062 268.714844 C 783.796875 262.480469 781.40625 256.308594 778.863281 250.191406 C 776.320312 244.078125 773.628906 238.027344 770.789062 232.042969 C 767.949219 226.0625 764.96875 220.148438 761.839844 214.3125 C 758.710938 208.476562 755.441406 202.71875 752.03125 197.039062 C 748.621094 191.363281 745.074219 185.769531 741.390625 180.265625 C 737.707031 174.761719 733.890625 169.351562 729.945312 164.035156 C 725.996094 158.714844 721.921875 153.5 717.714844 148.378906 C 713.511719 143.261719 709.1875 138.25 704.738281 133.34375 C 700.289062 128.4375 695.722656 123.640625 691.042969 118.960938 C 686.359375 114.277344 681.5625 109.710938 676.65625 105.261719 C 671.75 100.8125 666.738281 96.488281 661.621094 92.285156 C 656.5 88.078125 651.285156 84.003906 645.964844 80.054688 C 640.648438 76.109375 635.238281 72.292969 629.734375 68.609375 C 624.230469 64.925781 618.636719 61.378906 612.960938 57.96875 C 607.28125 54.558594 601.527344 51.289062 595.6875 48.160156 C 589.851562 45.03125 583.941406 42.050781 577.957031 39.210938 C 571.972656 36.371094 565.921875 33.679688 559.808594 31.136719 C 553.691406 28.59375 547.519531 26.203125 541.285156 23.960938 C 535.054688 21.71875 528.769531 19.632812 522.4375 17.699219 C 516.101562 15.765625 509.722656 13.984375 503.304688 12.363281 C 496.882812 10.742188 490.425781 9.277344 483.929688 7.972656 C 477.4375 6.667969 470.917969 5.519531 464.367188 4.535156 C 457.820312 3.546875 451.25 2.71875 444.660156 2.054688 C 438.070312 1.390625 431.46875 0.886719 424.855469 0.542969 C 418.242188 0.199219 411.621094 0.0195312 405 0 Z M 584.355469 605.765625 C 583.964844 606.449219 583.539062 607.113281 583.082031 607.753906 C 582.621094 608.394531 582.128906 609.011719 581.609375 609.601562 C 581.085938 610.195312 580.53125 610.757812 579.953125 611.292969 C 579.371094 611.824219 578.765625 612.328125 578.132812 612.800781 C 577.5 613.273438 576.84375 613.710938 576.167969 614.113281 C 575.488281 614.519531 574.792969 614.886719 574.078125 615.21875 C 573.359375 615.550781 572.628906 615.847656 571.882812 616.105469 C 571.136719 616.363281 570.382812 616.582031 569.613281 616.761719 C 568.84375 616.9375 568.066406 617.078125 567.285156 617.179688 C 566.503906 617.277344 565.71875 617.335938 564.929688 617.355469 C 564.140625 617.375 563.351562 617.351562 562.566406 617.289062 C 561.777344 617.226562 560.996094 617.125 560.21875 616.980469 C 559.445312 616.839844 558.675781 616.65625 557.921875 616.433594 C 557.164062 616.214844 556.417969 615.953125 555.6875 615.65625 C 554.957031 615.355469 554.246094 615.023438 553.546875 614.648438 C 552.851562 614.277344 552.175781 613.871094 551.523438 613.429688 C 460.832031 557.453125 346.855469 545.882812 211.613281 576.691406 C 210.847656 576.90625 210.070312 577.085938 209.285156 577.222656 C 208.5 577.363281 207.710938 577.460938 206.917969 577.523438 C 206.121094 577.582031 205.328125 577.601562 204.53125 577.582031 C 203.734375 577.5625 202.941406 577.503906 202.148438 577.402344 C 201.359375 577.304688 200.574219 577.164062 199.800781 576.988281 C 199.023438 576.808594 198.257812 576.59375 197.5 576.339844 C 196.746094 576.085938 196.007812 575.792969 195.28125 575.464844 C 194.554688 575.136719 193.847656 574.773438 193.15625 574.371094 C 192.46875 573.972656 191.800781 573.539062 191.15625 573.074219 C 190.507812 572.605469 189.886719 572.109375 189.292969 571.582031 C 188.695312 571.050781 188.128906 570.496094 187.585938 569.910156 C 187.046875 569.324219 186.535156 568.714844 186.058594 568.078125 C 185.578125 567.441406 185.132812 566.78125 184.71875 566.101562 C 184.304688 565.417969 183.925781 564.71875 183.585938 564 C 183.242188 563.28125 182.933594 562.546875 182.664062 561.796875 C 182.394531 561.046875 182.164062 560.285156 181.972656 559.511719 C 181.777344 558.738281 181.625 557.957031 181.507812 557.171875 C 181.394531 556.382812 181.320312 555.589844 181.28125 554.792969 C 181.246094 553.996094 181.25 553.203125 181.296875 552.40625 C 181.339844 551.609375 181.421875 550.820312 181.546875 550.03125 C 181.667969 549.246094 181.832031 548.464844 182.03125 547.695312 C 182.234375 546.925781 182.472656 546.164062 182.75 545.417969 C 183.027344 544.671875 183.34375 543.941406 183.691406 543.222656 C 184.042969 542.507812 184.429688 541.8125 184.847656 541.136719 C 185.269531 540.460938 185.722656 539.804688 186.207031 539.171875 C 186.691406 538.542969 187.210938 537.9375 187.753906 537.355469 C 188.300781 536.777344 188.875 536.226562 189.476562 535.703125 C 190.078125 535.179688 190.707031 534.6875 191.355469 534.230469 C 192.007812 533.769531 192.679688 533.34375 193.371094 532.953125 C 194.066406 532.558594 194.777344 532.203125 195.507812 531.882812 C 196.234375 531.558594 196.980469 531.277344 197.738281 531.03125 C 198.496094 530.785156 199.261719 530.574219 200.042969 530.40625 C 346.855469 497.570312 474.863281 511.023438 574.667969 572.929688 C 575.390625 573.28125 576.09375 573.667969 576.773438 574.089844 C 577.457031 574.515625 578.117188 574.972656 578.75 575.464844 C 579.386719 575.957031 579.996094 576.480469 580.574219 577.039062 C 581.15625 577.59375 581.707031 578.175781 582.226562 578.789062 C 582.746094 579.402344 583.230469 580.039062 583.683594 580.703125 C 584.136719 581.367188 584.554688 582.054688 584.9375 582.761719 C 585.320312 583.46875 585.664062 584.191406 585.96875 584.933594 C 586.273438 585.679688 586.542969 586.433594 586.769531 587.207031 C 586.996094 587.976562 587.183594 588.757812 587.328125 589.546875 C 587.476562 590.335938 587.582031 591.132812 587.644531 591.933594 C 587.707031 592.734375 587.730469 593.535156 587.707031 594.339844 C 587.6875 595.144531 587.625 595.941406 587.523438 596.738281 C 587.417969 597.535156 587.273438 598.324219 587.089844 599.105469 C 586.902344 599.890625 586.675781 600.660156 586.410156 601.417969 C 586.144531 602.175781 585.839844 602.917969 585.496094 603.644531 C 585.152344 604.371094 584.773438 605.078125 584.355469 605.765625 Z M 639.175781 496.414062 C 638.65625 497.285156 638.09375 498.128906 637.488281 498.945312 C 636.882812 499.761719 636.234375 500.546875 635.550781 501.296875 C 634.867188 502.046875 634.148438 502.765625 633.394531 503.441406 C 632.636719 504.121094 631.851562 504.761719 631.03125 505.363281 C 630.210938 505.964844 629.367188 506.523438 628.492188 507.039062 C 627.617188 507.554688 626.71875 508.027344 625.796875 508.453125 C 624.875 508.878906 623.933594 509.261719 622.972656 509.59375 C 622.011719 509.925781 621.039062 510.210938 620.050781 510.445312 C 619.0625 510.679688 618.0625 510.867188 617.058594 511 C 616.050781 511.136719 615.039062 511.222656 614.023438 511.257812 C 613.007812 511.292969 611.992188 511.277344 610.980469 511.210938 C 609.964844 511.144531 608.957031 511.027344 607.957031 510.859375 C 606.953125 510.691406 605.960938 510.472656 604.980469 510.207031 C 604 509.941406 603.035156 509.628906 602.085938 509.265625 C 601.136719 508.902344 600.210938 508.492188 599.300781 508.039062 C 598.394531 507.582031 597.511719 507.082031 596.652344 506.539062 C 487.300781 439.714844 321.832031 419.753906 193.675781 459.964844 C 192.738281 460.191406 191.789062 460.371094 190.828125 460.507812 C 189.871094 460.644531 188.910156 460.738281 187.945312 460.78125 C 186.976562 460.828125 186.011719 460.828125 185.046875 460.785156 C 184.078125 460.742188 183.117188 460.648438 182.160156 460.515625 C 181.203125 460.378906 180.253906 460.199219 179.3125 459.972656 C 178.371094 459.75 177.441406 459.480469 176.527344 459.167969 C 175.613281 458.855469 174.714844 458.5 173.832031 458.105469 C 172.949219 457.707031 172.089844 457.269531 171.246094 456.792969 C 170.40625 456.316406 169.589844 455.796875 168.796875 455.242188 C 168.003906 454.6875 167.242188 454.097656 166.503906 453.46875 C 165.769531 452.84375 165.0625 452.183594 164.386719 451.488281 C 163.714844 450.796875 163.074219 450.074219 162.46875 449.320312 C 161.859375 448.566406 161.292969 447.785156 160.757812 446.976562 C 160.226562 446.171875 159.730469 445.339844 159.277344 444.484375 C 158.824219 443.632812 158.410156 442.757812 158.039062 441.867188 C 157.664062 440.972656 157.335938 440.066406 157.050781 439.140625 C 156.761719 438.21875 156.519531 437.28125 156.320312 436.335938 C 156.121094 435.390625 155.96875 434.433594 155.859375 433.472656 C 155.75 432.511719 155.6875 431.546875 155.671875 430.582031 C 155.652344 429.613281 155.679688 428.648438 155.753906 427.683594 C 155.824219 426.71875 155.945312 425.761719 156.105469 424.808594 C 156.269531 423.855469 156.476562 422.910156 156.730469 421.976562 C 156.984375 421.042969 157.277344 420.121094 157.617188 419.21875 C 157.957031 418.3125 158.335938 417.421875 158.757812 416.550781 C 159.179688 415.683594 159.644531 414.835938 160.144531 414.007812 C 160.648438 413.179688 161.1875 412.378906 161.765625 411.605469 C 162.34375 410.828125 162.957031 410.082031 163.605469 409.363281 C 164.253906 408.644531 164.933594 407.960938 165.648438 407.304688 C 166.359375 406.652344 167.101562 406.035156 167.871094 405.449219 C 168.644531 404.867188 169.441406 404.320312 170.261719 403.808594 C 171.085938 403.300781 171.929688 402.832031 172.796875 402.402344 C 173.664062 401.972656 174.546875 401.585938 175.453125 401.238281 C 323.277344 356.6875 505.527344 378.964844 631.078125 455.914062 C 631.878906 456.441406 632.648438 457.007812 633.394531 457.609375 C 634.136719 458.214844 634.847656 458.855469 635.53125 459.527344 C 636.210938 460.203125 636.855469 460.910156 637.464844 461.648438 C 638.074219 462.386719 638.648438 463.15625 639.183594 463.949219 C 639.714844 464.746094 640.210938 465.566406 640.660156 466.410156 C 641.113281 467.253906 641.523438 468.121094 641.890625 469.003906 C 642.257812 469.890625 642.578125 470.792969 642.855469 471.710938 C 643.132812 472.625 643.363281 473.554688 643.546875 474.496094 C 643.734375 475.4375 643.871094 476.382812 643.960938 477.335938 C 644.050781 478.292969 644.09375 479.246094 644.089844 480.207031 C 644.085938 481.164062 644.035156 482.121094 643.933594 483.070312 C 643.835938 484.023438 643.6875 484.972656 643.496094 485.910156 C 643.300781 486.847656 643.0625 487.773438 642.777344 488.6875 C 642.492188 489.605469 642.160156 490.503906 641.789062 491.382812 C 641.414062 492.265625 640.996094 493.128906 640.535156 493.96875 C 640.074219 494.808594 639.574219 495.625 639.03125 496.414062 Z M 695.875 372.890625 C 695.101562 373.816406 694.285156 374.710938 693.433594 375.570312 C 692.582031 376.429688 691.695312 377.25 690.773438 378.035156 C 689.847656 378.816406 688.894531 379.558594 687.910156 380.257812 C 686.921875 380.960938 685.90625 381.617188 684.867188 382.230469 C 683.824219 382.847656 682.757812 383.414062 681.664062 383.9375 C 680.574219 384.460938 679.460938 384.9375 678.328125 385.363281 C 677.199219 385.792969 676.050781 386.167969 674.886719 386.5 C 673.722656 386.828125 672.542969 387.105469 671.355469 387.335938 C 670.167969 387.5625 668.972656 387.742188 667.769531 387.867188 C 666.566406 387.992188 665.359375 388.066406 664.148438 388.089844 C 662.9375 388.113281 661.730469 388.085938 660.523438 388.003906 C 659.316406 387.921875 658.113281 387.789062 656.917969 387.605469 C 655.722656 387.421875 654.535156 387.1875 653.359375 386.902344 C 652.183594 386.617188 651.023438 386.28125 649.875 385.898438 C 648.726562 385.511719 647.597656 385.078125 646.488281 384.597656 C 645.378906 384.117188 644.292969 383.589844 643.226562 383.015625 C 513.046875 306.0625 296.953125 297.964844 173.425781 336.4375 C 172.28125 336.753906 171.121094 337.007812 169.953125 337.210938 C 168.78125 337.414062 167.601562 337.558594 166.417969 337.648438 C 165.234375 337.738281 164.046875 337.769531 162.859375 337.746094 C 161.671875 337.71875 160.488281 337.636719 159.308594 337.5 C 158.128906 337.363281 156.957031 337.167969 155.796875 336.917969 C 154.636719 336.667969 153.488281 336.359375 152.355469 336 C 151.222656 335.640625 150.113281 335.226562 149.019531 334.757812 C 147.925781 334.292969 146.859375 333.773438 145.816406 333.203125 C 144.773438 332.632812 143.761719 332.015625 142.777344 331.351562 C 141.792969 330.683594 140.84375 329.972656 139.929688 329.214844 C 139.015625 328.457031 138.136719 327.65625 137.300781 326.816406 C 136.460938 325.972656 135.664062 325.09375 134.910156 324.175781 C 134.15625 323.257812 133.449219 322.304688 132.785156 321.320312 C 132.121094 320.335938 131.507812 319.320312 130.941406 318.273438 C 130.378906 317.230469 129.863281 316.160156 129.398438 315.066406 C 128.9375 313.972656 128.527344 312.859375 128.171875 311.722656 C 127.816406 310.589844 127.515625 309.445312 127.269531 308.28125 C 127.023438 307.117188 126.832031 305.949219 126.699219 304.765625 C 126.5625 303.585938 126.488281 302.402344 126.464844 301.214844 C 126.445312 300.027344 126.484375 298.839844 126.578125 297.65625 C 126.667969 296.472656 126.820312 295.292969 127.027344 294.125 C 127.230469 292.953125 127.492188 291.796875 127.8125 290.652344 C 128.128906 289.507812 128.5 288.378906 128.925781 287.269531 C 129.351562 286.164062 129.828125 285.074219 130.355469 284.011719 C 130.886719 282.949219 131.464844 281.914062 132.09375 280.90625 C 132.722656 279.898438 133.398438 278.921875 134.121094 277.976562 C 134.84375 277.035156 135.609375 276.128906 136.417969 275.257812 C 137.226562 274.390625 138.078125 273.558594 138.964844 272.769531 C 139.855469 271.984375 140.777344 271.238281 141.738281 270.539062 C 142.699219 269.839844 143.691406 269.1875 144.710938 268.582031 C 145.734375 267.976562 146.785156 267.421875 147.859375 266.917969 C 148.933594 266.414062 150.03125 265.964844 151.152344 265.5625 C 294.925781 223.039062 531.851562 231.140625 681.703125 320.238281 C 682.777344 320.886719 683.820312 321.585938 684.828125 322.332031 C 685.839844 323.082031 686.808594 323.875 687.742188 324.71875 C 688.675781 325.558594 689.566406 326.441406 690.414062 327.371094 C 691.257812 328.296875 692.0625 329.261719 692.816406 330.265625 C 693.570312 331.269531 694.277344 332.308594 694.929688 333.378906 C 695.585938 334.453125 696.1875 335.550781 696.738281 336.683594 C 697.285156 337.8125 697.78125 338.964844 698.21875 340.140625 C 698.65625 341.320312 699.039062 342.515625 699.359375 343.726562 C 699.683594 344.941406 699.949219 346.167969 700.152344 347.40625 C 700.359375 348.644531 700.503906 349.890625 700.589844 351.144531 C 700.675781 352.398438 700.703125 353.652344 700.667969 354.910156 C 700.632812 356.164062 700.539062 357.414062 700.382812 358.660156 C 700.226562 359.90625 700.011719 361.144531 699.738281 362.371094 C 699.464844 363.597656 699.132812 364.804688 698.742188 366 C 698.351562 367.191406 697.90625 368.367188 697.402344 369.515625 C 696.898438 370.667969 696.34375 371.792969 695.730469 372.890625 Z M 695.875 372.890625 " fill-opacity="1" fill-rule="nonzero"/></svg>