<svg xmlns="http://www.w3.org/2000/svg" xmlns:xlink="http://www.w3.org/1999/xlink" width="1080" zoomAndPan="magnify" viewBox="0 0 810 809.999993" height="1080" preserveAspectRatio="xMidYMid meet" version="1.0"><defs><clipPath id="08fbf12a7d"><path d="M 4.5 5.800781 L 803.25 5.800781 L 803.25 804.550781 L 4.5 804.550781 Z M 4.5 5.800781 " clip-rule="nonzero"/></clipPath><clipPath id="1eeb363107"><path d="M 4.5 405 C 4.5 625.664062 183.386719 804.550781 404.050781 804.550781 C 624.714844 804.550781 803.601562 625.664062 803.601562 405 C 803.601562 184.335938 624.714844 5.449219 404.050781 5.449219 C 183.386719 5.449219 4.5 184.335938 4.5 405 Z M 4.5 405 " clip-rule="nonzero"/></clipPath></defs><g clip-path="url(#08fbf12a7d)"><g clip-path="url(#1eeb363107)"><path stroke-linecap="butt" transform="matrix(0, -0.75, 0.75, 0, 4.500003, 804.550756)" fill="none" stroke-linejoin="miter" d="M 532.734367 -0.00000436482 C 238.515603 -0.00000436482 -0.0000343011 238.515633 -0.0000343011 532.734397 C -0.0000343011 826.953162 238.515603 1065.468799 532.734367 1065.468799 C 826.953132 1065.468799 1065.468769 826.953162 1065.468769 532.734397 C 1065.468769 238.515633 826.953132 -0.00000436482 532.734367 -0.00000436482 Z M 532.734367 -0.00000436482 " stroke="#a6a6a6" stroke-width="2" stroke-opacity="1" stroke-miterlimit="4"/></g></g><path fill="#969696" d="M 374.027344 308.351562 L 436.144531 246.234375 C 436.144531 246.234375 498.257812 184.117188 560.375 246.234375 C 622.492188 308.351562 560.375 370.46875 560.375 370.46875 L 477.554688 453.289062 C 477.554688 453.289062 415.4375 515.40625 353.320312 453.289062 C 341.675781 441.644531 334.457031 426.164062 334.457031 426.164062 L 369.171875 391.503906 C 369.171875 391.503906 367.773438 405.625 384.378906 422.230469 C 384.378906 422.230469 415.4375 453.289062 446.496094 422.230469 L 529.316406 339.410156 C 529.316406 339.410156 560.375 308.351562 529.316406 277.292969 C 498.257812 246.234375 467.203125 277.292969 467.203125 277.292969 L 428.597656 315.898438 C 428.597656 315.898438 409.402344 300.152344 370.144531 312.234375 Z M 374.027344 308.351562 " fill-opacity="1" fill-rule="nonzero"/><path fill="#969696" d="M 434.539062 494.699219 L 372.421875 556.816406 C 372.421875 556.816406 310.304688 618.933594 248.1875 556.816406 C 186.070312 494.699219 248.1875 432.582031 248.1875 432.582031 L 331.011719 349.761719 C 331.011719 349.761719 393.128906 287.644531 455.242188 349.761719 C 466.890625 361.410156 474.105469 376.886719 474.105469 376.886719 L 439.382812 411.558594 C 439.382812 411.558594 440.78125 397.425781 424.175781 380.820312 C 424.175781 380.820312 393.117188 349.761719 362.058594 380.820312 L 279.238281 463.640625 C 279.238281 463.640625 248.179688 494.699219 279.238281 525.757812 C 310.292969 556.816406 341.351562 525.757812 341.351562 525.757812 L 379.957031 487.152344 C 379.957031 487.152344 399.152344 502.898438 438.410156 490.816406 Z M 434.539062 494.699219 " fill-opacity="1" fill-rule="nonzero"/></svg>