<svg xmlns="http://www.w3.org/2000/svg" xmlns:xlink="http://www.w3.org/1999/xlink" width="1080" zoomAndPan="magnify" viewBox="0 0 810 809.999993" height="1080" preserveAspectRatio="xMidYMid meet" version="1.0"><defs><clipPath id="5cafb79301"><path d="M 405 0 C 181.324219 0 0 181.324219 0 405 C 0 628.675781 181.324219 810 405 810 C 628.675781 810 810 628.675781 810 405 C 810 181.324219 628.675781 0 405 0 Z M 405 0 " clip-rule="nonzero"/></clipPath><clipPath id="f042f0bce2"><path d="M 194.480469 244.410156 L 393 244.410156 L 393 564.660156 L 194.480469 564.660156 Z M 194.480469 244.410156 " clip-rule="nonzero"/></clipPath><clipPath id="685c542c7d"><path d="M 412 244.410156 L 615.230469 244.410156 L 615.230469 564.660156 L 412 564.660156 Z M 412 244.410156 " clip-rule="nonzero"/></clipPath></defs><g clip-path="url(#5cafb79301)"><rect x="-81" width="972" fill="#38b6ff" y="-80.999999" height="971.999992" fill-opacity="1"/></g><g clip-path="url(#f042f0bce2)"><path fill="#ffffff" d="M 303.433594 381.359375 C 283.519531 381.359375 265.191406 387.996094 250.378906 399.046875 C 251.835938 352.917969 287.496094 306.769531 357.859375 260.609375 L 347.417969 244.410156 C 245.464844 307.753906 194.484375 377.273438 194.484375 452.957031 C 194.484375 487.710938 203.941406 514.949219 222.871094 534.625 C 241.785156 554.335938 265.738281 564.167969 294.703125 564.167969 C 323.679688 564.167969 347.03125 556.261719 364.800781 540.421875 C 382.5625 524.601562 391.453125 505.46875 391.453125 483.082031 C 391.453125 482.828125 391.40625 482.644531 391.40625 482.375 C 391.949219 478.402344 392.332031 474.390625 392.332031 470.242188 C 392.332031 421.167969 352.515625 381.359375 303.433594 381.359375 Z M 303.433594 381.359375 " fill-opacity="1" fill-rule="nonzero"/></g><g clip-path="url(#685c542c7d)"><path fill="#ffffff" d="M 590.863281 531.617188 C 592.011719 530.285156 593.40625 529.019531 594.464844 527.628906 C 607.558594 512.140625 615.511719 492.144531 615.511719 470.25 C 615.511719 421.171875 575.703125 381.351562 526.621094 381.351562 C 504.136719 381.351562 483.671875 389.765625 468.007812 403.539062 C 468.007812 402.992188 467.921875 402.53125 467.921875 401.964844 C 467.921875 354.855469 503.828125 307.722656 575.675781 260.601562 L 565.246094 244.410156 C 463.28125 307.753906 412.296875 377.273438 412.296875 452.972656 C 412.296875 487.730469 421.753906 514.960938 440.691406 534.636719 C 459.605469 554.347656 483.554688 564.191406 512.515625 564.191406 C 541.476562 564.191406 564.855469 556.273438 582.617188 540.425781 C 585.128906 538.214844 587.078125 535.730469 589.230469 533.359375 C 589.800781 532.796875 590.308594 532.207031 590.863281 531.617188 Z M 590.863281 531.617188 " fill-opacity="1" fill-rule="nonzero"/></g></svg>