<svg xmlns="http://www.w3.org/2000/svg" xmlns:xlink="http://www.w3.org/1999/xlink" width="1080" zoomAndPan="magnify" viewBox="0 0 810 809.999993" height="1080" preserveAspectRatio="xMidYMid meet" version="1.0"><defs><clipPath id="4c8a00d2aa"><path d="M 93 14.488281 L 729 14.488281 L 729 810 L 93 810 Z M 93 14.488281 " clip-rule="nonzero"/></clipPath></defs><g clip-path="url(#4c8a00d2aa)"><path fill="#38b6ff" d="M 613.625 680.972656 C 610.644531 680.433594 607.5 681.25 605.136719 683.195312 C 602.777344 685.152344 601.371094 688.019531 601.347656 691.085938 L 600.398438 770.195312 L 435.90625 570.585938 C 479.621094 566.683594 520.464844 552.652344 556.046875 530.835938 L 691.453125 695.183594 Z M 220.453125 691.085938 C 220.425781 688.019531 219.046875 685.152344 216.664062 683.195312 C 214.296875 681.25 211.210938 680.433594 208.175781 680.972656 L 130.316406 695.183594 L 265.742188 530.835938 C 301.339844 552.652344 342.183594 566.683594 385.894531 570.585938 L 221.40625 770.195312 Z M 153.085938 293.117188 C 153.085938 150.984375 268.738281 35.332031 410.902344 35.332031 C 553.035156 35.332031 668.6875 150.984375 668.6875 293.117188 C 668.6875 435.253906 553.035156 550.90625 410.902344 550.90625 C 268.738281 550.90625 153.085938 435.253906 153.085938 293.117188 Z M 725.617188 703.910156 L 573.457031 519.246094 C 643.6875 468.621094 689.507812 386.125 689.507812 293.117188 C 689.507812 139.484375 564.527344 14.511719 410.902344 14.511719 C 257.265625 14.511719 132.265625 139.484375 132.265625 293.117188 C 132.265625 386.125 178.089844 468.621094 248.335938 519.246094 L 96.15625 703.910156 C 93.363281 707.265625 92.988281 712.015625 95.214844 715.785156 C 97.429688 719.550781 101.738281 721.558594 106.054688 720.773438 L 199.769531 703.664062 L 200.910156 798.929688 C 200.960938 803.292969 203.726562 807.171875 207.847656 808.609375 C 211.914062 810.039062 216.550781 808.765625 219.347656 805.410156 L 410.902344 572.96875 L 602.457031 805.410156 C 604.464844 807.847656 607.445312 809.203125 610.480469 809.203125 C 611.648438 809.203125 612.808594 809.015625 613.949219 808.609375 C 618.070312 807.171875 620.839844 803.292969 620.894531 798.929688 L 622.03125 703.664062 L 715.71875 720.773438 C 719.972656 721.558594 724.34375 719.550781 726.566406 715.785156 C 728.785156 712.015625 728.410156 707.265625 725.617188 703.910156 " fill-opacity="1" fill-rule="nonzero"/></g><path fill="#38b6ff" d="M 222.109375 293.117188 C 222.109375 189.019531 306.800781 104.328125 410.902344 104.328125 C 514.972656 104.328125 599.664062 189.019531 599.664062 293.117188 C 599.664062 397.1875 514.972656 481.878906 410.902344 481.878906 C 306.800781 481.878906 222.109375 397.1875 222.109375 293.117188 Z M 620.480469 293.117188 C 620.480469 177.546875 526.472656 83.5 410.902344 83.5 C 295.332031 83.5 201.292969 177.546875 201.292969 293.117188 C 201.292969 408.6875 295.332031 502.699219 410.902344 502.699219 C 526.472656 502.699219 620.480469 408.6875 620.480469 293.117188 " fill-opacity="1" fill-rule="nonzero"/><path fill="#38b6ff" d="M 525.871094 224.476562 C 521.804688 220.40625 515.1875 220.40625 511.121094 224.476562 L 368.09375 367.53125 L 310.652344 310.0625 C 306.582031 305.996094 299.96875 305.996094 295.902344 310.0625 C 291.863281 314.125 291.863281 320.738281 295.902344 324.808594 L 360.722656 389.628906 C 362.753906 391.660156 365.4375 392.664062 368.09375 392.664062 C 370.746094 392.664062 373.4375 391.660156 375.46875 389.628906 L 525.871094 239.226562 C 529.910156 235.15625 529.910156 228.542969 525.871094 224.476562 " fill-opacity="1" fill-rule="nonzero"/></svg>