<svg xmlns="http://www.w3.org/2000/svg" xmlns:xlink="http://www.w3.org/1999/xlink" width="1080" zoomAndPan="magnify" viewBox="0 0 810 809.999993" height="1080" preserveAspectRatio="xMidYMid meet" version="1.0"><defs><clipPath id="87c964f131"><path d="M 405 0 C 181.324219 0 0 181.324219 0 405 C 0 628.675781 181.324219 810 405 810 C 628.675781 810 810 628.675781 810 405 C 810 181.324219 628.675781 0 405 0 Z M 405 0 " clip-rule="nonzero"/></clipPath><clipPath id="fe388e82e8"><path d="M 436 438 L 548 438 L 548 548.183594 L 436 548.183594 Z M 436 438 " clip-rule="nonzero"/></clipPath></defs><g clip-path="url(#87c964f131)"><rect x="-81" width="972" fill="#2f476a" y="-80.999999" height="971.999992" fill-opacity="1"/></g><path fill="#ffffff" d="M 380.0625 490.566406 C 377.824219 490.566406 375.585938 490.5 373.351562 490.363281 C 371.117188 490.226562 368.890625 490.023438 366.667969 489.75 C 364.449219 489.476562 362.234375 489.136719 360.035156 488.726562 C 357.835938 488.316406 355.648438 487.84375 353.476562 487.300781 C 351.304688 486.757812 349.152344 486.148438 347.019531 485.472656 C 344.886719 484.796875 342.773438 484.058594 340.6875 483.253906 C 338.597656 482.449219 336.535156 481.578125 334.5 480.648438 C 332.464844 479.714844 330.460938 478.722656 328.484375 477.667969 C 326.511719 476.613281 324.570312 475.5 322.667969 474.328125 C 320.761719 473.152344 318.890625 471.921875 317.0625 470.632812 C 315.230469 469.347656 313.441406 468.003906 311.695312 466.605469 C 309.945312 465.207031 308.242188 463.757812 306.585938 462.253906 C 304.925781 460.75 303.316406 459.199219 301.75 457.597656 C 300.1875 455.996094 298.675781 454.347656 297.210938 452.652344 C 295.75 450.960938 294.339844 449.222656 292.984375 447.441406 C 291.628906 445.660156 290.332031 443.839844 289.085938 441.976562 C 287.84375 440.117188 286.65625 438.21875 285.53125 436.285156 C 284.402344 434.351562 283.335938 432.386719 282.328125 430.386719 C 281.324219 428.386719 280.378906 426.359375 279.496094 424.304688 C 278.613281 422.246094 277.796875 420.164062 277.042969 418.054688 C 276.289062 415.949219 275.597656 413.820312 274.976562 411.671875 C 274.351562 409.519531 273.792969 407.355469 273.304688 405.171875 C 272.8125 402.988281 272.390625 400.789062 272.035156 398.582031 C 271.679688 396.371094 271.390625 394.152344 271.171875 391.925781 C 270.953125 389.699219 270.800781 387.464844 270.71875 385.230469 C 270.636719 382.992188 270.621094 380.753906 270.679688 378.515625 C 270.734375 376.28125 270.855469 374.046875 271.046875 371.816406 C 271.242188 369.585938 271.5 367.363281 271.828125 365.148438 C 272.15625 362.9375 272.554688 360.734375 273.019531 358.542969 C 273.480469 356.355469 274.011719 354.179688 274.609375 352.023438 C 275.207031 349.867188 275.867188 347.730469 276.597656 345.613281 C 277.324219 343.496094 278.117188 341.40625 278.976562 339.339844 C 279.832031 337.269531 280.75 335.230469 281.734375 333.21875 C 282.714844 331.207031 283.757812 329.230469 284.859375 327.28125 C 285.964844 325.335938 287.128906 323.421875 288.347656 321.546875 C 289.570312 319.671875 290.847656 317.835938 292.179688 316.035156 C 293.511719 314.238281 294.902344 312.484375 296.34375 310.773438 C 297.785156 309.058594 299.277344 307.394531 300.820312 305.773438 C 302.363281 304.152344 303.957031 302.582031 305.597656 301.058594 C 307.234375 299.535156 308.921875 298.0625 310.652344 296.644531 C 312.382812 295.226562 314.15625 293.859375 315.96875 292.550781 C 317.785156 291.238281 319.636719 289.984375 321.527344 288.789062 C 323.417969 287.589844 325.34375 286.453125 327.308594 285.375 C 329.269531 284.296875 331.261719 283.277344 333.285156 282.324219 C 335.308594 281.367188 337.359375 280.472656 339.4375 279.644531 C 341.515625 278.8125 343.617188 278.046875 345.742188 277.34375 C 347.867188 276.644531 350.015625 276.007812 352.179688 275.4375 C 354.34375 274.871094 356.523438 274.367188 358.71875 273.929688 C 360.914062 273.496094 363.121094 273.128906 365.339844 272.828125 C 367.554688 272.527344 369.78125 272.296875 372.011719 272.132812 C 374.246094 271.96875 376.480469 271.871094 378.71875 271.847656 C 380.957031 271.820312 383.195312 271.863281 385.429688 271.972656 C 387.664062 272.085938 389.894531 272.261719 392.121094 272.511719 C 394.34375 272.757812 396.558594 273.074219 398.761719 273.457031 C 400.96875 273.84375 403.160156 274.292969 405.335938 274.8125 C 407.515625 275.332031 409.671875 275.914062 411.816406 276.566406 C 413.957031 277.21875 416.078125 277.933594 418.171875 278.714844 C 420.269531 279.496094 422.34375 280.339844 424.386719 281.25 C 426.433594 282.15625 428.449219 283.125 430.4375 284.160156 C 432.421875 285.191406 434.375 286.28125 436.292969 287.433594 C 438.210938 288.585938 440.09375 289.796875 441.9375 291.0625 C 443.785156 292.332031 445.589844 293.652344 447.351562 295.03125 C 449.117188 296.410156 450.835938 297.839844 452.511719 299.324219 C 454.1875 300.808594 455.816406 302.34375 457.394531 303.925781 C 459.296875 305.824219 461.125 307.789062 462.878906 309.824219 C 464.632812 311.855469 466.3125 313.949219 467.914062 316.105469 C 469.515625 318.261719 471.035156 320.472656 472.472656 322.742188 C 473.910156 325.011719 475.261719 327.328125 476.527344 329.695312 C 477.796875 332.066406 478.972656 334.476562 480.0625 336.929688 C 481.152344 339.386719 482.148438 341.878906 483.054688 344.40625 C 483.960938 346.933594 484.773438 349.492188 485.488281 352.078125 C 486.207031 354.667969 486.828125 357.277344 487.351562 359.914062 C 487.875 362.546875 488.304688 365.195312 488.632812 367.863281 C 488.960938 370.527344 489.191406 373.199219 489.324219 375.882812 C 489.457031 378.566406 489.488281 381.25 489.425781 383.933594 C 489.359375 386.617188 489.195312 389.296875 488.929688 391.96875 C 488.667969 394.644531 488.308594 397.300781 487.847656 399.949219 C 487.390625 402.59375 486.832031 405.21875 486.179688 407.824219 C 485.527344 410.429688 484.78125 413.007812 483.9375 415.558594 C 483.09375 418.105469 482.160156 420.621094 481.132812 423.105469 C 480.105469 425.585938 478.984375 428.023438 477.777344 430.421875 C 476.570312 432.820312 475.277344 435.171875 473.894531 437.476562 C 472.511719 439.777344 471.050781 442.027344 469.503906 444.222656 C 467.957031 446.417969 466.328125 448.554688 464.625 450.628906 C 462.921875 452.707031 461.140625 454.714844 459.289062 456.660156 C 457.4375 458.605469 455.515625 460.476562 453.523438 462.28125 C 451.535156 464.082031 449.480469 465.808594 447.363281 467.460938 C 445.246094 469.113281 443.070312 470.683594 440.835938 472.175781 C 438.601562 473.664062 436.316406 475.074219 433.976562 476.394531 C 431.640625 477.71875 429.257812 478.953125 426.828125 480.097656 C 424.402344 481.246094 421.933594 482.300781 419.429688 483.265625 C 416.921875 484.230469 414.382812 485.101562 411.8125 485.878906 C 409.242188 486.660156 406.648438 487.339844 404.027344 487.925781 C 401.40625 488.515625 398.765625 489.003906 396.109375 489.394531 C 393.453125 489.789062 390.785156 490.082031 388.105469 490.277344 C 385.429688 490.472656 382.746094 490.566406 380.0625 490.566406 Z M 380.0625 295.933594 C 378.429688 295.929688 376.800781 295.972656 375.171875 296.0625 C 373.546875 296.152344 371.921875 296.289062 370.300781 296.472656 C 368.683594 296.65625 367.070312 296.882812 365.460938 297.160156 C 363.855469 297.433594 362.257812 297.757812 360.667969 298.121094 C 359.082031 298.488281 357.503906 298.902344 355.9375 299.359375 C 354.375 299.816406 352.824219 300.316406 351.289062 300.863281 C 349.75 301.410156 348.230469 302 346.730469 302.632812 C 345.226562 303.265625 343.746094 303.941406 342.28125 304.660156 C 340.816406 305.378906 339.375 306.136719 337.957031 306.9375 C 336.535156 307.738281 335.140625 308.578125 333.769531 309.460938 C 332.394531 310.339844 331.050781 311.261719 329.730469 312.21875 C 328.414062 313.175781 327.121094 314.171875 325.859375 315.203125 C 324.597656 316.234375 323.367188 317.300781 322.164062 318.40625 C 320.964844 319.507812 319.796875 320.644531 318.660156 321.8125 C 317.523438 322.980469 316.421875 324.183594 315.355469 325.414062 C 314.289062 326.648438 313.257812 327.910156 312.261719 329.203125 C 311.269531 330.492188 310.3125 331.8125 309.394531 333.160156 C 308.472656 334.503906 307.59375 335.878906 306.753906 337.273438 C 305.914062 338.671875 305.113281 340.089844 304.355469 341.535156 C 303.59375 342.976562 302.878906 344.441406 302.203125 345.921875 C 301.527344 347.40625 300.894531 348.910156 300.308594 350.429688 C 299.71875 351.949219 299.171875 353.484375 298.671875 355.035156 C 298.171875 356.589844 297.714844 358.152344 297.304688 359.730469 C 296.890625 361.308594 296.527344 362.894531 296.207031 364.492188 C 295.886719 366.09375 295.609375 367.699219 295.382812 369.3125 C 295.152344 370.925781 294.972656 372.546875 294.835938 374.171875 C 294.703125 375.796875 294.613281 377.421875 294.570312 379.050781 C 294.527344 380.683594 294.53125 382.3125 294.582031 383.941406 C 294.632812 385.570312 294.734375 387.195312 294.875 388.820312 C 295.019531 390.445312 295.210938 392.0625 295.449219 393.675781 C 295.6875 395.289062 295.96875 396.894531 296.296875 398.492188 C 296.628906 400.085938 297.003906 401.671875 297.421875 403.25 C 297.84375 404.824219 298.308594 406.386719 298.816406 407.933594 C 299.328125 409.480469 299.878906 411.015625 300.476562 412.53125 C 301.074219 414.046875 301.714844 415.546875 302.398438 417.027344 C 303.082031 418.507812 303.808594 419.964844 304.574219 421.40625 C 305.339844 422.84375 306.148438 424.257812 306.996094 425.652344 C 307.84375 427.042969 308.730469 428.410156 309.660156 429.753906 C 310.585938 431.09375 311.550781 432.40625 312.550781 433.695312 C 313.550781 434.980469 314.589844 436.234375 315.664062 437.460938 C 316.738281 438.691406 317.84375 439.882812 318.988281 441.046875 C 320.128906 442.210938 321.304688 443.339844 322.511719 444.4375 C 323.71875 445.53125 324.957031 446.59375 326.222656 447.617188 C 327.492188 448.640625 328.789062 449.628906 330.113281 450.582031 C 331.4375 451.53125 332.785156 452.441406 334.164062 453.316406 C 335.539062 454.191406 336.941406 455.023438 338.363281 455.816406 C 339.789062 456.609375 341.234375 457.359375 342.703125 458.070312 C 344.171875 458.78125 345.65625 459.449219 347.164062 460.074219 C 348.667969 460.699219 350.191406 461.277344 351.730469 461.816406 C 353.269531 462.355469 354.820312 462.847656 356.390625 463.296875 C 357.957031 463.746094 359.535156 464.148438 361.125 464.507812 C 362.714844 464.863281 364.316406 465.175781 365.925781 465.441406 C 367.53125 465.710938 369.148438 465.929688 370.769531 466.101562 C 372.390625 466.277344 374.011719 466.40625 375.640625 466.484375 C 377.269531 466.566406 378.898438 466.601562 380.53125 466.585938 C 382.160156 466.574219 383.789062 466.515625 385.414062 466.410156 C 387.042969 466.304688 388.664062 466.152344 390.28125 465.953125 C 391.898438 465.753906 393.511719 465.507812 395.117188 465.214844 C 396.71875 464.925781 398.3125 464.589844 399.898438 464.207031 C 401.484375 463.824219 403.054688 463.394531 404.617188 462.921875 C 406.175781 462.449219 407.722656 461.933594 409.25 461.371094 C 410.78125 460.808594 412.296875 460.207031 413.792969 459.558594 C 415.289062 458.910156 416.761719 458.21875 418.21875 457.484375 C 419.675781 456.753906 421.109375 455.980469 422.523438 455.164062 C 423.933594 454.347656 425.320312 453.496094 426.683594 452.601562 C 428.046875 451.707031 429.382812 450.773438 430.691406 449.800781 C 432.003906 448.832031 433.285156 447.824219 434.535156 446.777344 C 435.785156 445.734375 437.007812 444.65625 438.199219 443.539062 C 439.386719 442.425781 440.542969 441.277344 441.667969 440.097656 C 442.792969 438.917969 443.882812 437.707031 444.9375 436.460938 C 445.992188 435.21875 447.007812 433.945312 447.992188 432.644531 C 448.972656 431.34375 449.917969 430.015625 450.820312 428.660156 C 451.726562 427.304688 452.59375 425.921875 453.421875 424.519531 C 454.246094 423.113281 455.03125 421.683594 455.777344 420.234375 C 456.519531 418.785156 457.222656 417.3125 457.882812 415.824219 C 458.542969 414.332031 459.160156 412.824219 459.734375 411.300781 C 460.308594 409.773438 460.839844 408.230469 461.324219 406.675781 C 461.808594 405.121094 462.25 403.550781 462.644531 401.96875 C 463.042969 400.386719 463.390625 398.796875 463.695312 397.195312 C 464 395.59375 464.257812 393.984375 464.472656 392.367188 C 464.683594 390.75 464.847656 389.128906 464.96875 387.503906 C 465.085938 385.878906 465.160156 384.25 465.1875 382.621094 C 465.210938 380.992188 465.191406 379.359375 465.125 377.730469 C 465.054688 376.101562 464.941406 374.476562 464.78125 372.855469 C 464.621094 371.234375 464.414062 369.617188 464.160156 368.007812 C 463.90625 366.394531 463.609375 364.792969 463.261719 363.199219 C 462.917969 361.609375 462.527344 360.023438 462.09375 358.453125 C 461.65625 356.882812 461.175781 355.328125 460.652344 353.78125 C 460.125 352.238281 459.558594 350.710938 458.945312 349.203125 C 458.332031 347.691406 457.675781 346.199219 456.980469 344.726562 C 456.28125 343.253906 455.539062 341.800781 454.757812 340.371094 C 453.976562 338.9375 453.15625 337.53125 452.292969 336.148438 C 451.433594 334.765625 450.53125 333.40625 449.59375 332.074219 C 448.652344 330.742188 447.675781 329.4375 446.660156 328.160156 C 445.644531 326.886719 444.597656 325.640625 443.511719 324.421875 C 442.425781 323.207031 441.304688 322.023438 440.152344 320.871094 C 438.183594 318.902344 436.121094 317.035156 433.972656 315.269531 C 431.820312 313.5 429.585938 311.84375 427.273438 310.296875 C 424.960938 308.75 422.574219 307.316406 420.121094 306.003906 C 417.667969 304.691406 415.152344 303.5 412.582031 302.433594 C 410.011719 301.367188 407.394531 300.429688 404.730469 299.617188 C 402.066406 298.808594 399.371094 298.128906 396.640625 297.585938 C 393.910156 297.039062 391.160156 296.628906 388.390625 296.351562 C 385.621094 296.078125 382.84375 295.9375 380.0625 295.933594 Z M 380.0625 295.933594 " fill-opacity="1" fill-rule="nonzero"/><g clip-path="url(#fe388e82e8)"><path fill="#ffffff" d="M 535.09375 548.3125 C 533.5 548.304688 531.972656 547.996094 530.503906 547.382812 C 529.035156 546.765625 527.742188 545.894531 526.621094 544.765625 L 440.390625 458.597656 C 439.832031 458.039062 439.335938 457.433594 438.894531 456.777344 C 438.457031 456.121094 438.085938 455.425781 437.785156 454.695312 C 437.480469 453.96875 437.253906 453.214844 437.101562 452.441406 C 436.945312 451.667969 436.867188 450.886719 436.867188 450.09375 C 436.867188 449.304688 436.945312 448.523438 437.101562 447.75 C 437.253906 446.976562 437.480469 446.222656 437.785156 445.492188 C 438.085938 444.765625 438.457031 444.070312 438.894531 443.414062 C 439.335938 442.757812 439.832031 442.152344 440.390625 441.59375 C 440.949219 441.035156 441.554688 440.535156 442.214844 440.097656 C 442.871094 439.660156 443.5625 439.289062 444.292969 438.984375 C 445.019531 438.683594 445.773438 438.457031 446.546875 438.300781 C 447.320312 438.148438 448.105469 438.070312 448.894531 438.070312 C 449.683594 438.070312 450.464844 438.148438 451.238281 438.300781 C 452.015625 438.457031 452.765625 438.683594 453.496094 438.984375 C 454.226562 439.289062 454.917969 439.660156 455.574219 440.097656 C 456.230469 440.535156 456.839844 441.035156 457.394531 441.59375 L 543.566406 527.820312 C 544.402344 528.660156 545.097656 529.605469 545.652344 530.652344 C 546.210938 531.699219 546.601562 532.800781 546.832031 533.964844 C 547.0625 535.125 547.117188 536.296875 547 537.476562 C 546.886719 538.65625 546.601562 539.792969 546.148438 540.886719 C 545.695312 541.980469 545.09375 542.988281 544.34375 543.90625 C 543.59375 544.820312 542.726562 545.609375 541.742188 546.269531 C 540.757812 546.933594 539.703125 547.4375 538.570312 547.785156 C 537.4375 548.132812 536.277344 548.308594 535.09375 548.3125 Z M 535.09375 548.3125 " fill-opacity="1" fill-rule="nonzero"/></g></svg>