<svg width="48" height="48" viewBox="0 0 48 48" fill="none" xmlns="http://www.w3.org/2000/svg">
<circle cx="24" cy="24" r="24" fill="#38B6FF"/>
<path d="M14.711 32.04L14.071 31.144C15.703 31.144 18.967 30.216 20.599 28.392C21.399 27.528 21.815 26.728 21.815 26.088C21.367 26.568 20.055 26.984 18.743 26.984C15.959 26.984 14.007 24.744 14.007 21.992C14.007 18.888 16.151 16.68 19.383 16.68C21.623 16.68 23.511 17.864 24.375 19.816C25.175 17.864 26.935 16.68 29.367 16.68C32.567 16.68 34.999 18.984 34.999 23.08C34.999 26.344 32.727 29.576 29.495 30.984C27.863 31.688 26.263 32.04 24.695 32.04L24.055 31.144C25.687 31.144 28.951 30.216 30.583 28.392C31.383 27.528 31.799 26.728 31.799 26.088C31.351 26.568 30.039 26.984 28.727 26.984C27.031 26.984 25.719 26.28 24.823 24.872C24.151 27.688 21.911 30.12 18.967 31.208C17.495 31.752 16.087 32.04 14.711 32.04Z" fill="#F5F5F7"/>
</svg>
