<svg xmlns="http://www.w3.org/2000/svg" xmlns:xlink="http://www.w3.org/1999/xlink" width="1080" zoomAndPan="magnify" viewBox="0 0 810 809.999993" height="1080" preserveAspectRatio="xMidYMid meet" version="1.0"><defs><clipPath id="77f1134057"><path d="M 405 0 C 181.324219 0 0 181.324219 0 405 C 0 628.675781 181.324219 810 405 810 C 628.675781 810 810 628.675781 810 405 C 810 181.324219 628.675781 0 405 0 Z M 405 0 " clip-rule="nonzero"/></clipPath><clipPath id="ac00b9cc3c"><path d="M 219.394531 263.742188 L 395 263.742188 L 395 546.492188 L 219.394531 546.492188 Z M 219.394531 263.742188 " clip-rule="nonzero"/></clipPath><clipPath id="0591f5c309"><path d="M 411 263.742188 L 591.394531 263.742188 L 591.394531 546.492188 L 411 546.492188 Z M 411 263.742188 " clip-rule="nonzero"/></clipPath></defs><g clip-path="url(#77f1134057)"><rect x="-81" width="972" fill="#f5f5f7" y="-80.999999" height="971.999992" fill-opacity="1"/></g><g clip-path="url(#ac00b9cc3c)"><path fill="#bcbcbb" d="M 315.585938 384.65625 C 298.003906 384.65625 281.820312 390.515625 268.742188 400.273438 C 270.03125 359.542969 301.515625 318.796875 363.640625 278.046875 L 354.421875 263.742188 C 264.40625 319.667969 219.394531 381.046875 219.394531 447.871094 C 219.394531 478.558594 227.742188 502.605469 244.453125 519.976562 C 261.15625 537.378906 282.304688 546.058594 307.875 546.058594 C 333.460938 546.058594 354.078125 539.078125 369.769531 525.09375 C 385.449219 511.128906 393.300781 494.234375 393.300781 474.46875 C 393.300781 474.246094 393.257812 474.082031 393.257812 473.84375 C 393.738281 470.339844 394.078125 466.796875 394.078125 463.132812 C 394.078125 419.804688 358.921875 384.65625 315.585938 384.65625 Z M 315.585938 384.65625 " fill-opacity="1" fill-rule="nonzero"/></g><g clip-path="url(#0591f5c309)"><path fill="#bcbcbb" d="M 569.363281 517.320312 C 570.375 516.144531 571.605469 515.027344 572.539062 513.800781 C 584.101562 500.125 591.125 482.472656 591.125 463.136719 C 591.125 419.808594 555.976562 384.652344 512.640625 384.652344 C 492.789062 384.652344 474.71875 392.078125 460.890625 404.242188 C 460.890625 403.757812 460.8125 403.347656 460.8125 402.851562 C 460.8125 361.257812 492.519531 319.640625 555.953125 278.039062 L 546.742188 263.742188 C 456.714844 319.667969 411.703125 381.046875 411.703125 447.886719 C 411.703125 478.570312 420.054688 502.617188 436.773438 519.984375 C 453.472656 537.390625 474.617188 546.082031 500.1875 546.082031 C 525.757812 546.082031 546.398438 539.089844 562.078125 525.097656 C 564.300781 523.144531 566.019531 520.953125 567.917969 518.859375 C 568.421875 518.363281 568.871094 517.839844 569.363281 517.320312 Z M 569.363281 517.320312 " fill-opacity="1" fill-rule="nonzero"/></g></svg>