<svg xmlns="http://www.w3.org/2000/svg" xmlns:xlink="http://www.w3.org/1999/xlink" width="1080" zoomAndPan="magnify" viewBox="0 0 810 809.999993" height="1080" preserveAspectRatio="xMidYMid meet" version="1.0"><path fill="#38b6ff" d="M 588.703125 463.003906 C 547.882812 502.199219 518.496094 547.691406 502.808594 595.074219 L 418.433594 595.074219 L 418.433594 313.140625 C 418.433594 313.140625 418.433594 313.039062 418.433594 312.984375 L 499.03125 312.984375 C 550.871094 312.984375 593.058594 270.796875 593.058594 218.957031 L 593.058594 205.523438 C 593.058594 198.125 587.027344 192.089844 579.625 192.089844 L 485.597656 192.089844 C 433.753906 192.089844 391.566406 234.277344 391.566406 286.121094 L 391.566406 290.894531 C 369.371094 263.453125 335.527344 245.820312 297.539062 245.820312 L 216.941406 245.820312 C 209.542969 245.820312 203.507812 251.855469 203.507812 259.253906 C 203.507812 325.945312 257.761719 380.148438 324.402344 380.148438 L 391.566406 380.148438 L 391.566406 595.074219 L 307.191406 595.074219 C 291.609375 547.851562 262.222656 502.410156 221.296875 463.160156 C 175.855469 419.347656 149.777344 354.910156 149.777344 286.382812 C 149.671875 152.789062 257.816406 38.347656 390.9375 31.316406 C 461.828125 27.328125 529.148438 52.199219 580.519531 100.839844 C 631.941406 149.585938 660.222656 215.335938 660.222656 286.121094 C 660.222656 354.859375 634.144531 419.347656 588.703125 463.003906 Z M 299.214844 326.417969 C 338.203125 326.417969 364.648438 340.953125 379.078125 353.285156 L 324.402344 353.285156 C 277.125 353.285156 237.875 318.179688 231.316406 272.6875 L 297.539062 272.6875 C 332.429688 272.6875 362.917969 291.839844 379.183594 320.171875 C 359.507812 308.472656 332.695312 299.550781 299.214844 299.550781 C 291.816406 299.550781 285.785156 305.585938 285.785156 312.984375 C 285.785156 320.382812 291.816406 326.417969 299.214844 326.417969 Z M 485.597656 245.820312 C 457.105469 245.820312 437.324219 252.117188 423.46875 260.777344 C 433.492188 236.269531 457.523438 218.957031 485.597656 218.957031 L 566.195312 218.957031 C 566.195312 256 536.074219 286.121094 499.03125 286.121094 L 433.859375 286.121094 C 443.621094 278.722656 459.464844 272.6875 485.597656 272.6875 C 492.996094 272.6875 499.03125 266.652344 499.03125 259.253906 C 499.03125 251.855469 492.996094 245.820312 485.597656 245.820312 Z M 304.253906 662.238281 C 293.128906 662.238281 284.105469 653.214844 284.105469 642.089844 C 284.105469 630.964844 293.128906 621.941406 304.253906 621.941406 L 505.746094 621.941406 C 516.871094 621.941406 525.894531 630.964844 525.894531 642.089844 C 525.894531 653.214844 516.871094 662.238281 505.746094 662.238281 Z M 525.894531 709.253906 C 525.894531 720.378906 516.871094 729.402344 505.746094 729.402344 L 304.253906 729.402344 C 293.128906 729.402344 284.105469 720.378906 284.105469 709.253906 C 284.105469 698.128906 293.128906 689.105469 304.253906 689.105469 L 505.746094 689.105469 C 516.871094 689.105469 525.894531 698.128906 525.894531 709.253906 Z M 405 783.132812 C 387.472656 783.132812 372.574219 771.90625 367.011719 756.269531 L 442.988281 756.269531 C 437.425781 771.90625 422.527344 783.132812 405 783.132812 Z M 389.519531 4.449219 C 242.390625 12.269531 122.753906 138.777344 122.910156 286.382812 C 122.910156 362.152344 151.980469 433.671875 202.667969 482.523438 C 239.871094 518.203125 266.683594 559.132812 281.0625 601.476562 C 266.894531 609.609375 257.238281 624.667969 257.238281 642.089844 C 257.238281 655.261719 262.695312 667.117188 271.457031 675.671875 C 262.695312 684.222656 257.238281 696.082031 257.238281 709.253906 C 257.238281 735.175781 278.332031 756.269531 304.253906 756.269531 L 339.199219 756.269531 C 345.445312 786.914062 372.574219 810 405 810 C 437.425781 810 464.554688 786.914062 470.800781 756.269531 L 505.746094 756.269531 C 531.667969 756.269531 552.761719 735.175781 552.761719 709.253906 C 552.761719 696.082031 547.304688 684.222656 538.542969 675.671875 C 547.304688 667.117188 552.761719 655.261719 552.761719 642.089844 C 552.761719 624.667969 543.105469 609.609375 528.992188 601.476562 C 543.421875 558.972656 570.234375 517.992188 607.332031 482.363281 C 658.019531 433.671875 687.089844 362.152344 687.089844 286.121094 C 687.089844 207.882812 655.816406 135.210938 598.988281 81.375 C 542.265625 27.539062 467.863281 0.304688 389.519531 4.449219 " fill-opacity="1" fill-rule="nonzero"/><path fill="#38b6ff" d="M 405 84.625 C 322.042969 84.625 246.378906 136.679688 216.730469 214.179688 L 241.8125 223.730469 C 267.523438 156.617188 333.113281 111.492188 405 111.492188 C 456.683594 111.492188 505.484375 134.214844 538.75 173.882812 L 559.320312 156.566406 C 520.910156 110.863281 464.660156 84.625 405 84.625 " fill-opacity="1" fill-rule="nonzero"/><path fill="#38b6ff" d="M 361.816406 482.996094 L 367.585938 456.757812 C 324.613281 447.367188 286.992188 422.179688 261.644531 385.867188 L 239.609375 401.296875 C 268.835938 443.117188 312.230469 472.132812 361.816406 482.996094 " fill-opacity="1" fill-rule="nonzero"/><path fill="#38b6ff" d="M 442.414062 456.757812 L 448.183594 482.996094 C 534.816406 464.050781 599.722656 389.015625 605.96875 300.496094 L 579.207031 298.609375 C 573.800781 375.320312 517.550781 440.335938 442.414062 456.757812 " fill-opacity="1" fill-rule="nonzero"/><path fill="#38b6ff" d="M 96.042969 272.6875 L 2.015625 272.6875 L 2.015625 299.550781 L 96.042969 299.550781 L 96.042969 272.6875 " fill-opacity="1" fill-rule="nonzero"/><path fill="#38b6ff" d="M 713.957031 299.550781 L 807.984375 299.550781 L 807.984375 272.6875 L 713.957031 272.6875 L 713.957031 299.550781 " fill-opacity="1" fill-rule="nonzero"/><path fill="#38b6ff" d="M 130.730469 428.949219 L 49.292969 475.964844 L 62.726562 499.261719 L 144.160156 452.246094 L 130.730469 428.949219 " fill-opacity="1" fill-rule="nonzero"/><path fill="#38b6ff" d="M 747.273438 72.976562 L 665.839844 119.992188 L 679.269531 143.289062 L 760.707031 96.277344 L 747.273438 72.976562 " fill-opacity="1" fill-rule="nonzero"/><path fill="#38b6ff" d="M 62.726562 72.976562 L 49.292969 96.277344 L 130.730469 143.289062 L 144.160156 119.992188 L 62.726562 72.976562 " fill-opacity="1" fill-rule="nonzero"/><path fill="#38b6ff" d="M 665.839844 452.246094 L 747.273438 499.261719 L 760.707031 475.964844 L 679.269531 428.949219 L 665.839844 452.246094 " fill-opacity="1" fill-rule="nonzero"/></svg>