<svg xmlns="http://www.w3.org/2000/svg" xmlns:xlink="http://www.w3.org/1999/xlink" width="1080" zoomAndPan="magnify" viewBox="0 0 810 809.999993" height="1080" preserveAspectRatio="xMidYMid meet" version="1.0"><defs><clipPath id="e3126bc2df"><path d="M 405 0 C 181.324219 0 0 181.324219 0 405 C 0 628.675781 181.324219 810 405 810 C 628.675781 810 810 628.675781 810 405 C 810 181.324219 628.675781 0 405 0 Z M 405 0 " clip-rule="nonzero"/></clipPath><clipPath id="e3fcd1f10a"><path d="M 205.265625 255.390625 L 604.265625 255.390625 L 604.265625 554.640625 L 205.265625 554.640625 Z M 205.265625 255.390625 " clip-rule="nonzero"/></clipPath></defs><g clip-path="url(#e3126bc2df)"><rect x="-81" width="972" fill="#f5f5f7" y="-80.999999" height="971.999992" fill-opacity="1"/></g><g clip-path="url(#e3fcd1f10a)"><path fill="#bcbcbb" d="M 604.207031 255.394531 L 604.207031 510.988281 C 604.207031 535.863281 586 554.601562 563.242188 554.601562 L 259.464844 554.601562 C 221.886719 554.601562 205.265625 538.507812 205.265625 490.878906 L 205.265625 307.265625 L 257.875 307.265625 L 257.875 255.402344 L 604.195312 255.402344 Z M 257.886719 332.359375 L 230.367188 332.359375 L 230.367188 490.875 C 230.367188 515.21875 236.191406 526.863281 243.597656 526.863281 C 252.597656 526.863281 257.886719 515.21875 257.886719 490.875 Z M 579.121094 280.492188 L 282.976562 280.492188 L 282.976562 490.867188 C 282.976562 507.804688 279.800781 519.976562 275.035156 529.503906 L 563.253906 529.503906 C 572.777344 529.503906 579.128906 518.386719 579.128906 510.980469 Z M 399.183594 384.523438 L 325.738281 384.523438 L 325.738281 375 L 399.183594 375 Z M 399.183594 415.75 L 325.738281 415.75 L 325.738281 406.222656 L 399.183594 406.222656 Z M 399.183594 445.914062 L 325.738281 445.914062 L 325.738281 436.386719 L 399.183594 436.386719 Z M 399.183594 475.019531 L 325.738281 475.019531 L 325.738281 465.496094 L 399.183594 465.496094 Z M 342.03125 325.78125 L 518.261719 325.78125 L 518.261719 343.429688 L 342.03125 343.429688 Z M 425.644531 374.996094 L 538.367188 374.996094 L 538.367188 465.007812 L 425.644531 465.007812 Z M 425.644531 374.996094 " fill-opacity="1" fill-rule="nonzero"/></g></svg>