<svg xmlns="http://www.w3.org/2000/svg" xmlns:xlink="http://www.w3.org/1999/xlink" width="1080" zoomAndPan="magnify" viewBox="0 0 810 809.999993" height="1080" preserveAspectRatio="xMidYMid meet" version="1.0"><defs><clipPath id="abab054ce5"><path d="M 405 0 C 181.324219 0 0 181.324219 0 405 C 0 628.675781 181.324219 810 405 810 C 628.675781 810 810 628.675781 810 405 C 810 181.324219 628.675781 0 405 0 Z M 405 0 " clip-rule="nonzero"/></clipPath><clipPath id="423bc2ebff"><path d="M 273.375 205.960938 L 537.144531 205.960938 L 537.144531 604.054688 L 273.375 604.054688 Z M 273.375 205.960938 " clip-rule="nonzero"/></clipPath></defs><g clip-path="url(#abab054ce5)"><rect x="-81" width="972" fill="#f5f5f7" y="-80.999999" height="971.999992" fill-opacity="1"/></g><g clip-path="url(#423bc2ebff)"><path fill="#bcbcbb" d="M 537.144531 472.171875 C 537.144531 545.003906 478.097656 604.054688 405.257812 604.054688 C 332.421875 604.054688 273.375 545.003906 273.375 472.171875 C 273.375 399.332031 405.257812 205.960938 405.257812 205.960938 C 405.257812 298.902344 537.144531 399.332031 537.144531 472.171875 " fill-opacity="1" fill-rule="nonzero"/></g></svg>