<svg xmlns="http://www.w3.org/2000/svg" xmlns:xlink="http://www.w3.org/1999/xlink" width="1080" zoomAndPan="magnify" viewBox="0 0 810 809.999993" height="1080" preserveAspectRatio="xMidYMid meet" version="1.0"><defs><g/><clipPath id="c95c6b006b"><path d="M 405 0 C 181.324219 0 0 181.324219 0 405 C 0 628.675781 181.324219 810 405 810 C 628.675781 810 810 628.675781 810 405 C 810 181.324219 628.675781 0 405 0 Z M 405 0 " clip-rule="nonzero"/></clipPath></defs><g clip-path="url(#c95c6b006b)"><rect x="-81" width="972" fill="#f5f5f7" y="-80.999999" height="971.999992" fill-opacity="1"/></g><g fill="#bcbcbb" fill-opacity="1"><g transform="translate(241.887999, 598.839596)"><g><path d="M 313.234375 -198.484375 L 197.875 -198.484375 L 197.875 -85.59375 L 158.796875 -85.59375 L 158.796875 -198.484375 L 43.421875 -198.484375 L 43.421875 -235.09375 L 158.796875 -235.09375 L 158.796875 -348.59375 L 197.875 -348.59375 L 197.875 -235.09375 L 313.234375 -235.09375 Z M 313.234375 -198.484375 "/></g></g></g></svg>