<svg xmlns="http://www.w3.org/2000/svg" xmlns:xlink="http://www.w3.org/1999/xlink" width="1080" zoomAndPan="magnify" viewBox="0 0 810 809.999993" height="1080" preserveAspectRatio="xMidYMid meet" version="1.0"><defs><clipPath id="8b4f517370"><path d="M 21.75 0 L 738 0 L 738 810 L 21.75 810 Z M 21.75 0 " clip-rule="nonzero"/></clipPath></defs><g clip-path="url(#8b4f517370)"><path fill="#a6a6a6" d="M 97.519531 665.664062 C 97.519531 665.664062 81.015625 656.976562 62.125 667.230469 C 62.125 667.230469 80.863281 653.082031 98.464844 656.117188 C 98.464844 656.117188 90.019531 633.160156 53.414062 629.6875 C 53.414062 629.6875 83.808594 620.722656 106.824219 637.703125 C 106.824219 637.703125 70.65625 579.03125 82.167969 532.769531 C 82.167969 532.769531 94.730469 556.605469 115.765625 560.785156 C 115.765625 560.785156 89.265625 511.171875 100.5625 481.808594 C 111.863281 452.441406 174.402344 409.253906 174.402344 409.253906 C 174.402344 409.253906 178.519531 441.148438 208.347656 471.003906 C 208.347656 471.003906 191.949219 426.839844 196.167969 393 C 200.386719 359.15625 316.3125 323.785156 316.3125 323.785156 C 316.3125 323.785156 317.132812 363.785156 343.890625 381.820312 C 343.890625 381.820312 332.527344 321.582031 351.171875 312.039062 C 369.8125 302.5 488.375 258.671875 509.816406 220.074219 L 515.824219 280.484375 C 515.824219 280.484375 513.042969 239.832031 539.675781 215.339844 C 566.3125 190.84375 634.753906 154.570312 640.546875 107.96875 L 650.039062 155.738281 L 654.527344 102.394531 C 654.527344 102.394531 722.117188 54.386719 709.753906 0 C 709.753906 0 766.953125 73.085938 715.628906 217.957031 L 626.59375 256.804688 L 701.335938 240.988281 C 701.335938 240.988281 655.964844 342.402344 513.464844 353.6875 C 513.464844 353.6875 544.09375 361.375 605.265625 342.59375 C 605.265625 342.59375 553.835938 459.347656 369.019531 469.285156 L 462.789062 473.257812 C 462.789062 473.257812 394.867188 600.46875 239.699219 574.957031 C 239.699219 574.957031 273.910156 599.628906 312.601562 593.046875 C 312.601562 593.046875 263.988281 652.34375 170.601562 623.636719 C 170.601562 623.636719 185.542969 628.546875 187.351562 646.710938 C 187.351562 646.710938 170.003906 627.1875 151.335938 632.480469 C 151.335938 632.480469 165.386719 640.34375 160.972656 660.269531 C 160.972656 660.269531 156.386719 642.753906 137.246094 643.351562 L 21.816406 810 C 21.816406 810 26.429688 784.910156 36.476562 766.765625 C 46.523438 748.625 132.597656 608.480469 268.21875 504.265625 C 403.84375 400.046875 551.679688 323.273438 584.050781 257.949219 C 584.050781 257.949219 527.6875 320.371094 414.296875 385.992188 C 300.90625 451.609375 156.707031 567.804688 97.519531 665.664062 " fill-opacity="1" fill-rule="nonzero"/></g></svg>