<svg xmlns="http://www.w3.org/2000/svg" xmlns:xlink="http://www.w3.org/1999/xlink" width="1080" zoomAndPan="magnify" viewBox="0 0 810 809.999993" height="1080" preserveAspectRatio="xMidYMid meet" version="1.0"><defs><clipPath id="606f0d8368"><path d="M 488 491 L 796 491 L 796 799.5 L 488 799.5 Z M 488 491 " clip-rule="nonzero"/></clipPath></defs><path fill="#a6a6a6" d="M 330.101562 638.25 C 323.859375 638.25 317.621094 638.0625 311.394531 637.683594 C 305.164062 637.304688 298.949219 636.734375 292.757812 635.972656 C 286.5625 635.210938 280.394531 634.261719 274.257812 633.121094 C 268.125 631.980469 262.027344 630.652344 255.972656 629.140625 C 249.917969 627.625 243.914062 625.925781 237.964844 624.042969 C 232.015625 622.160156 226.125 620.097656 220.300781 617.855469 C 214.480469 615.609375 208.730469 613.1875 203.054688 610.59375 C 197.378906 607.996094 191.789062 605.226562 186.28125 602.285156 C 180.777344 599.34375 175.367188 596.238281 170.050781 592.964844 C 164.738281 589.695312 159.527344 586.261719 154.425781 582.667969 C 149.320312 579.078125 144.332031 575.332031 139.457031 571.433594 C 134.585938 567.535156 129.835938 563.488281 125.207031 559.300781 C 120.582031 555.109375 116.089844 550.78125 111.730469 546.316406 C 107.371094 541.847656 103.152344 537.253906 99.074219 532.527344 C 94.996094 527.804688 91.066406 522.957031 87.289062 517.992188 C 83.507812 513.023438 79.882812 507.945312 76.414062 502.757812 C 72.945312 497.570312 69.640625 492.277344 66.496094 486.886719 C 63.351562 481.496094 60.378906 476.011719 57.570312 470.4375 C 54.765625 464.863281 52.128906 459.207031 49.671875 453.472656 C 47.210938 447.734375 44.929688 441.929688 42.828125 436.050781 C 40.722656 430.175781 38.800781 424.242188 37.0625 418.246094 C 35.324219 412.253906 33.769531 406.210938 32.402344 400.121094 C 31.035156 394.03125 29.855469 387.90625 28.863281 381.742188 C 27.871094 375.582031 27.070312 369.394531 26.457031 363.183594 C 25.847656 356.972656 25.425781 350.746094 25.195312 344.511719 C 24.964844 338.273438 24.925781 332.035156 25.082031 325.796875 C 25.234375 319.554688 25.578125 313.328125 26.113281 307.109375 C 26.648438 300.890625 27.375 294.695312 28.292969 288.519531 C 29.207031 282.347656 30.3125 276.207031 31.605469 270.101562 C 32.898438 263.996094 34.378906 257.933594 36.042969 251.917969 C 37.707031 245.90625 39.554688 239.945312 41.585938 234.042969 C 43.617188 228.144531 45.828125 222.308594 48.21875 216.542969 C 50.605469 210.777344 53.171875 205.089844 55.910156 199.480469 C 58.648438 193.871094 61.554688 188.355469 64.632812 182.921875 C 67.710938 177.492188 70.949219 172.164062 74.355469 166.933594 C 77.757812 161.699219 81.320312 156.578125 85.039062 151.566406 C 88.757812 146.554688 92.628906 141.660156 96.648438 136.886719 C 100.667969 132.113281 104.828125 127.464844 109.132812 122.945312 C 113.4375 118.425781 117.878906 114.042969 122.453125 109.796875 C 127.027344 105.550781 131.726562 101.445312 136.550781 97.488281 C 141.375 93.53125 146.320312 89.722656 151.378906 86.070312 C 156.4375 82.414062 161.605469 78.917969 166.878906 75.582031 C 172.152344 72.242188 177.523438 69.070312 182.992188 66.0625 C 188.460938 63.054688 194.019531 60.21875 199.660156 57.550781 C 205.304688 54.886719 211.023438 52.394531 216.820312 50.078125 C 222.617188 47.765625 228.476562 45.628906 234.40625 43.671875 C 240.332031 41.71875 246.3125 39.945312 252.347656 38.359375 C 258.386719 36.769531 264.464844 35.367188 270.585938 34.152344 C 276.707031 32.9375 282.859375 31.910156 289.046875 31.074219 C 295.230469 30.238281 301.4375 29.589844 307.660156 29.132812 C 313.886719 28.679688 320.117188 28.414062 326.359375 28.339844 C 332.601562 28.265625 338.835938 28.382812 345.070312 28.691406 C 351.304688 29.003906 357.523438 29.503906 363.726562 30.195312 C 369.929688 30.886719 376.105469 31.765625 382.253906 32.835938 C 388.402344 33.90625 394.511719 35.164062 400.585938 36.609375 C 406.65625 38.054688 412.675781 39.6875 418.648438 41.5 C 424.621094 43.316406 430.53125 45.3125 436.378906 47.492188 C 442.230469 49.667969 448.003906 52.023438 453.710938 54.558594 C 459.414062 57.089844 465.035156 59.796875 470.574219 62.671875 C 476.113281 65.550781 481.558594 68.597656 486.90625 71.808594 C 492.257812 75.019531 497.507812 78.394531 502.652344 81.929688 C 507.796875 85.460938 512.828125 89.152344 517.746094 92.996094 C 522.660156 96.835938 527.457031 100.828125 532.128906 104.964844 C 536.800781 109.101562 541.34375 113.378906 545.753906 117.796875 C 548.402344 120.441406 551 123.136719 553.550781 125.875 C 556.101562 128.617188 558.597656 131.402344 561.042969 134.238281 C 563.492188 137.070312 565.882812 139.949219 568.222656 142.867188 C 570.566406 145.789062 572.851562 148.753906 575.082031 151.757812 C 577.3125 154.765625 579.488281 157.808594 581.609375 160.894531 C 583.726562 163.980469 585.789062 167.105469 587.792969 170.265625 C 589.796875 173.425781 591.742188 176.625 593.628906 179.855469 C 595.515625 183.089844 597.339844 186.355469 599.105469 189.65625 C 600.871094 192.957031 602.578125 196.289062 604.21875 199.652344 C 605.863281 203.015625 607.445312 206.410156 608.960938 209.832031 C 610.480469 213.25 611.933594 216.699219 613.324219 220.175781 C 614.71875 223.648438 616.042969 227.148438 617.304688 230.671875 C 618.566406 234.199219 619.765625 237.742188 620.894531 241.3125 C 622.027344 244.878906 623.09375 248.46875 624.09375 252.074219 C 625.09375 255.683594 626.023438 259.304688 626.890625 262.949219 C 627.757812 266.589844 628.554688 270.246094 629.285156 273.917969 C 630.015625 277.585938 630.679688 281.269531 631.277344 284.964844 C 631.871094 288.664062 632.398438 292.367188 632.859375 296.082031 C 633.316406 299.796875 633.707031 303.519531 634.027344 307.25 C 634.351562 310.976562 634.601562 314.710938 634.789062 318.449219 C 634.972656 322.1875 635.085938 325.929688 635.132812 329.671875 C 635.179688 333.414062 635.15625 337.15625 635.066406 340.898438 C 634.972656 344.640625 634.8125 348.382812 634.585938 352.117188 C 634.355469 355.851562 634.058594 359.585938 633.691406 363.308594 C 633.324219 367.035156 632.890625 370.75 632.386719 374.460938 C 631.882812 378.167969 631.308594 381.867188 630.671875 385.554688 C 630.03125 389.246094 629.324219 392.917969 628.546875 396.582031 C 627.773438 400.242188 626.929688 403.890625 626.019531 407.519531 C 625.109375 411.152344 624.132812 414.765625 623.089844 418.359375 C 622.046875 421.953125 620.941406 425.53125 619.765625 429.082031 C 618.589844 432.636719 617.351562 436.167969 616.046875 439.675781 C 614.742188 443.1875 613.375 446.667969 611.941406 450.128906 C 610.507812 453.585938 609.011719 457.015625 607.453125 460.417969 C 605.894531 463.820312 604.273438 467.195312 602.589844 470.539062 C 600.90625 473.882812 599.160156 477.191406 597.355469 480.472656 C 595.550781 483.75 593.683594 486.996094 591.757812 490.203125 C 589.835938 493.414062 587.851562 496.589844 585.808594 499.726562 C 583.765625 502.863281 581.667969 505.960938 579.511719 509.019531 C 577.355469 512.082031 575.144531 515.101562 572.875 518.078125 C 570.609375 521.054688 568.289062 523.992188 565.910156 526.886719 C 563.535156 529.777344 561.109375 532.625 558.628906 535.429688 C 556.148438 538.234375 553.617188 540.988281 551.035156 543.699219 C 548.453125 546.410156 545.820312 549.070312 543.140625 551.683594 C 540.460938 554.296875 537.734375 556.859375 534.960938 559.371094 C 532.183594 561.886719 529.363281 564.347656 526.5 566.753906 C 523.632812 569.164062 520.726562 571.519531 517.773438 573.820312 C 514.820312 576.121094 511.828125 578.367188 508.792969 580.558594 C 505.757812 582.75 502.683594 584.886719 499.570312 586.964844 C 496.457031 589.042969 493.308594 591.0625 490.121094 593.023438 C 486.933594 594.984375 483.710938 596.886719 480.453125 598.730469 C 477.195312 600.574219 473.902344 602.359375 470.578125 604.078125 C 467.257812 605.800781 463.902344 607.460938 460.519531 609.058594 C 457.132812 610.660156 453.71875 612.195312 450.277344 613.667969 C 446.835938 615.140625 443.371094 616.546875 439.875 617.894531 C 436.382812 619.238281 432.867188 620.519531 429.328125 621.734375 C 425.785156 622.949219 422.226562 624.097656 418.640625 625.183594 C 415.058594 626.269531 411.457031 627.285156 407.835938 628.238281 C 404.21875 629.1875 400.582031 630.074219 396.929688 630.890625 C 393.273438 631.707031 389.609375 632.457031 385.929688 633.140625 C 382.246094 633.824219 378.554688 634.4375 374.851562 634.984375 C 371.148438 635.53125 367.4375 636.007812 363.71875 636.417969 C 359.996094 636.828125 356.269531 637.167969 352.535156 637.441406 C 348.804688 637.714844 345.066406 637.917969 341.324219 638.050781 C 337.585938 638.1875 333.84375 638.253906 330.101562 638.25 Z M 330.101562 95.511719 C 325.554688 95.5 321.011719 95.621094 316.472656 95.871094 C 311.933594 96.121094 307.40625 96.5 302.886719 97.011719 C 298.371094 97.519531 293.871094 98.160156 289.390625 98.925781 C 284.910156 99.695312 280.453125 100.589844 276.023438 101.613281 C 271.597656 102.636719 267.199219 103.785156 262.835938 105.058594 C 258.472656 106.335938 254.148438 107.734375 249.863281 109.257812 C 245.582031 110.777344 241.34375 112.421875 237.15625 114.1875 C 232.96875 115.953125 228.832031 117.839844 224.75 119.839844 C 220.667969 121.84375 216.648438 123.960938 212.691406 126.195312 C 208.730469 128.425781 204.835938 130.769531 201.011719 133.226562 C 197.1875 135.683594 193.433594 138.246094 189.757812 140.917969 C 186.078125 143.589844 182.480469 146.363281 178.960938 149.242188 C 175.441406 152.117188 172.003906 155.09375 168.65625 158.167969 C 165.308594 161.242188 162.050781 164.410156 158.882812 167.671875 C 155.714844 170.933594 152.644531 174.28125 149.667969 177.71875 C 146.691406 181.15625 143.820312 184.675781 141.042969 188.277344 C 138.269531 191.878906 135.601562 195.558594 133.039062 199.3125 C 130.476562 203.066406 128.023438 206.890625 125.679688 210.789062 C 123.335938 214.683594 121.105469 218.640625 118.992188 222.664062 C 116.875 226.6875 114.875 230.769531 112.992188 234.90625 C 111.109375 239.042969 109.347656 243.234375 107.703125 247.472656 C 106.058594 251.710938 104.539062 255.992188 103.144531 260.320312 C 101.746094 264.644531 100.472656 269.007812 99.328125 273.40625 C 98.179688 277.804688 97.160156 282.234375 96.265625 286.691406 C 95.371094 291.148438 94.609375 295.628906 93.972656 300.128906 C 93.335938 304.628906 92.828125 309.144531 92.449219 313.675781 C 92.070312 318.207031 91.824219 322.742188 91.707031 327.289062 C 91.589844 331.832031 91.601562 336.375 91.742188 340.921875 C 91.886719 345.464844 92.160156 350 92.5625 354.527344 C 92.964844 359.054688 93.496094 363.570312 94.15625 368.066406 C 94.820312 372.566406 95.609375 377.039062 96.527344 381.492188 C 97.445312 385.945312 98.488281 390.367188 99.660156 394.757812 C 100.832031 399.152344 102.128906 403.507812 103.546875 407.824219 C 104.96875 412.144531 106.511719 416.417969 108.179688 420.648438 C 109.84375 424.878906 111.628906 429.054688 113.535156 433.183594 C 115.441406 437.308594 117.464844 441.378906 119.601562 445.390625 C 121.742188 449.402344 123.992188 453.351562 126.359375 457.230469 C 128.722656 461.113281 131.195312 464.925781 133.78125 468.667969 C 136.363281 472.40625 139.050781 476.070312 141.84375 479.65625 C 144.640625 483.242188 147.53125 486.746094 150.527344 490.167969 C 153.519531 493.589844 156.609375 496.921875 159.796875 500.164062 C 162.980469 503.40625 166.257812 506.558594 169.621094 509.613281 C 172.988281 512.667969 176.4375 515.625 179.972656 518.484375 C 183.507812 521.34375 187.125 524.097656 190.816406 526.746094 C 194.507812 529.398438 198.273438 531.941406 202.113281 534.378906 C 205.953125 536.8125 209.859375 539.136719 213.832031 541.347656 C 217.800781 543.558594 221.835938 545.652344 225.925781 547.632812 C 230.019531 549.613281 234.164062 551.476562 238.363281 553.21875 C 242.5625 554.960938 246.808594 556.582031 251.097656 558.078125 C 255.390625 559.578125 259.722656 560.953125 264.09375 562.203125 C 268.460938 563.457031 272.863281 564.582031 277.300781 565.578125 C 281.734375 566.578125 286.195312 567.449219 290.679688 568.191406 C 295.164062 568.933594 299.667969 569.546875 304.1875 570.03125 C 308.707031 570.519531 313.238281 570.875 317.777344 571.097656 C 322.320312 571.324219 326.863281 571.417969 331.40625 571.382812 C 335.953125 571.347656 340.496094 571.183594 345.03125 570.886719 C 349.566406 570.59375 354.089844 570.167969 358.605469 569.613281 C 363.117188 569.058594 367.609375 568.375 372.082031 567.5625 C 376.554688 566.75 381 565.808594 385.417969 564.742188 C 389.835938 563.675781 394.222656 562.484375 398.574219 561.164062 C 402.921875 559.84375 407.234375 558.402344 411.5 556.839844 C 415.769531 555.273438 419.988281 553.585938 424.160156 551.777344 C 428.332031 549.972656 432.449219 548.046875 436.507812 546.003906 C 440.570312 543.960938 444.570312 541.800781 448.503906 539.53125 C 452.441406 537.257812 456.3125 534.875 460.113281 532.378906 C 463.914062 529.886719 467.640625 527.285156 471.292969 524.578125 C 474.941406 521.871094 478.515625 519.058594 482.003906 516.148438 C 485.496094 513.234375 488.898438 510.222656 492.21875 507.117188 C 495.535156 504.007812 498.761719 500.808594 501.894531 497.515625 C 505.03125 494.222656 508.070312 490.84375 511.007812 487.378906 C 513.949219 483.910156 516.789062 480.363281 519.527344 476.734375 C 522.265625 473.105469 524.894531 469.398438 527.421875 465.621094 C 529.945312 461.839844 532.359375 457.992188 534.664062 454.070312 C 536.96875 450.152344 539.160156 446.171875 541.238281 442.128906 C 543.3125 438.082031 545.273438 433.984375 547.113281 429.828125 C 548.953125 425.671875 550.675781 421.464844 552.277344 417.210938 C 553.875 412.953125 555.355469 408.65625 556.707031 404.316406 C 558.0625 399.976562 559.289062 395.601562 560.394531 391.191406 C 561.496094 386.78125 562.472656 382.34375 563.320312 377.878906 C 564.171875 373.414062 564.890625 368.925781 565.480469 364.417969 C 566.074219 359.910156 566.535156 355.390625 566.867188 350.855469 C 567.199219 346.324219 567.402344 341.785156 567.476562 337.238281 C 567.546875 332.691406 567.492188 328.148438 567.300781 323.605469 C 567.113281 319.066406 566.796875 314.53125 566.347656 310.007812 C 565.902344 305.484375 565.324219 300.976562 564.617188 296.484375 C 563.910156 291.996094 563.078125 287.527344 562.113281 283.085938 C 561.152344 278.640625 560.0625 274.230469 558.847656 269.851562 C 557.632812 265.46875 556.292969 261.128906 554.828125 256.824219 C 553.367188 252.519531 551.78125 248.261719 550.070312 244.046875 C 548.363281 239.835938 546.535156 235.675781 544.589844 231.566406 C 542.644531 227.457031 540.582031 223.410156 538.402344 219.417969 C 536.222656 215.429688 533.933594 211.503906 531.527344 207.644531 C 529.125 203.789062 526.613281 200 523.992188 196.285156 C 521.371094 192.570312 518.648438 188.933594 515.816406 185.375 C 512.988281 181.820312 510.058594 178.34375 507.03125 174.953125 C 504.003906 171.5625 500.878906 168.261719 497.664062 165.050781 C 492.175781 159.558594 486.433594 154.351562 480.433594 149.421875 C 474.433594 144.496094 468.207031 139.875 461.757812 135.558594 C 455.304688 131.242188 448.65625 127.253906 441.8125 123.589844 C 434.96875 119.929688 427.960938 116.609375 420.789062 113.632812 C 413.621094 110.65625 406.320312 108.039062 398.894531 105.78125 C 391.46875 103.523438 383.949219 101.632812 376.335938 100.109375 C 368.722656 98.589844 361.054688 97.445312 353.332031 96.675781 C 345.605469 95.90625 337.863281 95.519531 330.101562 95.511719 Z M 330.101562 95.511719 " fill-opacity="1" fill-rule="nonzero"/><g clip-path="url(#606f0d8368)"><path fill="#a6a6a6" d="M 762.414062 799.277344 C 760.214844 799.269531 758.042969 799.042969 755.886719 798.609375 C 753.734375 798.171875 751.644531 797.527344 749.617188 796.679688 C 747.589844 795.832031 745.667969 794.792969 743.84375 793.566406 C 742.023438 792.339844 740.335938 790.949219 738.785156 789.390625 L 498.332031 549.105469 C 497.558594 548.328125 496.820312 547.515625 496.125 546.667969 C 495.425781 545.816406 494.773438 544.9375 494.164062 544.023438 C 493.554688 543.109375 492.988281 542.171875 492.472656 541.203125 C 491.953125 540.234375 491.484375 539.242188 491.066406 538.226562 C 490.644531 537.210938 490.273438 536.179688 489.957031 535.128906 C 489.636719 534.078125 489.371094 533.015625 489.15625 531.9375 C 488.941406 530.859375 488.78125 529.773438 488.675781 528.683594 C 488.566406 527.589844 488.511719 526.492188 488.511719 525.394531 C 488.511719 524.296875 488.566406 523.203125 488.675781 522.109375 C 488.78125 521.015625 488.941406 519.929688 489.15625 518.851562 C 489.371094 517.777344 489.636719 516.710938 489.957031 515.660156 C 490.273438 514.609375 490.644531 513.578125 491.066406 512.5625 C 491.484375 511.546875 491.953125 510.558594 492.472656 509.589844 C 492.988281 508.621094 493.554688 507.679688 494.164062 506.765625 C 494.773438 505.851562 495.425781 504.972656 496.125 504.121094 C 496.820312 503.273438 497.558594 502.460938 498.332031 501.683594 C 499.109375 500.910156 499.921875 500.171875 500.773438 499.476562 C 501.621094 498.777344 502.5 498.125 503.414062 497.515625 C 504.328125 496.90625 505.269531 496.339844 506.238281 495.824219 C 507.207031 495.304688 508.195312 494.835938 509.210938 494.417969 C 510.226562 493.996094 511.257812 493.625 512.308594 493.308594 C 513.359375 492.988281 514.425781 492.722656 515.503906 492.507812 C 516.578125 492.292969 517.664062 492.132812 518.757812 492.023438 C 519.851562 491.917969 520.945312 491.863281 522.042969 491.863281 C 523.140625 491.863281 524.238281 491.917969 525.332031 492.023438 C 526.421875 492.132812 527.507812 492.292969 528.585938 492.507812 C 529.664062 492.722656 530.726562 492.988281 531.777344 493.308594 C 532.828125 493.625 533.859375 493.996094 534.875 494.417969 C 535.890625 494.835938 536.882812 495.304688 537.851562 495.824219 C 538.820312 496.339844 539.757812 496.90625 540.671875 497.515625 C 541.585938 498.125 542.46875 498.777344 543.316406 499.476562 C 544.164062 500.171875 544.976562 500.910156 545.753906 501.683594 L 786.039062 742.136719 C 787.199219 743.304688 788.265625 744.546875 789.242188 745.871094 C 790.214844 747.191406 791.089844 748.578125 791.859375 750.027344 C 792.632812 751.480469 793.292969 752.976562 793.84375 754.527344 C 794.394531 756.074219 794.832031 757.652344 795.148438 759.265625 C 795.46875 760.878906 795.667969 762.503906 795.746094 764.144531 C 795.824219 765.785156 795.785156 767.425781 795.625 769.058594 C 795.460938 770.695312 795.179688 772.308594 794.78125 773.902344 C 794.382812 775.496094 793.871094 777.050781 793.242188 778.570312 C 792.613281 780.089844 791.878906 781.554688 791.035156 782.964844 C 790.191406 784.375 789.25 785.714844 788.210938 786.984375 C 787.171875 788.257812 786.042969 789.445312 784.828125 790.550781 C 783.613281 791.65625 782.324219 792.667969 780.957031 793.585938 C 779.59375 794.5 778.171875 795.3125 776.6875 796.019531 C 775.203125 796.726562 773.675781 797.320312 772.105469 797.800781 C 770.535156 798.285156 768.9375 798.648438 767.3125 798.894531 C 765.691406 799.144531 764.054688 799.269531 762.414062 799.277344 Z M 762.414062 799.277344 " fill-opacity="1" fill-rule="nonzero"/></g></svg>