<svg xmlns="http://www.w3.org/2000/svg" xmlns:xlink="http://www.w3.org/1999/xlink" width="1080" zoomAndPan="magnify" viewBox="0 0 810 809.999993" height="1080" preserveAspectRatio="xMidYMid meet" version="1.0"><defs><clipPath id="addb7e670f"><path d="M 3 19 L 803 19 L 803 797.25 L 3 797.25 Z M 3 19 " clip-rule="nonzero"/></clipPath><clipPath id="d1adaf33f7"><path d="M 63 635 L 86 635 L 86 797.25 L 63 797.25 Z M 63 635 " clip-rule="nonzero"/></clipPath></defs><g clip-path="url(#addb7e670f)"><path fill="#38b6ff" d="M 500.871094 312.898438 C 499.992188 313.414062 499.203125 314.042969 498.53125 314.769531 C 476.027344 332.777344 448.9375 351.304688 416.289062 370.082031 C 399.136719 360.210938 383.523438 350.417969 369.296875 340.722656 C 368.808594 340.324219 368.296875 339.96875 367.738281 339.667969 C 333.382812 316.121094 307.246094 293.234375 287.449219 271.601562 C 286.746094 270.441406 285.835938 269.421875 284.726562 268.585938 C 236.039062 214.039062 227.507812 167.667969 228.597656 139.117188 C 230.097656 99.929688 251.429688 65.0625 282.953125 50.277344 C 296.859375 43.757812 310.289062 41.160156 322.863281 41.160156 C 370.972656 41.160156 406.542969 79.199219 408.394531 81.222656 C 410.417969 83.449219 413.28125 84.710938 416.273438 84.710938 C 416.28125 84.710938 416.289062 84.710938 416.289062 84.710938 C 419.277344 84.710938 422.136719 83.457031 424.164062 81.257812 C 426.515625 78.6875 482.5625 18.816406 549.636719 50.277344 C 581.152344 65.0625 602.492188 99.929688 603.988281 139.117188 C 605.097656 168.359375 596.132812 216.300781 544.234375 272.578125 C 543.195312 273.351562 542.308594 274.308594 541.609375 275.398438 C 530.148438 287.550781 516.675781 300.09375 500.871094 312.898438 Z M 460.070312 483.464844 C 487.414062 483.464844 509.660156 505.710938 509.660156 533.054688 C 509.660156 560.398438 487.414062 582.644531 460.070312 582.644531 C 454.253906 582.644531 448.671875 581.632812 443.476562 579.78125 C 440.28125 578.210938 437.027344 576.621094 433.640625 574.972656 C 419.730469 566.183594 410.480469 550.679688 410.480469 533.054688 C 410.480469 505.710938 432.726562 483.464844 460.070312 483.464844 Z M 35.28125 475.578125 C 35.28125 441.910156 62.671875 414.511719 96.351562 414.511719 C 130.027344 414.511719 157.425781 441.910156 157.425781 475.578125 C 157.425781 509.257812 130.027344 536.648438 96.351562 536.648438 C 62.671875 536.648438 35.28125 509.257812 35.28125 475.578125 Z M 709.921875 425.269531 C 741.070312 425.269531 766.410156 450.609375 766.410156 481.761719 C 766.410156 512.921875 741.070312 538.261719 709.921875 538.261719 C 678.761719 538.261719 653.421875 512.921875 653.421875 481.761719 C 653.421875 450.609375 678.761719 425.269531 709.921875 425.269531 Z M 743.050781 552.210938 C 769.464844 539.742188 787.789062 512.859375 787.789062 481.761719 C 787.789062 438.824219 752.859375 403.894531 709.921875 403.894531 C 667.0625 403.894531 632.195312 438.691406 632.054688 481.511719 C 594.738281 422.183594 570.914062 331.792969 562.082031 284.515625 C 617.152344 223.582031 626.582031 170.71875 625.339844 138.300781 C 623.539062 91.210938 597.390625 49.070312 558.710938 30.933594 C 492.746094 -0.00390625 436.503906 41.097656 416.316406 59.15625 C 396.171875 41.0625 340.089844 -0.113281 273.878906 30.933594 C 235.195312 49.070312 209.039062 91.210938 207.25 138.300781 C 206.035156 169.859375 214.9375 220.796875 266.222656 279.691406 C 237.761719 366.800781 211.894531 438.546875 178.289062 484.625 C 178.617188 481.65625 178.792969 478.640625 178.792969 475.578125 C 178.792969 430.121094 141.808594 393.144531 96.351562 393.144531 C 50.894531 393.144531 13.90625 430.121094 13.90625 475.578125 C 13.90625 508.902344 33.792969 537.648438 62.300781 550.632812 C 59.53125 551.742188 56.808594 552.886719 54.230469 554.085938 C 23.476562 568.257812 3.601562 599.683594 3.601562 634.132812 L 3.601562 786.601562 C 3.601562 792.511719 8.382812 797.292969 14.289062 797.292969 C 20.1875 797.292969 24.96875 792.511719 24.96875 786.601562 L 24.96875 634.132812 C 24.96875 607.996094 39.964844 584.1875 63.167969 573.492188 C 75.703125 567.707031 90.84375 562.925781 108.164062 559.28125 C 194.238281 541.152344 234.558594 444.199219 282.863281 297.539062 C 290.25 304.960938 298.324219 312.492188 307.148438 320.09375 C 274.941406 450.15625 237.601562 542.996094 204.535156 575.050781 C 202.460938 577.066406 201.289062 579.832031 201.289062 582.722656 L 201.289062 786.601562 C 201.289062 792.511719 206.078125 797.292969 211.976562 797.292969 C 217.875 797.292969 222.664062 792.511719 222.664062 786.601562 L 222.664062 587.105469 C 268.058594 539.007812 305.320312 414.367188 325.417969 335.101562 C 333.101562 341.125 341.261719 347.191406 349.933594 353.285156 C 333.339844 405.6875 304.796875 519.394531 336.304688 604.410156 L 336.304688 786.601562 C 336.304688 792.511719 341.082031 797.292969 346.980469 797.292969 C 352.890625 797.292969 357.667969 792.511719 357.667969 786.601562 L 357.667969 602.46875 C 357.667969 601.164062 357.4375 599.871094 356.96875 598.65625 C 327.503906 521.71875 354.09375 413.164062 368.445312 365.808594 C 378.957031 372.679688 390.125 379.582031 402.007812 386.5 C 386.210938 444.367188 362.609375 562.769531 423.023438 593.546875 C 426.78125 595.859375 430.773438 597.820312 434.953125 599.410156 C 497.421875 630.195312 509.660156 641.824219 509.660156 666.480469 L 509.660156 786.601562 C 509.660156 792.511719 514.441406 797.292969 520.339844 797.292969 C 526.246094 797.292969 531.027344 792.511719 531.027344 786.601562 L 531.027344 666.480469 C 531.027344 637.230469 517.066406 620.351562 482.652344 600.3125 C 510.734375 590.847656 531.027344 564.285156 531.027344 533.054688 C 531.027344 493.929688 499.203125 462.097656 460.070312 462.097656 C 438.25 462.097656 418.703125 472.003906 405.671875 487.554688 C 407.421875 457.421875 414.035156 423.308594 422.96875 390.875 C 452.363281 374.171875 477.589844 357.539062 499.238281 341.195312 C 508.828125 386.703125 537.992188 510.605469 584.226562 580 L 584.226562 786.601562 C 584.226562 792.511719 589.007812 797.292969 594.90625 797.292969 C 600.816406 797.292969 605.59375 792.511719 605.59375 786.601562 L 605.59375 576.730469 C 605.59375 574.566406 604.9375 572.453125 603.714844 570.671875 C 554.941406 499.75 524.347656 357.71875 518.023438 326.347656 C 527.488281 318.515625 536.144531 310.761719 544.066406 303.109375 C 557.308594 364.921875 603.972656 546.367188 697.671875 559.523438 C 701.09375 560.035156 781.480469 573.066406 781.480469 643.660156 L 781.480469 786.601562 C 781.480469 792.511719 786.261719 797.292969 792.160156 797.292969 C 798.066406 797.292969 802.847656 792.511719 802.847656 786.601562 L 802.847656 643.660156 C 802.847656 596.179688 773.269531 567.574219 743.050781 552.210938 " fill-opacity="1" fill-rule="nonzero"/></g><g clip-path="url(#d1adaf33f7)"><path fill="#38b6ff" d="M 74.371094 635.589844 C 68.464844 635.589844 63.683594 640.367188 63.683594 646.265625 L 63.683594 786.601562 C 63.683594 792.511719 68.464844 797.292969 74.371094 797.292969 C 80.269531 797.292969 85.050781 792.511719 85.050781 786.601562 L 85.050781 646.265625 C 85.050781 640.367188 80.269531 635.589844 74.371094 635.589844 " fill-opacity="1" fill-rule="nonzero"/></g></svg>