<svg xmlns="http://www.w3.org/2000/svg" xmlns:xlink="http://www.w3.org/1999/xlink" width="1080" zoomAndPan="magnify" viewBox="0 0 810 809.999993" height="1080" preserveAspectRatio="xMidYMid meet" version="1.0"><path fill="#38b6ff" d="M 788.257812 628.027344 L 591.921875 541.707031 L 591.921875 311.945312 L 788.257812 225.625 C 798.640625 221.242188 810 228.707031 810 239.902344 L 810 613.75 C 810 624.945312 798.640625 632.410156 788.257812 628.027344 Z M 560.769531 271.21875 L 560.769531 582.433594 C 560.769531 616.996094 533.023438 644.902344 498.460938 644.902344 L 62.308594 644.902344 C 27.910156 644.902344 0 616.996094 0 582.433594 L 0 271.21875 C 0 236.660156 27.746094 208.75 62.308594 208.75 L 498.460938 208.75 C 532.859375 208.75 560.769531 236.660156 560.769531 271.21875 Z M 560.769531 271.21875 " fill-opacity="1" fill-rule="evenodd"/></svg>