<svg xmlns="http://www.w3.org/2000/svg" xmlns:xlink="http://www.w3.org/1999/xlink" width="1080" zoomAndPan="magnify" viewBox="0 0 810 809.999993" height="1080" preserveAspectRatio="xMidYMid meet" version="1.0"><defs><clipPath id="4408f543cc"><path d="M 0 283 L 176 283 L 176 698.867188 L 0 698.867188 Z M 0 283 " clip-rule="nonzero"/></clipPath><clipPath id="a7b5340995"><path d="M 120 198 L 326 198 L 326 698.867188 L 120 698.867188 Z M 120 198 " clip-rule="nonzero"/></clipPath><clipPath id="b8a88f2e30"><path d="M 634 283 L 810 283 L 810 698.867188 L 634 698.867188 Z M 634 283 " clip-rule="nonzero"/></clipPath><clipPath id="37e682f0fc"><path d="M 484 198 L 690 198 L 690 698.867188 L 484 698.867188 Z M 484 198 " clip-rule="nonzero"/></clipPath><clipPath id="f32ad11a7c"><path d="M 268 111 L 541 111 L 541 698.867188 L 268 698.867188 Z M 268 111 " clip-rule="nonzero"/></clipPath></defs><g clip-path="url(#4408f543cc)"><path fill="#38b6ff" d="M 52.957031 422.355469 L 52.957031 679.398438 C 52.957031 690.324219 61.8125 699.171875 72.726562 699.171875 C 83.644531 699.171875 92.5 690.324219 92.5 679.398438 L 92.5 535.039062 L 99.910156 535.039062 L 99.910156 679.398438 C 99.910156 690.324219 108.765625 699.171875 119.683594 699.171875 C 130.601562 699.171875 139.453125 690.324219 139.453125 679.398438 L 139.453125 422.355469 C 145.816406 419.035156 154.523438 413.121094 163.0625 402.898438 C 167.375 397.75 171.5625 391.519531 175.378906 384.128906 L 175.378906 371.171875 C 170.457031 368.191406 164.648438 364.015625 158.605469 358.355469 C 154.222656 371.210938 148.664062 380.1875 143.425781 386.496094 C 137.894531 393.109375 132.566406 396.894531 128.804688 399.027344 C 127.144531 399.972656 125.804688 400.574219 124.886719 400.945312 L 67.53125 400.945312 C 64.15625 399.578125 54.957031 395.058594 45.929688 382.550781 C 35.886719 368.558594 25.621094 344.058594 25.589844 300.695312 C 25.585938 299.277344 25.597656 297.863281 25.621094 296.453125 C 25.746094 289.390625 20.121094 283.5625 13.054688 283.4375 C 5.988281 283.308594 0.164062 288.941406 0.0390625 296.003906 C 0.0078125 297.609375 0 299.171875 0 300.695312 C -0.0546875 352.8125 13.945312 384.515625 29.347656 402.898438 C 37.886719 413.121094 46.59375 419.035156 52.957031 422.355469 Z M 52.957031 422.355469 " fill-opacity="1" fill-rule="nonzero"/></g><path fill="#38b6ff" d="M 132.191406 355.851562 C 132.191406 357.03125 132.132812 358.207031 132.015625 359.378906 C 131.902344 360.550781 131.730469 361.71875 131.5 362.871094 C 131.269531 364.027344 130.984375 365.171875 130.640625 366.296875 C 130.296875 367.425781 129.902344 368.535156 129.449219 369.621094 C 129 370.710938 128.496094 371.777344 127.941406 372.816406 C 127.386719 373.855469 126.78125 374.863281 126.125 375.84375 C 125.472656 376.824219 124.769531 377.769531 124.023438 378.679688 C 123.273438 379.589844 122.484375 380.464844 121.652344 381.296875 C 120.816406 382.128906 119.945312 382.921875 119.035156 383.667969 C 118.125 384.414062 117.179688 385.117188 116.199219 385.769531 C 115.21875 386.425781 114.210938 387.03125 113.167969 387.585938 C 112.128906 388.140625 111.066406 388.644531 109.976562 389.097656 C 108.890625 389.546875 107.78125 389.945312 106.652344 390.285156 C 105.523438 390.628906 104.382812 390.914062 103.226562 391.144531 C 102.070312 391.375 100.90625 391.546875 99.734375 391.660156 C 98.5625 391.777344 97.386719 391.835938 96.207031 391.835938 C 95.03125 391.835938 93.855469 391.777344 92.679688 391.660156 C 91.507812 391.546875 90.34375 391.375 89.1875 391.144531 C 88.03125 390.914062 86.890625 390.628906 85.761719 390.285156 C 84.636719 389.945312 83.527344 389.546875 82.4375 389.097656 C 81.347656 388.644531 80.285156 388.140625 79.246094 387.585938 C 78.207031 387.03125 77.195312 386.425781 76.21875 385.769531 C 75.238281 385.117188 74.292969 384.414062 73.382812 383.667969 C 72.46875 382.921875 71.597656 382.128906 70.765625 381.296875 C 69.929688 380.464844 69.140625 379.589844 68.394531 378.679688 C 67.644531 377.769531 66.945312 376.824219 66.289062 375.84375 C 65.636719 374.863281 65.03125 373.855469 64.472656 372.816406 C 63.917969 371.777344 63.414062 370.710938 62.964844 369.621094 C 62.515625 368.535156 62.117188 367.425781 61.773438 366.296875 C 61.433594 365.171875 61.148438 364.027344 60.917969 362.871094 C 60.6875 361.71875 60.515625 360.550781 60.398438 359.378906 C 60.285156 358.207031 60.226562 357.03125 60.226562 355.851562 C 60.226562 354.675781 60.285156 353.5 60.398438 352.324219 C 60.515625 351.152344 60.6875 349.988281 60.917969 348.832031 C 61.148438 347.675781 61.433594 346.535156 61.773438 345.40625 C 62.117188 344.28125 62.515625 343.171875 62.964844 342.082031 C 63.414062 340.996094 63.917969 339.929688 64.472656 338.890625 C 65.03125 337.851562 65.636719 336.84375 66.289062 335.863281 C 66.945312 334.882812 67.644531 333.9375 68.394531 333.027344 C 69.140625 332.113281 69.929688 331.242188 70.765625 330.410156 C 71.597656 329.578125 72.46875 328.785156 73.382812 328.039062 C 74.292969 327.289062 75.238281 326.589844 76.21875 325.933594 C 77.195312 325.28125 78.207031 324.675781 79.246094 324.121094 C 80.285156 323.5625 81.347656 323.0625 82.4375 322.609375 C 83.527344 322.160156 84.636719 321.761719 85.761719 321.421875 C 86.890625 321.078125 88.03125 320.792969 89.1875 320.5625 C 90.34375 320.332031 91.507812 320.160156 92.679688 320.042969 C 93.855469 319.929688 95.03125 319.871094 96.207031 319.871094 C 97.386719 319.871094 98.5625 319.929688 99.734375 320.042969 C 100.90625 320.160156 102.070312 320.332031 103.226562 320.5625 C 104.382812 320.792969 105.523438 321.078125 106.652344 321.421875 C 107.78125 321.761719 108.890625 322.160156 109.976562 322.609375 C 111.066406 323.0625 112.128906 323.5625 113.167969 324.121094 C 114.210938 324.675781 115.21875 325.28125 116.199219 325.933594 C 117.179688 326.589844 118.125 327.289062 119.035156 328.039062 C 119.945312 328.785156 120.816406 329.578125 121.652344 330.410156 C 122.484375 331.242188 123.273438 332.113281 124.023438 333.027344 C 124.769531 333.9375 125.472656 334.882812 126.125 335.863281 C 126.78125 336.84375 127.386719 337.851562 127.941406 338.890625 C 128.496094 339.929688 129 340.996094 129.449219 342.082031 C 129.902344 343.171875 130.296875 344.28125 130.640625 345.40625 C 130.984375 346.535156 131.269531 347.675781 131.5 348.832031 C 131.730469 349.988281 131.902344 351.152344 132.015625 352.324219 C 132.132812 353.5 132.191406 354.675781 132.191406 355.851562 Z M 132.191406 355.851562 " fill-opacity="1" fill-rule="nonzero"/><g clip-path="url(#a7b5340995)"><path fill="#38b6ff" d="M 184.417969 365.898438 L 184.417969 675.367188 C 184.417969 688.519531 195.078125 699.167969 208.21875 699.167969 C 221.367188 699.167969 232.027344 688.519531 232.027344 675.367188 L 232.027344 501.558594 L 240.949219 501.558594 L 240.949219 675.367188 C 240.949219 688.519531 251.609375 699.167969 264.753906 699.167969 C 277.902344 699.167969 288.558594 688.519531 288.558594 675.367188 L 288.558594 365.898438 C 296.222656 361.898438 306.699219 354.78125 316.980469 342.472656 C 319.96875 338.90625 322.910156 334.921875 325.746094 330.484375 L 325.746094 317.824219 C 319.832031 313.949219 313.140625 308.777344 306.28125 302.074219 C 302.171875 310.777344 297.664062 317.511719 293.332031 322.722656 C 286.675781 330.683594 280.273438 335.242188 275.738281 337.8125 C 273.734375 338.949219 272.128906 339.671875 271.019531 340.121094 L 201.960938 340.121094 C 197.902344 338.472656 186.828125 333.035156 175.953125 317.976562 C 163.863281 301.128906 151.507812 271.628906 151.46875 219.425781 C 151.464844 217.71875 151.480469 216.015625 151.507812 214.320312 C 151.65625 205.8125 144.882812 198.796875 136.382812 198.648438 C 127.871094 198.496094 120.859375 205.273438 120.714844 213.78125 C 120.671875 215.707031 120.667969 217.589844 120.667969 219.425781 C 120.597656 282.171875 137.453125 320.34375 155.996094 342.472656 C 166.273438 354.78125 176.757812 361.902344 184.417969 365.898438 Z M 184.417969 365.898438 " fill-opacity="1" fill-rule="nonzero"/></g><path fill="#38b6ff" d="M 279.8125 285.828125 C 279.8125 287.25 279.742188 288.664062 279.601562 290.078125 C 279.464844 291.488281 279.257812 292.890625 278.980469 294.28125 C 278.703125 295.671875 278.359375 297.046875 277.945312 298.40625 C 277.535156 299.761719 277.058594 301.097656 276.515625 302.40625 C 275.972656 303.71875 275.363281 305 274.695312 306.25 C 274.027344 307.503906 273.300781 308.71875 272.511719 309.898438 C 271.722656 311.078125 270.878906 312.214844 269.976562 313.3125 C 269.078125 314.410156 268.125 315.460938 267.125 316.460938 C 266.121094 317.464844 265.070312 318.417969 263.972656 319.316406 C 262.875 320.21875 261.738281 321.0625 260.558594 321.851562 C 259.378906 322.636719 258.164062 323.367188 256.914062 324.035156 C 255.660156 324.703125 254.378906 325.308594 253.070312 325.851562 C 251.757812 326.394531 250.425781 326.875 249.066406 327.285156 C 247.707031 327.695312 246.335938 328.042969 244.941406 328.316406 C 243.550781 328.59375 242.148438 328.804688 240.738281 328.941406 C 239.324219 329.082031 237.910156 329.152344 236.492188 329.152344 C 235.074219 329.152344 233.65625 329.082031 232.246094 328.941406 C 230.832031 328.804688 229.429688 328.59375 228.039062 328.316406 C 226.648438 328.042969 225.273438 327.695312 223.914062 327.285156 C 222.558594 326.875 221.222656 326.394531 219.914062 325.851562 C 218.601562 325.308594 217.320312 324.703125 216.070312 324.035156 C 214.820312 323.367188 213.601562 322.636719 212.421875 321.851562 C 211.242188 321.0625 210.105469 320.21875 209.007812 319.316406 C 207.910156 318.417969 206.863281 317.464844 205.859375 316.460938 C 204.855469 315.460938 203.902344 314.410156 203.003906 313.3125 C 202.105469 312.214844 201.257812 311.078125 200.472656 309.898438 C 199.683594 308.71875 198.953125 307.503906 198.285156 306.25 C 197.617188 305 197.011719 303.71875 196.46875 302.40625 C 195.925781 301.097656 195.449219 299.761719 195.035156 298.40625 C 194.625 297.046875 194.28125 295.671875 194.003906 294.28125 C 193.726562 292.890625 193.519531 291.488281 193.378906 290.078125 C 193.238281 288.664062 193.171875 287.25 193.171875 285.828125 C 193.171875 284.410156 193.238281 282.996094 193.378906 281.582031 C 193.519531 280.171875 193.726562 278.769531 194.003906 277.378906 C 194.28125 275.988281 194.625 274.613281 195.035156 273.253906 C 195.449219 271.898438 195.925781 270.5625 196.46875 269.253906 C 197.011719 267.941406 197.617188 266.660156 198.285156 265.410156 C 198.953125 264.15625 199.683594 262.941406 200.472656 261.761719 C 201.257812 260.582031 202.105469 259.445312 203.003906 258.347656 C 203.902344 257.25 204.855469 256.199219 205.859375 255.199219 C 206.863281 254.195312 207.910156 253.242188 209.007812 252.34375 C 210.105469 251.441406 211.242188 250.597656 212.421875 249.808594 C 213.601562 249.023438 214.820312 248.292969 216.070312 247.625 C 217.320312 246.957031 218.601562 246.351562 219.914062 245.808594 C 221.222656 245.265625 222.558594 244.785156 223.914062 244.375 C 225.273438 243.964844 226.648438 243.617188 228.039062 243.34375 C 229.429688 243.066406 230.832031 242.855469 232.246094 242.71875 C 233.65625 242.578125 235.074219 242.507812 236.492188 242.507812 C 237.910156 242.507812 239.324219 242.578125 240.738281 242.71875 C 242.148438 242.855469 243.550781 243.066406 244.941406 243.34375 C 246.335938 243.617188 247.707031 243.964844 249.066406 244.375 C 250.425781 244.785156 251.757812 245.265625 253.070312 245.808594 C 254.378906 246.351562 255.660156 246.957031 256.914062 247.625 C 258.164062 248.292969 259.378906 249.023438 260.558594 249.808594 C 261.738281 250.597656 262.875 251.441406 263.972656 252.34375 C 265.070312 253.242188 266.121094 254.195312 267.125 255.199219 C 268.125 256.199219 269.078125 257.25 269.976562 258.347656 C 270.878906 259.445312 271.722656 260.582031 272.511719 261.761719 C 273.300781 262.941406 274.027344 264.15625 274.695312 265.410156 C 275.363281 266.660156 275.972656 267.941406 276.515625 269.253906 C 277.058594 270.5625 277.535156 271.898438 277.945312 273.253906 C 278.359375 274.613281 278.703125 275.988281 278.980469 277.378906 C 279.257812 278.769531 279.464844 280.171875 279.601562 281.582031 C 279.742188 282.996094 279.8125 284.410156 279.8125 285.828125 Z M 279.8125 285.828125 " fill-opacity="1" fill-rule="nonzero"/><g clip-path="url(#b8a88f2e30)"><path fill="#38b6ff" d="M 685.011719 400.949219 C 684.09375 400.574219 682.757812 399.976562 681.097656 399.03125 C 677.332031 396.894531 672.007812 393.113281 666.476562 386.496094 C 661.238281 380.1875 655.683594 371.214844 651.296875 358.363281 C 645.253906 364.015625 639.445312 368.195312 634.527344 371.171875 L 634.527344 384.140625 C 638.34375 391.527344 642.527344 397.757812 646.839844 402.898438 C 655.375 413.121094 664.082031 419.035156 670.445312 422.355469 L 670.445312 679.402344 C 670.445312 690.324219 679.296875 699.175781 690.21875 699.175781 C 701.132812 699.175781 709.988281 690.324219 709.988281 679.402344 L 709.988281 535.039062 L 717.402344 535.039062 L 717.402344 679.402344 C 717.402344 690.324219 726.257812 699.175781 737.171875 699.175781 C 748.089844 699.175781 756.945312 690.324219 756.945312 679.402344 L 756.945312 422.355469 C 763.304688 419.035156 772.015625 413.121094 780.550781 402.898438 C 795.953125 384.515625 809.957031 352.8125 809.898438 300.695312 C 809.898438 299.171875 809.890625 297.605469 809.855469 296.007812 C 809.734375 288.941406 803.90625 283.3125 796.84375 283.4375 C 789.773438 283.5625 784.152344 289.390625 784.277344 296.457031 C 784.296875 297.863281 784.308594 299.28125 784.304688 300.695312 C 784.277344 344.058594 774.011719 368.558594 763.96875 382.554688 C 754.9375 395.0625 745.742188 399.582031 742.367188 400.949219 Z M 685.011719 400.949219 " fill-opacity="1" fill-rule="nonzero"/></g><path fill="#38b6ff" d="M 749.675781 355.851562 C 749.675781 357.03125 749.617188 358.207031 749.5 359.378906 C 749.386719 360.550781 749.214844 361.71875 748.984375 362.871094 C 748.753906 364.027344 748.46875 365.171875 748.125 366.296875 C 747.785156 367.425781 747.386719 368.535156 746.9375 369.621094 C 746.484375 370.710938 745.980469 371.777344 745.425781 372.816406 C 744.871094 373.855469 744.265625 374.863281 743.609375 375.84375 C 742.957031 376.824219 742.253906 377.769531 741.507812 378.679688 C 740.757812 379.589844 739.96875 380.464844 739.136719 381.296875 C 738.300781 382.128906 737.429688 382.921875 736.519531 383.667969 C 735.609375 384.414062 734.664062 385.117188 733.683594 385.769531 C 732.703125 386.425781 731.695312 387.03125 730.65625 387.585938 C 729.613281 388.140625 728.550781 388.644531 727.460938 389.097656 C 726.375 389.546875 725.265625 389.945312 724.136719 390.285156 C 723.011719 390.628906 721.867188 390.914062 720.710938 391.144531 C 719.558594 391.375 718.390625 391.546875 717.21875 391.660156 C 716.046875 391.777344 714.871094 391.835938 713.691406 391.835938 C 712.515625 391.835938 711.339844 391.777344 710.164062 391.660156 C 708.992188 391.546875 707.828125 391.375 706.671875 391.144531 C 705.515625 390.914062 704.375 390.628906 703.246094 390.285156 C 702.121094 389.945312 701.011719 389.546875 699.921875 389.097656 C 698.835938 388.644531 697.769531 388.140625 696.730469 387.585938 C 695.691406 387.03125 694.683594 386.425781 693.703125 385.769531 C 692.722656 385.117188 691.777344 384.414062 690.867188 383.667969 C 689.953125 382.921875 689.082031 382.128906 688.25 381.296875 C 687.417969 380.464844 686.625 379.589844 685.878906 378.679688 C 685.128906 377.769531 684.429688 376.824219 683.773438 375.84375 C 683.121094 374.863281 682.515625 373.855469 681.960938 372.816406 C 681.402344 371.777344 680.898438 370.710938 680.449219 369.621094 C 680 368.535156 679.601562 367.425781 679.261719 366.296875 C 678.917969 365.171875 678.632812 364.027344 678.402344 362.871094 C 678.171875 361.71875 678 360.550781 677.882812 359.378906 C 677.769531 358.207031 677.710938 357.03125 677.710938 355.851562 C 677.710938 354.675781 677.769531 353.5 677.882812 352.324219 C 678 351.152344 678.171875 349.988281 678.402344 348.832031 C 678.632812 347.675781 678.917969 346.535156 679.257812 345.40625 C 679.601562 344.28125 680 343.171875 680.449219 342.082031 C 680.898438 340.996094 681.402344 339.929688 681.960938 338.890625 C 682.515625 337.851562 683.121094 336.84375 683.773438 335.863281 C 684.429688 334.882812 685.128906 333.9375 685.878906 333.027344 C 686.625 332.113281 687.417969 331.242188 688.25 330.410156 C 689.082031 329.578125 689.953125 328.785156 690.867188 328.039062 C 691.777344 327.289062 692.722656 326.589844 693.703125 325.933594 C 694.683594 325.28125 695.691406 324.675781 696.730469 324.121094 C 697.769531 323.5625 698.835938 323.0625 699.921875 322.609375 C 701.011719 322.160156 702.121094 321.761719 703.246094 321.421875 C 704.375 321.078125 705.515625 320.792969 706.671875 320.5625 C 707.828125 320.332031 708.992188 320.160156 710.164062 320.042969 C 711.339844 319.929688 712.515625 319.871094 713.691406 319.871094 C 714.871094 319.871094 716.046875 319.929688 717.21875 320.042969 C 718.390625 320.160156 719.558594 320.332031 720.710938 320.5625 C 721.867188 320.792969 723.011719 321.078125 724.136719 321.421875 C 725.265625 321.761719 726.375 322.160156 727.460938 322.609375 C 728.550781 323.0625 729.613281 323.5625 730.65625 324.121094 C 731.695312 324.675781 732.703125 325.28125 733.683594 325.933594 C 734.664062 326.589844 735.609375 327.289062 736.519531 328.039062 C 737.429688 328.785156 738.300781 329.578125 739.136719 330.410156 C 739.96875 331.242188 740.757812 332.113281 741.507812 333.027344 C 742.253906 333.9375 742.957031 334.882812 743.609375 335.863281 C 744.265625 336.84375 744.871094 337.851562 745.425781 338.890625 C 745.980469 339.929688 746.484375 340.996094 746.9375 342.082031 C 747.386719 343.171875 747.785156 344.28125 748.125 345.40625 C 748.46875 346.535156 748.753906 347.675781 748.984375 348.832031 C 749.214844 349.988281 749.386719 351.152344 749.5 352.324219 C 749.617188 353.5 749.675781 354.675781 749.675781 355.851562 Z M 749.675781 355.851562 " fill-opacity="1" fill-rule="nonzero"/><g clip-path="url(#37e682f0fc)"><path fill="#38b6ff" d="M 538.878906 340.121094 C 537.773438 339.671875 536.167969 338.949219 534.160156 337.8125 C 529.628906 335.242188 523.222656 330.6875 516.566406 322.722656 C 512.238281 317.507812 507.726562 310.773438 503.621094 302.070312 C 496.765625 308.765625 490.074219 313.941406 484.15625 317.824219 L 484.15625 330.492188 C 486.996094 334.921875 489.9375 338.910156 492.921875 342.472656 C 503.203125 354.78125 513.679688 361.902344 521.34375 365.898438 L 521.34375 675.367188 C 521.34375 688.519531 532 699.171875 545.148438 699.171875 C 558.292969 699.171875 568.953125 688.519531 568.953125 675.367188 L 568.953125 501.5625 L 577.875 501.5625 L 577.875 675.367188 C 577.875 688.519531 588.535156 699.171875 601.683594 699.171875 C 614.824219 699.171875 625.484375 688.519531 625.484375 675.367188 L 625.484375 365.898438 C 633.144531 361.898438 643.625 354.78125 653.90625 342.46875 C 672.453125 320.339844 689.308594 282.167969 689.238281 219.421875 C 689.238281 217.585938 689.230469 215.703125 689.1875 213.773438 C 689.042969 205.269531 682.03125 198.492188 673.519531 198.644531 C 665.015625 198.792969 658.242188 205.808594 658.390625 214.316406 C 658.417969 216.011719 658.4375 217.714844 658.433594 219.421875 C 658.390625 271.625 646.039062 301.125 633.945312 317.96875 C 623.074219 333.03125 612 338.46875 607.9375 340.117188 L 538.878906 340.117188 Z M 538.878906 340.121094 " fill-opacity="1" fill-rule="nonzero"/></g><path fill="#38b6ff" d="M 616.730469 285.828125 C 616.730469 287.25 616.664062 288.664062 616.523438 290.078125 C 616.382812 291.488281 616.175781 292.890625 615.898438 294.28125 C 615.621094 295.671875 615.277344 297.046875 614.867188 298.40625 C 614.453125 299.761719 613.976562 301.097656 613.433594 302.40625 C 612.890625 303.71875 612.285156 305 611.617188 306.25 C 610.949219 307.503906 610.21875 308.71875 609.429688 309.898438 C 608.644531 311.078125 607.800781 312.214844 606.898438 313.3125 C 606 314.410156 605.046875 315.460938 604.042969 316.460938 C 603.039062 317.464844 601.992188 318.417969 600.894531 319.316406 C 599.796875 320.21875 598.660156 321.0625 597.480469 321.851562 C 596.300781 322.636719 595.085938 323.367188 593.832031 324.035156 C 592.582031 324.703125 591.300781 325.308594 589.988281 325.851562 C 588.679688 326.394531 587.34375 326.875 585.988281 327.285156 C 584.628906 327.695312 583.253906 328.042969 581.863281 328.316406 C 580.472656 328.59375 579.070312 328.804688 577.65625 328.941406 C 576.246094 329.082031 574.832031 329.152344 573.410156 329.152344 C 571.992188 329.152344 570.578125 329.082031 569.164062 328.941406 C 567.753906 328.804688 566.351562 328.59375 564.960938 328.316406 C 563.570312 328.042969 562.195312 327.695312 560.835938 327.285156 C 559.480469 326.875 558.144531 326.394531 556.832031 325.851562 C 555.523438 325.308594 554.242188 324.703125 552.992188 324.035156 C 551.738281 323.367188 550.523438 322.636719 549.34375 321.851562 C 548.164062 321.0625 547.027344 320.21875 545.929688 319.316406 C 544.832031 318.417969 543.78125 317.464844 542.78125 316.460938 C 541.777344 315.460938 540.824219 314.410156 539.925781 313.3125 C 539.023438 312.214844 538.179688 311.078125 537.390625 309.898438 C 536.605469 308.71875 535.875 307.503906 535.207031 306.25 C 534.539062 305 533.933594 303.71875 533.390625 302.40625 C 532.847656 301.097656 532.367188 299.761719 531.957031 298.40625 C 531.542969 297.046875 531.199219 295.671875 530.921875 294.28125 C 530.648438 292.890625 530.4375 291.488281 530.300781 290.078125 C 530.160156 288.664062 530.089844 287.25 530.089844 285.828125 C 530.089844 284.410156 530.160156 282.996094 530.300781 281.582031 C 530.4375 280.171875 530.648438 278.769531 530.921875 277.378906 C 531.199219 275.988281 531.542969 274.613281 531.957031 273.253906 C 532.367188 271.898438 532.847656 270.5625 533.390625 269.253906 C 533.933594 267.941406 534.539062 266.660156 535.207031 265.410156 C 535.875 264.15625 536.605469 262.941406 537.390625 261.761719 C 538.179688 260.582031 539.023438 259.445312 539.925781 258.347656 C 540.824219 257.25 541.777344 256.199219 542.78125 255.199219 C 543.78125 254.195312 544.832031 253.242188 545.929688 252.34375 C 547.027344 251.441406 548.164062 250.597656 549.34375 249.808594 C 550.523438 249.023438 551.738281 248.292969 552.992188 247.625 C 554.242188 246.957031 555.523438 246.351562 556.832031 245.808594 C 558.144531 245.265625 559.480469 244.785156 560.835938 244.375 C 562.195312 243.964844 563.570312 243.617188 564.960938 243.34375 C 566.351562 243.066406 567.753906 242.855469 569.164062 242.71875 C 570.578125 242.578125 571.992188 242.507812 573.410156 242.507812 C 574.832031 242.507812 576.246094 242.578125 577.65625 242.71875 C 579.070312 242.855469 580.472656 243.066406 581.863281 243.34375 C 583.253906 243.617188 584.628906 243.964844 585.988281 244.375 C 587.34375 244.785156 588.679688 245.265625 589.988281 245.808594 C 591.300781 246.351562 592.582031 246.957031 593.832031 247.625 C 595.085938 248.292969 596.300781 249.023438 597.480469 249.808594 C 598.660156 250.597656 599.796875 251.441406 600.894531 252.34375 C 601.992188 253.242188 603.039062 254.195312 604.042969 255.199219 C 605.046875 256.199219 606 257.25 606.898438 258.347656 C 607.800781 259.445312 608.644531 260.582031 609.429688 261.761719 C 610.21875 262.941406 610.949219 264.15625 611.617188 265.410156 C 612.285156 266.660156 612.890625 267.941406 613.433594 269.253906 C 613.976562 270.5625 614.453125 271.898438 614.867188 273.253906 C 615.277344 274.613281 615.621094 275.988281 615.898438 277.378906 C 616.175781 278.769531 616.382812 280.171875 616.523438 281.582031 C 616.664062 282.996094 616.730469 284.410156 616.730469 285.828125 Z M 616.730469 285.828125 " fill-opacity="1" fill-rule="nonzero"/><g clip-path="url(#f32ad11a7c)"><path fill="#38b6ff" d="M 343.828125 307.519531 L 343.828125 670.785156 C 343.828125 686.21875 356.339844 698.722656 371.769531 698.722656 C 387.199219 698.722656 399.714844 686.21875 399.714844 670.785156 L 399.714844 466.765625 L 410.1875 466.765625 L 410.1875 670.785156 C 410.1875 686.21875 422.703125 698.722656 438.128906 698.722656 C 453.5625 698.722656 466.074219 686.21875 466.074219 670.785156 L 466.074219 307.515625 C 475.066406 302.824219 487.371094 294.46875 499.4375 280.023438 C 521.210938 254.046875 541 209.238281 540.910156 135.585938 C 540.90625 133.394531 540.886719 131.210938 540.863281 129.054688 C 540.738281 119.0625 532.542969 111.070312 522.554688 111.195312 C 512.574219 111.320312 504.582031 119.519531 504.707031 129.5 C 504.730469 131.589844 504.75 133.628906 504.75 135.585938 C 504.664062 203.082031 487.179688 238.1875 471.683594 256.839844 C 463.871094 266.191406 456.351562 271.539062 451.027344 274.554688 C 448.675781 275.890625 446.792969 276.738281 445.492188 277.265625 L 364.425781 277.265625 C 359.660156 275.332031 346.664062 268.949219 333.902344 251.265625 C 319.707031 231.492188 305.199219 196.867188 305.15625 135.585938 C 305.152344 133.582031 305.167969 131.585938 305.199219 129.59375 C 305.378906 119.609375 297.429688 111.375 287.445312 111.199219 C 277.457031 111.019531 269.226562 118.972656 269.050781 128.957031 C 269.003906 131.21875 268.992188 133.429688 268.992188 135.585938 C 268.910156 209.238281 288.699219 254.042969 310.46875 280.019531 C 322.535156 294.46875 334.835938 302.828125 343.828125 307.519531 Z M 343.828125 307.519531 " fill-opacity="1" fill-rule="nonzero"/></g><path fill="#38b6ff" d="M 455.804688 213.535156 C 455.804688 215.199219 455.722656 216.859375 455.5625 218.519531 C 455.398438 220.175781 455.152344 221.820312 454.828125 223.453125 C 454.503906 225.085938 454.097656 226.699219 453.617188 228.292969 C 453.132812 229.886719 452.574219 231.453125 451.933594 232.992188 C 451.296875 234.53125 450.585938 236.035156 449.800781 237.503906 C 449.015625 238.972656 448.160156 240.398438 447.234375 241.785156 C 446.308594 243.167969 445.320312 244.503906 444.261719 245.792969 C 443.207031 247.082031 442.089844 248.3125 440.910156 249.492188 C 439.734375 250.667969 438.5 251.785156 437.214844 252.84375 C 435.925781 253.898438 434.589844 254.890625 433.207031 255.816406 C 431.820312 256.738281 430.394531 257.59375 428.925781 258.378906 C 427.457031 259.164062 425.953125 259.875 424.414062 260.511719 C 422.875 261.152344 421.308594 261.710938 419.714844 262.195312 C 418.121094 262.679688 416.507812 263.082031 414.875 263.40625 C 413.242188 263.730469 411.597656 263.976562 409.9375 264.140625 C 408.28125 264.304688 406.621094 264.382812 404.953125 264.382812 C 403.289062 264.382812 401.628906 264.304688 399.96875 264.140625 C 398.3125 263.976562 396.667969 263.730469 395.035156 263.40625 C 393.402344 263.082031 391.789062 262.679688 390.195312 262.195312 C 388.601562 261.710938 387.035156 261.152344 385.496094 260.511719 C 383.957031 259.875 382.453125 259.164062 380.984375 258.378906 C 379.515625 257.59375 378.089844 256.738281 376.703125 255.816406 C 375.320312 254.890625 373.984375 253.898438 372.695312 252.84375 C 371.40625 251.785156 370.175781 250.667969 368.996094 249.492188 C 367.820312 248.3125 366.703125 247.082031 365.644531 245.792969 C 364.589844 244.503906 363.597656 243.167969 362.671875 241.785156 C 361.75 240.398438 360.894531 238.972656 360.109375 237.503906 C 359.324219 236.035156 358.613281 234.53125 357.972656 232.992188 C 357.335938 231.453125 356.777344 229.886719 356.292969 228.292969 C 355.808594 226.699219 355.40625 225.085938 355.082031 223.453125 C 354.757812 221.820312 354.511719 220.175781 354.347656 218.519531 C 354.183594 216.859375 354.105469 215.199219 354.105469 213.535156 C 354.105469 211.867188 354.183594 210.207031 354.347656 208.550781 C 354.511719 206.890625 354.757812 205.246094 355.082031 203.613281 C 355.40625 201.980469 355.808594 200.367188 356.292969 198.773438 C 356.777344 197.179688 357.335938 195.613281 357.972656 194.074219 C 358.613281 192.535156 359.324219 191.03125 360.109375 189.5625 C 360.894531 188.09375 361.75 186.667969 362.671875 185.28125 C 363.597656 183.898438 364.589844 182.5625 365.644531 181.273438 C 366.703125 179.988281 367.820312 178.753906 368.996094 177.578125 C 370.175781 176.398438 371.40625 175.28125 372.695312 174.226562 C 373.984375 173.167969 375.320312 172.175781 376.703125 171.253906 C 378.089844 170.328125 379.515625 169.472656 380.984375 168.6875 C 382.453125 167.902344 383.957031 167.191406 385.496094 166.554688 C 387.035156 165.914062 388.601562 165.355469 390.195312 164.871094 C 391.789062 164.386719 393.402344 163.984375 395.035156 163.660156 C 396.667969 163.335938 398.3125 163.089844 399.96875 162.925781 C 401.628906 162.765625 403.289062 162.683594 404.953125 162.683594 C 406.621094 162.683594 408.28125 162.765625 409.9375 162.925781 C 411.597656 163.089844 413.242188 163.335938 414.875 163.660156 C 416.507812 163.984375 418.121094 164.386719 419.714844 164.871094 C 421.308594 165.355469 422.875 165.914062 424.414062 166.554688 C 425.953125 167.191406 427.457031 167.902344 428.925781 168.6875 C 430.394531 169.472656 431.820312 170.328125 433.207031 171.253906 C 434.589844 172.175781 435.925781 173.167969 437.214844 174.226562 C 438.5 175.28125 439.734375 176.398438 440.910156 177.578125 C 442.089844 178.753906 443.207031 179.988281 444.261719 181.273438 C 445.320312 182.5625 446.308594 183.898438 447.234375 185.28125 C 448.160156 186.667969 449.015625 188.09375 449.800781 189.5625 C 450.585938 191.03125 451.296875 192.535156 451.933594 194.074219 C 452.570312 195.613281 453.132812 197.179688 453.617188 198.773438 C 454.097656 200.367188 454.503906 201.980469 454.828125 203.613281 C 455.152344 205.246094 455.398438 206.890625 455.5625 208.550781 C 455.722656 210.207031 455.804688 211.867188 455.804688 213.535156 Z M 455.804688 213.535156 " fill-opacity="1" fill-rule="nonzero"/></svg>